<svg xmlns="http://www.w3.org/2000/svg" xmlns:xlink="http://www.w3.org/1999/xlink" width="2021.725" height="1336.996" viewBox="0 0 2021.725 1336.996"><defs><linearGradient id="a" y1="0.5" x2="1" y2="0.5" gradientUnits="objectBoundingBox"><stop offset="0" stop-color="#dae3fe"/><stop offset="1" stop-color="#e9effd"/></linearGradient><linearGradient id="f" x1="0.497" y1="1.09" x2="0.499" y2="0.373" gradientUnits="objectBoundingBox"><stop offset="0" stop-color="#ff928e"/><stop offset="1" stop-color="#fe7062"/></linearGradient><linearGradient id="g" x1="0.519" y1="2.383" x2="0.477" y2="-0.75" gradientUnits="objectBoundingBox"><stop offset="0" stop-color="#e1473d"/><stop offset="1" stop-color="#e9605a"/></linearGradient><linearGradient id="h" x1="0.382" y1="-0.274" x2="1.098" y2="3.943" xlink:href="#g"/><linearGradient id="i" x1="0.514" y1="2.023" x2="0.472" y2="-1.11" xlink:href="#g"/><linearGradient id="j" x1="0.34" y1="-0.442" x2="1.055" y2="3.435" xlink:href="#g"/><linearGradient id="k" x1="0.564" y1="-1.077" x2="0.482" y2="1.13" xlink:href="#f"/><linearGradient id="l" x1="0.49" y1="1.289" x2="0.511" y2="-0.258" xlink:href="#f"/><linearGradient id="m" x1="0.68" y1="-1.394" x2="0.419" y2="1.019" xlink:href="#g"/><linearGradient id="n" y1="0.5" x2="1" y2="0.5" gradientUnits="objectBoundingBox"><stop offset="0" stop-color="#febbba"/><stop offset="1" stop-color="#ff928e"/></linearGradient><linearGradient id="o" x1="0.479" y1="0.158" x2="0.541" y2="1.532" gradientUnits="objectBoundingBox"><stop offset="0" stop-color="#09005d"/><stop offset="1" stop-color="#1a0f91"/></linearGradient><linearGradient id="p" x1="1.107" y1="-0.006" x2="-0.123" y2="0.733" xlink:href="#o"/><linearGradient id="q" x1="1.314" y1="-0.073" x2="-0.687" y2="1.48" xlink:href="#n"/><linearGradient id="r" x1="1.01" y1="-1.182" x2="0.399" y2="0.558" xlink:href="#n"/><linearGradient id="s" x1="0.7" y1="0.019" x2="-1.5" y2="3.348" xlink:href="#n"/><linearGradient id="t" x1="1.146" y1="-0.099" x2="-0.554" y2="1.428" xlink:href="#o"/><linearGradient id="u" x1="0.181" y1="1.219" x2="0.572" y2="0.33" xlink:href="#n"/><linearGradient id="v" x1="0.53" y1="0.549" x2="0.112" y2="1.263" xlink:href="#n"/><linearGradient id="w" x1="-0.381" y1="-1.246" x2="0.485" y2="0.47" xlink:href="#o"/><linearGradient id="x" x1="0.152" y1="-0.429" x2="0.658" y2="0.973" xlink:href="#o"/><linearGradient id="y" x1="0.821" y1="0.35" x2="-0.291" y2="1.106" xlink:href="#n"/><linearGradient id="z" x1="0.28" y1="0.152" x2="1.03" y2="1.129" gradientUnits="objectBoundingBox"><stop offset="0" stop-color="#090056"/><stop offset="1" stop-color="#020039"/></linearGradient><linearGradient id="aa" x1="2.74" y1="-0.685" x2="-1.811" y2="1.784" xlink:href="#n"/><linearGradient id="ac" x1="0.044" y1="0.32" x2="1.422" y2="0.819" xlink:href="#o"/><linearGradient id="ad" x1="0.589" y1="0.833" x2="0.309" y2="-0.234" xlink:href="#n"/><linearGradient id="ae" x1="0.485" y1="0.339" x2="0.712" y2="1.663" gradientUnits="objectBoundingBox"><stop offset="0" stop-color="#4f52ff"/><stop offset="1" stop-color="#4042e2"/></linearGradient><linearGradient id="af" x1="-0.653" y1="0.098" x2="2.14" y2="1.033" xlink:href="#o"/><linearGradient id="ag" x1="-0.279" y1="0.282" x2="1.279" y2="0.718" xlink:href="#ae"/><linearGradient id="ah" x1="0.724" y1="0.148" x2="-0.021" y2="1.392" xlink:href="#n"/><linearGradient id="ai" x1="12.014" y1="19.718" x2="10.942" y2="21" xlink:href="#n"/><linearGradient id="aj" x1="8.018" y1="13.47" x2="8.925" y2="13.47" xlink:href="#z"/><linearGradient id="ak" x1="27.817" y1="66.683" x2="30.275" y2="64.035" xlink:href="#n"/><linearGradient id="al" x1="-0.779" y1="-0.309" x2="1.57" y2="1.177" xlink:href="#ae"/><linearGradient id="am" x1="-0.849" y1="-0.353" x2="3.334" y2="2.293" xlink:href="#ae"/></defs><g transform="translate(-1004 -1988.884)"><g transform="translate(814 1831)"><path d="M1709.428,1379.755c-1.231,4.112-7.416,2.436-6.4-1.733,19.594-80.023,14.729-45.226,31.146-113.4,41.04-170.437-1.919-252-5.1-342.185s66.165-195.808,212.205-141.853c119.259,44.06,213.33,75.61,259.284,74.379A10.912,10.912,0,0,1,2209.9,871.9c-32.017,48.552-116.262,156.924-228.333,153.147-144.262-4.862-141.663-44.211-176.214-9.823s-37.379,71.8-43.266,141.871C1757.017,1217.447,1756.649,1221.995,1709.428,1379.755Z" fill="#bdd0fb"/><path d="M1756.135,1098.662a285.421,285.421,0,0,1-6.748-33.721,299.671,299.671,0,0,1-2.949-34.158c-.563-22.862,1.511-46.076,8.263-68.327a144.113,144.113,0,0,1,14.086-31.908,118.6,118.6,0,0,1,22.2-27.139,130.583,130.583,0,0,1,29.085-19.4c5.16-2.435,10.27-4.966,15.569-7.12,5.214-2.33,10.588-4.3,15.941-6.317a256.679,256.679,0,0,1,33.061-9.374,212.043,212.043,0,0,1,34.18-4.022,221.4,221.4,0,0,1,34.29,1.532c11.338,1.366,22.525,3.466,33.583,5.854,22.112,4.82,43.811,10.549,65.846,14.309a291.071,291.071,0,0,0,66.713,4.121h.014a1.912,1.912,0,0,1,.262,3.815,295.833,295.833,0,0,1-67.868-2.369c-22.459-3.223-44.424-8.691-66.383-12.992-21.937-4.339-44.07-7.218-66.122-6.117a203.656,203.656,0,0,0-32.744,4.286,247.962,247.962,0,0,0-31.723,9.447c-5.154,2.018-10.322,3.989-15.357,6.321-5.105,2.15-10.05,4.684-15.036,7.115a121.905,121.905,0,0,0-26.793,18.091c-15.98,14.533-26.917,33.982-33.16,54.813-6.371,20.871-8.484,43.076-7.984,65.145a318.365,318.365,0,0,0,2.525,33.1,277.62,277.62,0,0,0,6.078,32.527l.044.17a4.586,4.586,0,0,1-8.875,2.318Z" fill="url(#a)"/></g><g transform="translate(814 1831)"><path d="M1789.584,1384.717a64.219,64.219,0,0,0,11.333-3.034,105.035,105.035,0,0,0,10.984-4.566,166.875,166.875,0,0,0,20.64-11.908,267.5,267.5,0,0,0,36.883-30.342c22.891-22.326,42.578-47.781,61.275-74.062,9.418-13.1,18.681-26.4,28.761-39.244,10.079-12.78,21.232-25.194,34.933-34.734a90.64,90.64,0,0,1,22.191-11.367,88.726,88.726,0,0,1,24.388-4.656c16.541-.864,32.824,2.12,48.423,6.537a1.064,1.064,0,0,1-.512,2.064l-.021,0c-15.693-3.4-31.762-5.737-47.562-4.2a91.946,91.946,0,0,0-22.93,5.223,85.09,85.09,0,0,0-20.54,11.224c-12.7,9.3-23.055,21.572-32.737,34.282-9.724,12.725-18.7,26.153-28.057,39.378-9.317,13.25-18.943,26.374-29.127,39.086-2.591,3.147-5.28,6.223-7.916,9.336s-5.255,6.243-8.1,9.179l-8.382,8.942-8.841,8.51a235.362,235.362,0,0,1-38.907,29.937,142.069,142.069,0,0,1-22.022,11.049c-7.68,3-15.5,5.547-24.013,6.126a1.375,1.375,0,0,1-.307-2.731Z" fill="#fff" opacity="0.5"/></g><g transform="translate(814 1831)"><path d="M665.7,1377.443s-121.781,84.5-196.9,8.576c-69.831-70.576-69.231-147.078-142.664-163.659a11.518,11.518,0,0,1-6.049-18.8c22.738-25.976,78.764-71.145,176.036-39.022C628.09,1208.12,665.7,1377.443,665.7,1377.443Z" fill="#bdd0fb"/><path d="M656.169,1373.808c-7.861.009-15.183-1.839-22.414-4.111a129.459,129.459,0,0,1-20.873-8.761,214.876,214.876,0,0,1-37.486-25.062l-8.616-7.264-8.217-7.69c-2.786-2.52-5.363-5.238-7.975-7.924s-5.25-5.352-7.811-8.08c-10.085-11.04-19.682-22.488-29-34.066-9.349-11.555-18.359-23.318-28.005-34.383-9.605-11.055-19.785-21.669-31.921-29.417a77.769,77.769,0,0,0-19.4-9.048,84.477,84.477,0,0,0-21.244-3.441c-14.527-.495-29.091,2.572-43.26,6.583l-.017,0a1.064,1.064,0,0,1-.649-2.025c14.01-5.016,28.745-8.746,43.968-8.972a81.306,81.306,0,0,1,22.662,2.781,83.417,83.417,0,0,1,21.06,9.084c13.153,7.923,24.137,18.625,34.142,29.726,10.009,11.163,19.293,22.776,28.7,34.2,18.686,22.934,38.22,45.033,60.462,64.106a246.911,246.911,0,0,0,35.491,25.6,154.271,154.271,0,0,0,19.551,9.71,96.329,96.329,0,0,0,10.3,3.551,59.318,59.318,0,0,0,10.518,2.14l.163.015a1.375,1.375,0,0,1-.123,2.744Z" fill="url(#a)"/><path d="M764.712,823.773s-7-121.6-65.545-149.529S532.683,634.666,514.5,460.722c-10.644-101.834-16.8-146.235-20.078-165.548a11.524,11.524,0,0,1,12.564-13.406c53.754,5.66,229.081,32.7,274.7,147.149C835.774,564.6,764.712,823.773,764.712,823.773Z" fill="#bdd0fb"/><path d="M552.184,326.536c17.688,13.227,33.885,27.962,49.652,43.247l5.869,5.77,5.739,5.9c3.838,3.922,7.666,7.857,11.362,11.915,7.523,8,14.668,16.337,21.889,24.619,6.988,8.472,14.064,16.889,20.654,25.688,6.8,8.638,13.189,17.593,19.592,26.538,12.405,18.2,24.582,36.429,35.079,56.028,2.612,4.907,5.3,9.779,7.842,14.718l6.877,15.176,3.434,7.59,2.979,7.769L749,587.072l4.976,15.86,2.469,7.934,2.065,8.041c1.354,5.366,2.8,10.711,4.016,16.106l3.274,16.259c8.022,43.512,10.858,87.7,6.615,131.926a4.751,4.751,0,0,1-9.478-.612l.011-.3a497.383,497.383,0,0,0-1.929-64.408,585.416,585.416,0,0,0-9.434-63.8L748.1,638.359c-1.3-5.2-2.767-10.362-4.107-15.553l-2.062-7.772-2.457-7.65L734.544,592.1,728.8,577.115l-2.848-7.5-3.291-7.306-6.574-14.616c-2.435-4.747-5.006-9.424-7.5-14.141-4.791-9.491-10.639-18.645-16.087-27.932-2.7-4.667-5.783-9.1-8.657-13.666-2.969-4.5-5.739-9.14-8.871-13.535C663,460.457,650.1,443.12,636.844,426.043c-6.787-8.409-13.538-16.861-20.62-25.04-3.444-4.174-7.024-8.229-10.617-12.275l-5.372-6.088-5.505-5.965c-14.61-15.946-29.884-31.471-45.888-45.9l-.08-.071a2.7,2.7,0,0,1,3.422-4.164Z" fill="url(#a)"/><path d="M779.674,1365.8c11.419,6.527-102.1-156.438-125.274-402.539-10.921-115.969-2.026-259.835-63.909-319.422-51.5-49.593-238.579-32.225-299.887-25a9.107,9.107,0,0,0-5.237,15.632c27.514,26.254,86.032,87.776,98.547,146.828,16.5,77.836,86.121,131.1,150.38,148.395s99.659,32.374,124.762,138.488S747.227,1347.252,779.674,1365.8Z" fill="#bdd0fb"/><path d="M373.773,656.741A295.061,295.061,0,0,1,485.154,692.38a231.259,231.259,0,0,1,47.638,35.028,200.387,200.387,0,0,1,36.319,46.948l3.563,6.55c1.173,2.19,2.14,4.484,3.218,6.722,1.018,2.253,2.133,4.519,3.07,6.762l2.823,6.732q5.676,13.45,11.171,26.976,10.979,27.055,21.086,54.457c13.5,36.523,25.838,73.464,35.87,111.165a1.855,1.855,0,0,1-3.551,1.066l-.018-.056c-6.093-18.367-12.522-36.7-19.3-54.867Q617,912.554,606.349,885.48l-10.724-27.042L584.6,831.516q-5.5-13.467-11.222-26.839l-2.835-6.7c-.943-2.235-1.99-4.324-2.978-6.494-1.019-2.141-1.923-4.341-3.033-6.438l-3.365-6.271c-9.017-16.727-20.987-31.711-34.379-45.207a219.578,219.578,0,0,0-21.621-18.683l-2.838-2.183-2.921-2.074c-1.954-1.374-3.872-2.8-5.856-4.135-4-2.614-7.979-5.282-12.126-7.682a296.8,296.8,0,0,0-52.117-24.4,309.644,309.644,0,0,0-55.842-14.712l-.1-.016a1.488,1.488,0,0,1,.4-2.948Z" fill="url(#a)"/><path d="M671.263,1384.567c7.008,3.695-39.476-76.315-43.043-146.8S608.751,1046.964,547.964,975s-127.355-78.535-211.233-13.109c-69.9,54.521-113.5,82.036-139.069,87.151a9.662,9.662,0,0,0-6.482,14.089c16.4,30.2,62.768,99.577,140.622,94.693,99.308-6.23,219.662-70.788,256.344-16.933s31.973,83.988,33.1,109.51S624.884,1360.114,671.263,1384.567Z" fill="#bdd0fb"/><path d="M365.047,1048.456a196.875,196.875,0,0,1,17.285-14.567c5.994-4.557,12.173-8.9,18.615-12.858a186.055,186.055,0,0,1,41.168-19.457,129.42,129.42,0,0,1,22.563-5.094,96.417,96.417,0,0,1,23.433-.1c1.949.315,3.918.5,5.849.933,1.916.451,3.9.82,5.758,1.351l10.972,3.406,10.738,4.177,10.41,5.005a130.923,130.923,0,0,1,36.257,28.379c10.348,11.418,18.418,24.581,25.058,38.2l2.491,5.116c.855,1.694,1.475,3.487,2.223,5.224,1.41,3.51,2.928,6.978,4.241,10.516l3.675,10.7c1.3,3.541,2.124,7.222,3.171,10.833a390.532,390.532,0,0,1,9.4,43.966,1.654,1.654,0,0,1-3.236.669l-.013-.054c-3.546-14.434-6.933-28.892-11.775-42.868-2.2-7.061-4.973-13.891-7.551-20.784-1.389-3.4-2.973-6.719-4.446-10.08-.779-1.66-1.433-3.384-2.312-4.99l-2.562-4.855a165.586,165.586,0,0,0-24.8-35.685,127.125,127.125,0,0,0-34.17-26.045l-9.765-4.625L507.6,1011l-10.4-3.162c-1.725-.489-3.409-.811-5.115-1.232-1.7-.4-3.455-.565-5.179-.866a87.112,87.112,0,0,0-21.158-.058,121.286,121.286,0,0,0-21.093,4.258A204.013,204.013,0,0,0,404.423,1027c-6.429,3.558-12.808,7.265-19,11.288-6.172,4.028-12.277,8.285-18.1,12.744l-.043.033a1.72,1.72,0,0,1-2.237-2.6Z" fill="url(#a)"/></g><g transform="translate(814 1831)"><path d="M624.359,969.633l12.2,379.262c2.126,66.133,56.4,118.762,122.876,119.153l908.208,5.353a89.03,89.03,0,0,0,88.768-75.77c14.2-95.777,32.3-267.148,11.92-428Z" fill="url(#f)"/><path d="M1635.467,1450.1h-.007l-6.615-.039a1.1,1.1,0,0,1,.006-2.2h.007l6.615.038a1.1,1.1,0,0,1-.006,2.206Zm15.43-.1a1.1,1.1,0,0,1-.067-2.2c2.161-.133,4.346-.353,6.495-.652a1.1,1.1,0,1,1,.3,2.183c-2.2.308-4.446.533-6.663.67Zm-37.481-.025h-.006l-6.616-.039a1.1,1.1,0,0,1,.006-2.206h.007l6.616.04a1.1,1.1,0,0,1-.007,2.2Zm-22.052-.13h-.006l-6.616-.039a1.1,1.1,0,0,1,.007-2.2h.006l6.616.039a1.1,1.1,0,0,1-.007,2.2Zm-22.052-.13h-.006l-6.616-.039a1.1,1.1,0,0,1-1.1-1.109,1.19,1.19,0,0,1,1.109-1.1l6.616.039a1.1,1.1,0,0,1-.007,2.205Zm-22.051-.129h-.006l-6.616-.04a1.1,1.1,0,0,1,.007-2.206h.006l6.616.04a1.1,1.1,0,0,1-.007,2.206Zm-22.052-.131h-.006l-6.616-.038a1.1,1.1,0,0,1-1.1-1.109,1.153,1.153,0,0,1,1.109-1.1l6.616.039a1.1,1.1,0,0,1-.007,2.205Zm-22.052-.13h-.006l-6.614-.039a1.1,1.1,0,0,1,.006-2.2h.006l6.615.039a1.1,1.1,0,0,1-.007,2.205Zm-22.05-.13h-.007l-6.615-.039a1.1,1.1,0,0,1,.006-2.2h.006l6.616.039a1.1,1.1,0,0,1-.006,2.205Zm-22.052-.13h-.007l-6.615-.038a1.1,1.1,0,0,1,.006-2.206h.007l6.615.039a1.1,1.1,0,0,1-.006,2.205Zm-22.051-.13H1437l-6.615-.039a1.1,1.1,0,0,1,.006-2.2h.007l6.615.039a1.1,1.1,0,0,1-.006,2.205Zm-22.052-.13h-.007l-6.615-.039a1.1,1.1,0,0,1,.006-2.2h.007l6.615.039a1.1,1.1,0,0,1-.006,2.205Zm-22.052-.129h-.006l-6.615-.04a1.1,1.1,0,0,1,.007-2.2h.006l6.614.04a1.1,1.1,0,0,1-.006,2.2Zm-22.051-.131h-.006l-6.616-.038a1.1,1.1,0,0,1,.007-2.205h.006l6.616.038a1.1,1.1,0,0,1-.007,2.2Zm-22.052-.13h-.006l-6.616-.039a1.1,1.1,0,0,1,.007-2.2h.006l6.616.039a1.1,1.1,0,0,1-.007,2.2Zm-22.052-.129h-.006l-6.615-.04a1.1,1.1,0,0,1,.007-2.2h.006l6.615.04a1.1,1.1,0,0,1-.007,2.2Zm-22.051-.13h-.006l-6.616-.039a1.1,1.1,0,0,1-1.1-1.109,1.207,1.207,0,0,1,1.109-1.1l6.616.038a1.1,1.1,0,0,1-.007,2.206Zm-22.051-.131h-.007l-6.615-.038a1.1,1.1,0,0,1,.006-2.206h.006l6.616.039a1.1,1.1,0,0,1-.006,2.2Zm-22.051-.13h-.007l-6.615-.039a1.1,1.1,0,0,1-1.1-1.109,1.168,1.168,0,0,1,1.11-1.1l6.615.039a1.1,1.1,0,0,1-.006,2.2Zm-22.052-.129h-.007l-6.615-.039a1.1,1.1,0,0,1,.006-2.205h.007l6.615.039a1.1,1.1,0,0,1-.006,2.2Zm-22.052-.13h-.007l-6.615-.039a1.1,1.1,0,0,1-1.1-1.109,1.131,1.131,0,0,1,1.109-1.1l6.615.038a1.1,1.1,0,0,1-.006,2.206Zm-22.051-.131h-.006l-6.616-.039a1.1,1.1,0,0,1,.006-2.205h.007l6.616.039a1.1,1.1,0,0,1-.007,2.2Zm-22.052-.129h-.006l-6.616-.04a1.1,1.1,0,0,1,.007-2.205h.006l6.615.04a1.1,1.1,0,0,1-.006,2.2Zm-22.052-.13h-.006l-6.615-.039a1.1,1.1,0,0,1,.007-2.2h.006l6.615.039a1.1,1.1,0,0,1-.007,2.2Zm-22.051-.131h-.006l-6.616-.038a1.1,1.1,0,0,1,.007-2.2h.006l6.616.038a1.1,1.1,0,0,1-.007,2.2Zm-22.052-.13h-.006l-6.616-.039a1.1,1.1,0,0,1,.007-2.2h.006l6.616.039a1.1,1.1,0,0,1-.007,2.2Zm-22.052-.129h-.006l-6.614-.039a1.1,1.1,0,0,1,.006-2.2h.006l6.615.039a1.1,1.1,0,0,1-.007,2.205Zm-22.05-.13h-.007l-6.615-.039a1.1,1.1,0,0,1,.006-2.2h.007l6.615.038a1.1,1.1,0,0,1-.006,2.206Zm-22.052-.131h-.007l-6.615-.038a1.1,1.1,0,0,1,.006-2.206h.007l6.615.039a1.1,1.1,0,0,1-.006,2.2Zm-22.051-.129h-.007l-6.615-.04a1.1,1.1,0,0,1,.006-2.2h.007l6.615.04a1.1,1.1,0,0,1-.006,2.205Zm-22.052-.13h-.007l-6.615-.039a1.1,1.1,0,0,1-1.1-1.109,1.184,1.184,0,0,1,1.109-1.1l6.615.039a1.1,1.1,0,0,1-.006,2.205Zm-22.052-.13h-.007l-6.615-.039a1.1,1.1,0,0,1,.006-2.2h.007l6.615.038a1.1,1.1,0,0,1-.006,2.206Zm-22.051-.13h-.006l-6.616-.039a1.1,1.1,0,0,1-1.1-1.109,1.147,1.147,0,0,1,1.109-1.1l6.616.04a1.1,1.1,0,0,1-.007,2.205Zm-22.052-.13h-.006l-6.616-.039a1.1,1.1,0,0,1,.007-2.2h.006l6.616.039a1.1,1.1,0,0,1-.007,2.2Zm742.666-.117a1.1,1.1,0,0,1-.348-2.149c2.057-.684,4.113-1.457,6.11-2.3a1.1,1.1,0,1,1,.857,2.033c-2.05.863-4.16,1.657-6.272,2.359A1.106,1.106,0,0,1,1672.484,1445.825Zm-764.718-.013h-.006l-6.616-.039a1.1,1.1,0,0,1-1.1-1.109,1.114,1.114,0,0,1,1.109-1.1l6.616.039a1.1,1.1,0,0,1-.007,2.2Zm-22.051-.13h-.006l-6.616-.039a1.1,1.1,0,0,1,.007-2.2h.006l6.616.038a1.1,1.1,0,0,1-.007,2.206Zm-22.052-.13h-.006l-6.615-.038a1.1,1.1,0,0,1,.006-2.206h.006l6.616.039a1.1,1.1,0,0,1-.007,2.2Zm-22.051-.13H841.6l-6.616-.039a1.1,1.1,0,0,1,.007-2.205H835l6.616.039a1.1,1.1,0,0,1-.006,2.2Zm-22.051-.13h-.007l-6.615-.039a1.1,1.1,0,0,1,.006-2.205h.007l6.615.039a1.1,1.1,0,0,1-.006,2.2Zm-22.052-.129H797.5l-6.615-.04a1.1,1.1,0,0,1,.006-2.206h.007l6.615.04a1.1,1.1,0,0,1-.006,2.206Zm-22.048-.248h-.056c-2.205-.11-4.444-.284-6.653-.519a1.1,1.1,0,0,1-.98-1.213,1.087,1.087,0,0,1,1.212-.979c2.169.23,4.366.4,6.531.508a1.1,1.1,0,0,1-.054,2.2Zm-21.789-3.138a1.1,1.1,0,0,1-.259-.03c-2.152-.518-4.319-1.106-6.443-1.746a1.1,1.1,0,0,1,.638-2.111c2.083.628,4.21,1.2,6.321,1.712a1.1,1.1,0,0,1-.257,2.175Zm938.608-5.53a1.1,1.1,0,0,1-.607-2.024c1.82-1.193,3.609-2.468,5.318-3.789a1.1,1.1,0,1,1,1.348,1.744c-1.753,1.357-3.589,2.665-5.455,3.888A1.1,1.1,0,0,1,1692.28,1436.247Zm-959.43-1.614a1.08,1.08,0,0,1-.452-.1c-2.011-.908-4.028-1.889-6-2.915a1.1,1.1,0,1,1,1.021-1.955c1.931,1.008,3.91,1.97,5.881,2.861a1.1,1.1,0,0,1-.454,2.107Zm-19.114-10.894a1.092,1.092,0,0,1-.632-.2c-1.811-1.27-3.611-2.61-5.351-3.982a1.1,1.1,0,1,1,1.365-1.731c1.708,1.346,3.475,2.661,5.252,3.909a1.1,1.1,0,0,1-.634,2Zm995.218-1.823a1.1,1.1,0,0,1-.82-1.839c1.444-1.608,2.845-3.3,4.165-5.024a1.1,1.1,0,0,1,1.75,1.34c-1.353,1.77-2.792,3.506-4.274,5.157A1.1,1.1,0,0,1,1708.954,1421.916ZM696.977,1409.478a1.1,1.1,0,0,1-.79-.333c-1.547-1.586-3.069-3.238-4.524-4.91a1.1,1.1,0,1,1,1.662-1.447c1.428,1.64,2.923,3.26,4.441,4.817a1.1,1.1,0,0,1-.789,1.873Zm1024.4-5.7a1.086,1.086,0,0,1-.5-.12,1.1,1.1,0,0,1-.484-1.481c.978-1.931,1.893-3.925,2.718-5.928a1.1,1.1,0,1,1,2.039.84c-.848,2.056-1.787,4.1-2.791,6.085A1.1,1.1,0,0,1,1721.376,1403.781ZM683.148,1392.344a1.1,1.1,0,0,1-.921-.495c-1.227-1.853-2.415-3.761-3.53-5.671a1.1,1.1,0,1,1,1.9-1.111c1.1,1.873,2.26,3.746,3.466,5.565a1.1,1.1,0,0,1-.918,1.712Zm1045.518-9.3a1.105,1.105,0,0,1-1.08-1.329c.34-1.617.637-3.277.883-4.933l.225-1.518a1.1,1.1,0,0,1,2.182.319l-.225,1.525c-.253,1.7-.558,3.4-.907,5.059A1.1,1.1,0,0,1,1728.666,1383.046Zm-1055.9-10.129a1.1,1.1,0,0,1-1.018-.678c-.854-2.042-1.662-4.142-2.4-6.242a1.1,1.1,0,1,1,2.08-.732c.726,2.059,1.52,4.12,2.358,6.124a1.1,1.1,0,0,1-1.017,1.528Zm1059.207-11.673a1.155,1.155,0,0,1-.153-.011,1.1,1.1,0,0,1-.94-1.244q.45-3.228.9-6.552a1.1,1.1,0,0,1,2.186.3q-.45,3.326-.9,6.559A1.1,1.1,0,0,1,1731.975,1361.244Zm-1065.741-9.375a1.1,1.1,0,0,1-1.078-.877c-.454-2.176-.85-4.386-1.178-6.569a1.1,1.1,0,1,1,2.182-.328c.321,2.143.709,4.312,1.154,6.447a1.1,1.1,0,0,1-.854,1.3A1.083,1.083,0,0,1,666.234,1351.869Zm1068.654-12.489a1.1,1.1,0,0,1-1.095-1.241l.825-6.562a1.1,1.1,0,0,1,2.188.271l-.825,6.568A1.1,1.1,0,0,1,1734.888,1339.38ZM663.773,1330a1.1,1.1,0,0,1-1.1-1.067l-.212-6.612a1.1,1.1,0,0,1,1.066-1.137,1.076,1.076,0,0,1,1.137,1.066l.213,6.612a1.1,1.1,0,0,1-1.067,1.137Zm1073.778-12.511a1.1,1.1,0,0,1-1.1-1.229q.378-3.257.749-6.571a1.116,1.116,0,0,1,1.219-.973,1.1,1.1,0,0,1,.973,1.219q-.374,3.321-.751,6.579A1.1,1.1,0,0,1,1737.551,1317.485Zm-1074.487-9.53a1.1,1.1,0,0,1-1.1-1.067l-.215-6.612a1.1,1.1,0,0,1,2.2-.072l.213,6.613a1.1,1.1,0,0,1-1.066,1.137Zm1076.9-12.395c-.038,0-.077,0-.116-.005a1.1,1.1,0,0,1-.983-1.211q.342-3.266.676-6.58a1.1,1.1,0,1,1,2.194.222q-.335,3.317-.676,6.586A1.1,1.1,0,0,1,1739.963,1295.56Zm-1077.607-9.645a1.1,1.1,0,0,1-1.1-1.067l-.213-6.612a1.1,1.1,0,0,1,2.2-.072l.213,6.613a1.1,1.1,0,0,1-1.066,1.137Zm1079.768-12.3c-.035,0-.068,0-.1,0a1.1,1.1,0,0,1-1-1.2q.3-3.272.6-6.585a1.093,1.093,0,0,1,1.2-1,1.1,1.1,0,0,1,1,1.2q-.3,3.315-.6,6.593A1.1,1.1,0,0,1,1742.124,1273.612Zm-1080.477-9.738a1.1,1.1,0,0,1-1.1-1.067l-.214-6.613a1.1,1.1,0,0,1,1.066-1.137,1.114,1.114,0,0,1,1.139,1.066l.213,6.613a1.1,1.1,0,0,1-1.067,1.137Zm1082.383-12.238c-.031,0-.06,0-.09,0a1.1,1.1,0,0,1-1.011-1.187l.521-6.593a1.09,1.09,0,0,1,1.185-1.015,1.1,1.1,0,0,1,1.014,1.185l-.521,6.6A1.1,1.1,0,0,1,1744.03,1251.636Zm-1083.092-9.8a1.1,1.1,0,0,1-1.1-1.067l-.212-6.613a1.1,1.1,0,0,1,2.2-.071l.212,6.613a1.1,1.1,0,0,1-1.066,1.137Zm1084.734-12.191-.077,0a1.1,1.1,0,0,1-1.025-1.175l.441-6.6a1.1,1.1,0,1,1,2.2.145l-.44,6.6A1.1,1.1,0,0,1,1745.672,1229.643ZM660.23,1219.792a1.1,1.1,0,0,1-1.1-1.066l-.212-6.612a1.1,1.1,0,0,1,1.066-1.137,1.087,1.087,0,0,1,1.138,1.066l.212,6.611a1.1,1.1,0,0,1-1.067,1.138Zm1086.812-12.163-.062,0a1.1,1.1,0,0,1-1.039-1.161q.184-3.291.356-6.6a1.1,1.1,0,1,1,2.2.114q-.172,3.319-.358,6.611A1.1,1.1,0,0,1,1747.042,1207.629Zm-1087.521-9.877a1.1,1.1,0,0,1-1.1-1.067l-.212-6.612a1.1,1.1,0,0,1,2.2-.071l.212,6.612a1.1,1.1,0,0,1-1.066,1.137ZM1748.132,1185.6h-.048a1.1,1.1,0,0,1-1.055-1.149q.142-3.293.272-6.607a1.091,1.091,0,0,1,1.144-1.058,1.1,1.1,0,0,1,1.059,1.145q-.129,3.316-.271,6.615A1.1,1.1,0,0,1,1748.132,1185.6Zm-1089.32-9.889a1.1,1.1,0,0,1-1.1-1.067l-.214-6.612a1.1,1.1,0,0,1,1.066-1.137,1.114,1.114,0,0,1,1.138,1.066l.213,6.612a1.1,1.1,0,0,1-1.066,1.137Zm1090.118-12.153h-.033a1.1,1.1,0,0,1-1.071-1.135q.1-3.3.181-6.61a1.1,1.1,0,1,1,2.205.056q-.084,3.317-.181,6.619A1.1,1.1,0,0,1,1748.93,1163.559ZM658.1,1153.671a1.1,1.1,0,0,1-1.1-1.067l-.213-6.612a1.1,1.1,0,0,1,1.066-1.137,1.115,1.115,0,0,1,1.137,1.066l.214,6.612a1.1,1.1,0,0,1-1.067,1.137Zm1091.317-12.162h-.016a1.1,1.1,0,0,1-1.087-1.12q.051-3.3.086-6.61a1.17,1.17,0,0,1,1.115-1.09,1.1,1.1,0,0,1,1.091,1.114q-.036,3.317-.087,6.621A1.1,1.1,0,0,1,1749.421,1141.509ZM657.4,1131.631a1.1,1.1,0,0,1-1.1-1.067l-.214-6.612a1.1,1.1,0,0,1,1.067-1.137,1.114,1.114,0,0,1,1.137,1.066l.214,6.612a1.1,1.1,0,0,1-1.066,1.137Zm1092.2-12.173a1.1,1.1,0,0,1-1.1-1.1v-.534q0-3.033-.013-6.073a1.1,1.1,0,0,1,1.1-1.107h0a1.1,1.1,0,0,1,1.1,1.1q.012,3.045.013,6.082v.534A1.1,1.1,0,0,1,1749.594,1119.458ZM656.687,1109.59a1.1,1.1,0,0,1-1.1-1.067l-.212-6.611a1.1,1.1,0,0,1,1.066-1.137,1.063,1.063,0,0,1,1.138,1.066l.212,6.611a1.1,1.1,0,0,1-1.067,1.138Zm1092.745-12.176a1.1,1.1,0,0,1-1.1-1.086q-.049-3.3-.117-6.6a1.1,1.1,0,0,1,1.08-1.125,1.136,1.136,0,0,1,1.125,1.079q.068,3.313.117,6.618a1.1,1.1,0,0,1-1.085,1.119ZM655.978,1087.55a1.1,1.1,0,0,1-1.1-1.067l-.212-6.612a1.1,1.1,0,0,1,1.066-1.138,1.12,1.12,0,0,1,1.138,1.066l.212,6.613a1.1,1.1,0,0,1-1.066,1.138Zm1092.937-12.176a1.1,1.1,0,0,1-1.1-1.067q-.1-3.3-.227-6.6a1.1,1.1,0,0,1,1.061-1.142,1.077,1.077,0,0,1,1.142,1.06q.123,3.312.227,6.617a1.1,1.1,0,0,1-1.066,1.137ZM655.269,1065.51a1.1,1.1,0,0,1-1.1-1.067l-.212-6.613a1.1,1.1,0,1,1,2.2-.071l.212,6.613a1.1,1.1,0,0,1-1.066,1.137Zm1092.754-12.166a1.1,1.1,0,0,1-1.1-1.048q-.164-3.3-.343-6.6a1.1,1.1,0,0,1,1.041-1.162,1.116,1.116,0,0,1,1.16,1.042q.183,3.308.345,6.611a1.105,1.105,0,0,1-1.047,1.157Zm-1093.462-9.875a1.1,1.1,0,0,1-1.1-1.067l-.213-6.613a1.1,1.1,0,1,1,2.2-.071l.215,6.613a1.105,1.105,0,0,1-1.067,1.138Zm1092.176-12.139a1.1,1.1,0,0,1-1.1-1.028q-.222-3.3-.466-6.592a1.1,1.1,0,0,1,1.019-1.18,1.088,1.088,0,0,1,1.18,1.019q.242,3.3.468,6.6a1.1,1.1,0,0,1-1.026,1.176Zm-1092.886-9.9a1.1,1.1,0,0,1-1.1-1.067l-.212-6.613a1.1,1.1,0,0,1,1.066-1.137,1.087,1.087,0,0,1,1.137,1.066l.213,6.612a1.1,1.1,0,0,1-1.066,1.137A.228.228,0,0,1,653.851,1021.429Zm1091.176-12.083a1.1,1.1,0,0,1-1.1-1.005q-.288-3.293-.6-6.583a1.1,1.1,0,1,1,2.194-.206q.312,3.3.6,6.595a1.1,1.1,0,0,1-1,1.2C1745.091,1009.345,1745.059,1009.346,1745.027,1009.346ZM653.143,999.387a1.1,1.1,0,0,1-1.1-1.067l-.213-6.612a1.1,1.1,0,0,1,1.066-1.138,1.122,1.122,0,0,1,1.138,1.067l.213,6.612a1.1,1.1,0,0,1-1.066,1.138ZM1742.868,987.4a1.1,1.1,0,0,1-1.1-.983q-.36-3.285-.74-6.569a1.1,1.1,0,0,1,2.19-.254q.381,3.289.742,6.584a1.1,1.1,0,0,1-.977,1.215A.967.967,0,0,1,1742.868,987.4ZM652.435,977.347a1.1,1.1,0,0,1-1.1-1.067l-.248-7.75h4a1.1,1.1,0,1,1,0,2.2H653.36l.176,5.474a1.1,1.1,0,0,1-1.066,1.138Zm1083.2-6.612h-6.616a1.1,1.1,0,0,1,0-2.2h6.616a1.1,1.1,0,0,1,0,2.2Zm-22.052,0h-6.616a1.1,1.1,0,0,1,0-2.2h6.616a1.1,1.1,0,1,1,0,2.2Zm-22.052,0h-6.616a1.1,1.1,0,0,1,0-2.2h6.616a1.1,1.1,0,1,1,0,2.2Zm-22.052,0h-6.615a1.1,1.1,0,1,1,0-2.2h6.615a1.1,1.1,0,1,1,0,2.2Zm-22.052,0h-6.615a1.1,1.1,0,1,1,0-2.2h6.615a1.1,1.1,0,1,1,0,2.2Zm-22.052,0h-6.615a1.1,1.1,0,1,1,0-2.2h6.615a1.1,1.1,0,1,1,0,2.2Zm-22.052,0H1596.7a1.1,1.1,0,1,1,0-2.2h6.615a1.1,1.1,0,1,1,0,2.2Zm-22.052,0h-6.615a1.1,1.1,0,1,1,0-2.2h6.615a1.1,1.1,0,1,1,0,2.2Zm-22.052,0H1552.6a1.1,1.1,0,1,1,0-2.2h6.615a1.1,1.1,0,1,1,0,2.2Zm-22.051,0h-6.616a1.1,1.1,0,1,1,0-2.2h6.616a1.1,1.1,0,0,1,0,2.2Zm-22.052,0h-6.616a1.1,1.1,0,1,1,0-2.2h6.616a1.1,1.1,0,0,1,0,2.2Zm-22.052,0h-6.616a1.1,1.1,0,0,1,0-2.2h6.616a1.1,1.1,0,0,1,0,2.2Zm-22.052,0h-6.616a1.1,1.1,0,0,1,0-2.2h6.616a1.1,1.1,0,0,1,0,2.2Zm-22.052,0h-6.616a1.1,1.1,0,0,1,0-2.2h6.616a1.1,1.1,0,0,1,0,2.2Zm-22.052,0h-6.616a1.1,1.1,0,0,1,0-2.2h6.616a1.1,1.1,0,0,1,0,2.2Zm-22.052,0h-6.616a1.1,1.1,0,0,1,0-2.2h6.616a1.1,1.1,0,0,1,0,2.2Zm-22.052,0h-6.616a1.1,1.1,0,0,1,0-2.2h6.616a1.1,1.1,0,1,1,0,2.2Zm-22.052,0h-6.616a1.1,1.1,0,0,1,0-2.2h6.616a1.1,1.1,0,1,1,0,2.2Zm-22.052,0h-6.615a1.1,1.1,0,1,1,0-2.2h6.615a1.1,1.1,0,1,1,0,2.2Zm-22.052,0h-6.615a1.1,1.1,0,1,1,0-2.2h6.615a1.1,1.1,0,1,1,0,2.2Zm-22.052,0h-6.615a1.1,1.1,0,1,1,0-2.2h6.615a1.1,1.1,0,1,1,0,2.2Zm-22.052,0h-6.615a1.1,1.1,0,1,1,0-2.2h6.615a1.1,1.1,0,1,1,0,2.2Zm-22.052,0h-6.615a1.1,1.1,0,1,1,0-2.2h6.615a1.1,1.1,0,1,1,0,2.2Zm-22.052,0h-6.615a1.1,1.1,0,1,1,0-2.2h6.615a1.1,1.1,0,1,1,0,2.2Zm-22.051,0h-6.616a1.1,1.1,0,1,1,0-2.2h6.616a1.1,1.1,0,0,1,0,2.2Zm-22.052,0h-6.616a1.1,1.1,0,1,1,0-2.2h6.616a1.1,1.1,0,0,1,0,2.2Zm-22.052,0h-6.616a1.1,1.1,0,0,1,0-2.2h6.616a1.1,1.1,0,0,1,0,2.2Zm-22.052,0h-6.616a1.1,1.1,0,0,1,0-2.2h6.616a1.1,1.1,0,0,1,0,2.2Zm-22.052,0h-6.616a1.1,1.1,0,0,1,0-2.2h6.616a1.1,1.1,0,1,1,0,2.2Zm-22.052,0h-6.616a1.1,1.1,0,0,1,0-2.2h6.616a1.1,1.1,0,1,1,0,2.2Zm-22.052,0h-6.615a1.1,1.1,0,1,1,0-2.2h6.615a1.1,1.1,0,1,1,0,2.2Zm-22.052,0H1045.4a1.1,1.1,0,0,1,0-2.2h6.616a1.1,1.1,0,1,1,0,2.2Zm-22.052,0h-6.615a1.1,1.1,0,1,1,0-2.2h6.615a1.1,1.1,0,1,1,0,2.2Zm-22.052,0H1001.3a1.1,1.1,0,1,1,0-2.2h6.615a1.1,1.1,0,1,1,0,2.2Zm-22.052,0h-6.615a1.1,1.1,0,1,1,0-2.2h6.615a1.1,1.1,0,1,1,0,2.2Zm-22.052,0H957.2a1.1,1.1,0,1,1,0-2.2h6.615a1.1,1.1,0,1,1,0,2.2Zm-22.051,0h-6.616a1.1,1.1,0,1,1,0-2.2h6.616a1.1,1.1,0,0,1,0,2.2Zm-22.053,0h-6.615a1.1,1.1,0,1,1,0-2.2h6.615a1.1,1.1,0,1,1,0,2.2Zm-22.051,0h-6.616a1.1,1.1,0,1,1,0-2.2h6.616a1.1,1.1,0,0,1,0,2.2Zm-22.052,0h-6.616a1.1,1.1,0,1,1,0-2.2H875.6a1.1,1.1,0,0,1,0,2.2Zm-22.052,0h-6.616a1.1,1.1,0,0,1,0-2.2h6.616a1.1,1.1,0,0,1,0,2.2Zm-22.052,0h-6.616a1.1,1.1,0,0,1,0-2.2H831.5a1.1,1.1,0,0,1,0,2.2Zm-22.052,0h-6.616a1.1,1.1,0,0,1,0-2.2h6.616a1.1,1.1,0,0,1,0,2.2Zm-22.052,0h-6.616a1.1,1.1,0,0,1,0-2.2H787.4a1.1,1.1,0,1,1,0,2.2Zm-22.052,0h-6.616a1.1,1.1,0,0,1,0-2.2h6.616a1.1,1.1,0,1,1,0,2.2Zm-22.052,0h-6.615a1.1,1.1,0,1,1,0-2.2h6.615a1.1,1.1,0,1,1,0,2.2Zm-22.052,0h-6.615a1.1,1.1,0,1,1,0-2.2h6.615a1.1,1.1,0,1,1,0,2.2Zm-22.052,0h-6.615a1.1,1.1,0,1,1,0-2.2h6.615a1.1,1.1,0,1,1,0,2.2Zm-22.052,0h-6.615a1.1,1.1,0,1,1,0-2.2h6.615a1.1,1.1,0,1,1,0,2.2Z" fill="#fff"/><path d="M890.524,694.307l2.732-29.25a22.486,22.486,0,0,1,17.056-13.131c28.295-4.505,98.467-12.422,132.255,12.829l5.047,33.99Z" fill="url(#g)"/><path d="M978.91,666.163a40.581,40.581,0,0,1-19.579-.023,17.682,17.682,0,0,1-13.491-17.131v-91.59h46.61V648.94A17.754,17.754,0,0,1,978.91,666.163Z" fill="url(#h)"/><path d="M1341.98,694.307l2.732-29.25a22.486,22.486,0,0,1,17.056-13.131c28.3-4.505,98.467-12.422,132.255,12.829l5.047,33.99Z" fill="url(#i)"/><path d="M1430.366,666.163a40.581,40.581,0,0,1-19.579-.023,17.682,17.682,0,0,1-13.491-17.131V547.769h46.61V648.94A17.754,17.754,0,0,1,1430.366,666.163Z" fill="url(#j)"/><path d="M941.107,579.87l501.264-16.593a24.163,24.163,0,0,0,23.087-19.835c2.746-15.692,5.167-39.185,1.557-63.538-4.1-27.693-27.925-48.266-56.042-48.935-93.512-2.225-331.567-2.158-462.771,49.742a45.819,45.819,0,0,0-27.683,31.795c-3.351,13.777-5.578,32.175-1.2,50.9A21.573,21.573,0,0,0,941.107,579.87Z" fill="url(#k)"/><path d="M932.427,553.818a2.206,2.206,0,0,1-2.191-1.983c-.08-.794-1.905-19.638,3-37.776A41.778,41.778,0,0,1,961.7,485.134c27.927-8.194,81.286-22.124,124.886-23.346a2.2,2.2,0,1,1,.123,4.408c-43.1,1.209-96.046,15.036-123.767,23.17a37.343,37.343,0,0,0-25.448,25.845c-4.688,17.33-2.889,35.995-2.869,36.181a2.205,2.205,0,0,1-1.974,2.414A2.1,2.1,0,0,1,932.427,553.818Z" fill="#fff"/><path d="M657.955,682.912c161.942-2.07,862.495-9.431,1065.991,15.121a41.433,41.433,0,0,1,35.613,32.088c12.024,54.359,36.215,180.642,33.348,305.819a36.272,36.272,0,0,1-29.7,34.59l-464.512,87.878h-165l-494.945-98.383a38.7,38.7,0,0,1-31.209-35.927c-3.216-62.977-8.245-210.744,8.786-305.857A42.827,42.827,0,0,1,657.955,682.912Z" fill="url(#l)"/><path d="M1294.877,1119.486h-6.616a1.1,1.1,0,1,1,0-2.2h6.616a1.1,1.1,0,0,1,0,2.2Zm-22.052,0h-6.616a1.1,1.1,0,1,1,0-2.2h6.616a1.1,1.1,0,0,1,0,2.2Zm-22.052,0h-6.616a1.1,1.1,0,0,1,0-2.2h6.616a1.1,1.1,0,0,1,0,2.2Zm-22.052,0H1222.1a1.1,1.1,0,0,1,0-2.2h6.616a1.1,1.1,0,1,1,0,2.2Zm-22.052,0h-6.616a1.1,1.1,0,0,1,0-2.2h6.616a1.1,1.1,0,0,1,0,2.2Zm-22.052,0H1178a1.1,1.1,0,0,1,0-2.2h6.616a1.1,1.1,0,1,1,0,2.2Zm-22.052,0h-6.616a1.1,1.1,0,0,1,0-2.2h6.616a1.1,1.1,0,1,1,0,2.2Zm-22.052,0h-2.881l-6.7-1.311a1.1,1.1,0,1,1,.431-2.162l6.488,1.29,2.666-.022a1.1,1.1,0,1,1,0,2.2Zm169.531-2.857a1.1,1.1,0,0,1-.2-2.186l6.5-1.23a1.1,1.1,0,1,1,.409,2.167l-6.5,1.229A1.119,1.119,0,0,1,1310.044,1116.629ZM1116,1115.187a1,1,0,0,1-.216-.022l-6.489-1.29a1.1,1.1,0,1,1,.431-2.162l6.488,1.29a1.1,1.1,0,0,1-.214,2.184Zm215.707-2.657a1.1,1.1,0,0,1-.2-2.186l6.5-1.23a1.1,1.1,0,1,1,.409,2.167l-6.5,1.229A1.119,1.119,0,0,1,1331.711,1112.53Zm-237.336-1.643a1.05,1.05,0,0,1-.215-.021l-6.49-1.289a1.1,1.1,0,0,1,.431-2.162l6.489,1.289a1.1,1.1,0,0,1-.215,2.183Zm259-2.457a1.1,1.1,0,0,1-.2-2.185l6.5-1.23a1.1,1.1,0,0,1,.409,2.166l-6.5,1.23A1.117,1.117,0,0,1,1353.379,1108.43Zm-280.632-1.841a1.012,1.012,0,0,1-.217-.022l-6.488-1.289a1.1,1.1,0,0,1,.43-2.163l6.489,1.29a1.1,1.1,0,0,1-.214,2.184Zm302.3-2.258a1.1,1.1,0,0,1-.2-2.186l6.5-1.229a1.1,1.1,0,1,1,.409,2.166l-6.5,1.23A1.117,1.117,0,0,1,1375.046,1104.331Zm-323.928-2.041a1.086,1.086,0,0,1-.217-.022l-6.488-1.29a1.1,1.1,0,1,1,.431-2.162l6.488,1.29a1.1,1.1,0,0,1-.214,2.184Zm345.6-2.058a1.1,1.1,0,0,1-.2-2.186l6.5-1.23a1.1,1.1,0,0,1,.409,2.167l-6.5,1.229A1.121,1.121,0,0,1,1396.714,1100.232Zm-367.225-2.242a1.067,1.067,0,0,1-.216-.021l-6.489-1.29a1.1,1.1,0,1,1,.431-2.163l6.488,1.29a1.1,1.1,0,0,1-.214,2.184Zm388.892-1.857a1.1,1.1,0,0,1-.2-2.186l6.5-1.23a1.1,1.1,0,0,1,.409,2.167l-6.5,1.229A1.121,1.121,0,0,1,1418.381,1096.133Zm-410.521-2.442a1.069,1.069,0,0,1-.216-.022l-6.489-1.29a1.1,1.1,0,0,1,.431-2.162l6.488,1.29a1.1,1.1,0,0,1-.214,2.184Zm432.19-1.658a1.1,1.1,0,0,1-.2-2.185l6.5-1.23a1.1,1.1,0,1,1,.409,2.166l-6.5,1.23A1.116,1.116,0,0,1,1440.05,1092.033Zm-453.819-2.642a1.067,1.067,0,0,1-.216-.021l-6.488-1.289a1.1,1.1,0,0,1,.429-2.162l6.489,1.289a1.1,1.1,0,0,1-.214,2.183Zm475.487-1.457a1.1,1.1,0,0,1-.2-2.186l6.5-1.229a1.1,1.1,0,1,1,.41,2.166l-6.5,1.23A1.114,1.114,0,0,1,1461.718,1087.934ZM964.6,1085.093a1.079,1.079,0,0,1-.217-.022l-6.488-1.29a1.1,1.1,0,1,1,.43-2.162l6.489,1.29a1.1,1.1,0,0,1-.214,2.184Zm518.782-1.258a1.1,1.1,0,0,1-.2-2.186l6.5-1.229a1.1,1.1,0,1,1,.409,2.166l-6.5,1.23A1.116,1.116,0,0,1,1483.385,1083.835Zm-540.411-3.042a1.083,1.083,0,0,1-.217-.021l-6.488-1.29a1.1,1.1,0,1,1,.431-2.162l6.488,1.29a1.1,1.1,0,0,1-.214,2.183Zm562.079-1.057a1.1,1.1,0,0,1-.2-2.186l6.5-1.23a1.1,1.1,0,0,1,.409,2.167l-6.5,1.23A1.208,1.208,0,0,1,1505.053,1079.736Zm-583.708-3.242a1.069,1.069,0,0,1-.216-.022l-6.489-1.29a1.1,1.1,0,0,1,.431-2.162l6.489,1.29a1.1,1.1,0,0,1-.215,2.184Zm605.375-.857a1.1,1.1,0,0,1-.2-2.186l6.5-1.23a1.1,1.1,0,1,1,.409,2.167l-6.5,1.229A1.109,1.109,0,0,1,1526.72,1075.637Zm-627-3.443a1.07,1.07,0,0,1-.217-.021l-6.489-1.29a1.1,1.1,0,0,1,.431-2.162l6.489,1.29a1.1,1.1,0,0,1-.214,2.183Zm648.671-.656a1.1,1.1,0,0,1-.2-2.186l6.5-1.23a1.1,1.1,0,0,1,.41,2.166l-6.5,1.23A1.1,1.1,0,0,1,1548.388,1071.538Zm-670.3-3.643a1.088,1.088,0,0,1-.217-.022l-6.488-1.29a1.1,1.1,0,0,1-.866-1.3,1.09,1.09,0,0,1,1.3-.866l6.489,1.29a1.1,1.1,0,0,1-.214,2.184Zm691.967-.457a1.1,1.1,0,0,1-.2-2.186l6.5-1.229a1.1,1.1,0,1,1,.409,2.166l-6.5,1.23A1.106,1.106,0,0,1,1570.055,1067.438Zm-713.6-3.842a1.067,1.067,0,0,1-.216-.021l-6.489-1.29a1.1,1.1,0,1,1,.431-2.162l6.488,1.29a1.1,1.1,0,0,1-.214,2.183Zm735.264-.257a1.1,1.1,0,0,1-.2-2.186l6.5-1.229a1.1,1.1,0,0,1,.409,2.166l-6.5,1.23A1.1,1.1,0,0,1,1591.723,1063.339ZM834.83,1059.3a1.069,1.069,0,0,1-.216-.022l-6.489-1.29a1.1,1.1,0,0,1,.431-2.162l6.488,1.29a1.1,1.1,0,0,1-.214,2.184Zm778.56-.057a1.1,1.1,0,0,1-.2-2.186l6.5-1.23a1.1,1.1,0,0,1,.409,2.167l-6.5,1.229A1.108,1.108,0,0,1,1613.39,1059.24Zm21.668-4.1a1.1,1.1,0,0,1-.2-2.186l6.5-1.23a1.1,1.1,0,0,1,.409,2.167l-6.5,1.229A1.1,1.1,0,0,1,1635.058,1055.141ZM813.2,1055a1.067,1.067,0,0,1-.216-.021l-6.488-1.29a1.1,1.1,0,1,1,.43-2.162l6.489,1.29A1.1,1.1,0,0,1,813.2,1055Zm843.524-3.956a1.1,1.1,0,0,1-.2-2.185l6.5-1.23a1.1,1.1,0,1,1,.409,2.166l-6.5,1.23A1.107,1.107,0,0,1,1656.725,1051.041Zm-865.152-.343a1.012,1.012,0,0,1-.217-.022l-6.488-1.289a1.1,1.1,0,0,1,.43-2.163l6.489,1.29a1.1,1.1,0,0,1-.214,2.184Zm886.82-3.756a1.1,1.1,0,0,1-.2-2.186l6.5-1.229a1.1,1.1,0,1,1,.409,2.166l-6.5,1.23A1.107,1.107,0,0,1,1678.393,1046.942Zm-908.449-.544a1.066,1.066,0,0,1-.216-.021l-6.489-1.29a1.1,1.1,0,1,1,.431-2.162l6.488,1.29a1.1,1.1,0,0,1-.214,2.183Zm930.116-3.555a1.1,1.1,0,0,1-.2-2.186l6.5-1.229a1.1,1.1,0,1,1,.409,2.166l-6.5,1.23A1.106,1.106,0,0,1,1700.06,1042.843Zm-951.745-.744a.988.988,0,0,1-.215-.022l-6.49-1.288a1.1,1.1,0,0,1-.866-1.3,1.091,1.091,0,0,1,1.3-.865l6.488,1.288a1.1,1.1,0,0,1-.214,2.184Zm973.413-3.355a1.1,1.1,0,0,1-.2-2.186l6.5-1.231a1.1,1.1,0,1,1,.409,2.167l-6.5,1.231A1.176,1.176,0,0,1,1721.728,1038.744Zm-995.042-.943a1.078,1.078,0,0,1-.216-.022l-6.489-1.29a1.1,1.1,0,0,1,.431-2.162l6.489,1.29a1.1,1.1,0,0,1-.215,2.184Zm1016.709-3.156a1.1,1.1,0,0,1-.2-2.186l6.5-1.231a1.1,1.1,0,1,1,.409,2.167l-6.5,1.23A1.119,1.119,0,0,1,1743.4,1034.645ZM705.058,1033.5a1.076,1.076,0,0,1-.217-.021l-6.488-1.29a1.1,1.1,0,1,1,.43-2.162l6.489,1.289a1.1,1.1,0,0,1-.214,2.184Zm-21.629-4.3a1.1,1.1,0,0,1-.217-.022l-6.488-1.29a1.1,1.1,0,1,1,.431-2.162l6.488,1.29a1.1,1.1,0,0,1-.214,2.184Zm-21.629-4.3a1.067,1.067,0,0,1-.216-.021l-6.489-1.29a1.1,1.1,0,1,1,.431-2.162l6.488,1.29a1.1,1.1,0,0,1-.214,2.183Zm1091.3-4.384h0a1.1,1.1,0,0,1-1.1-1.107l.009-3.995-.005-2.614a1.1,1.1,0,0,1,1.1-1.106h0a1.1,1.1,0,0,1,1.1,1.1l0,2.62-.009,4A1.1,1.1,0,0,1,1753.1,1020.518Zm-1106.011-5.89a1.1,1.1,0,0,1-1.1-1.05q-.152-3.184-.3-6.615a1.1,1.1,0,0,1,2.2-.1q.152,3.42.3,6.6a1.1,1.1,0,0,1-1.049,1.155Zm1105.842-16.162a1.1,1.1,0,0,1-1.1-1.081q-.064-3.3-.151-6.6a1.1,1.1,0,0,1,1.074-1.131,1.052,1.052,0,0,1,1.131,1.073q.086,3.3.151,6.615a1.1,1.1,0,0,1-1.081,1.124ZM646.144,992.59a1.1,1.1,0,0,1-1.1-1.06l-.249-6.615a1.1,1.1,0,0,1,1.062-1.142A1.12,1.12,0,0,1,647,984.835l.249,6.609a1.1,1.1,0,0,1-1.059,1.145Zm1106.119-16.15a1.1,1.1,0,0,1-1.1-1.058q-.135-3.3-.293-6.584a1.1,1.1,0,0,1,1.049-1.154,1.089,1.089,0,0,1,1.154,1.048q.157,3.3.293,6.6a1.1,1.1,0,0,1-1.056,1.147ZM645.386,970.546a1.1,1.1,0,0,1-1.1-1.07l-.191-6.616a1.1,1.1,0,0,1,2.205-.063l.192,6.612a1.106,1.106,0,0,1-1.07,1.137Zm1105.745-16.117a1.1,1.1,0,0,1-1.1-1.035q-.2-3.307-.425-6.6a1.1,1.1,0,0,1,2.2-.149q.22,3.3.425,6.61a1.1,1.1,0,0,1-1.032,1.168ZM644.816,948.5a1.1,1.1,0,0,1-1.1-1.079l-.132-6.62a1.1,1.1,0,0,1,2.205-.041l.132,6.614a1.1,1.1,0,0,1-1.079,1.126Zm1104.752-16.074a1.1,1.1,0,0,1-1.1-1.014q-.267-3.3-.547-6.59a1.1,1.1,0,1,1,2.2-.187q.281,3.288.549,6.6a1.105,1.105,0,0,1-1.011,1.188ZM644.45,926.445a1.1,1.1,0,0,1-1.1-1.09l-.07-6.62a1.1,1.1,0,0,1,1.093-1.112h.009a1.1,1.1,0,0,1,1.1,1.093l.07,6.613a1.1,1.1,0,0,1-1.09,1.116ZM1747.608,910.45a1.1,1.1,0,0,1-1.1-.995q-.324-3.3-.662-6.578a1.1,1.1,0,0,1,2.2-.226q.337,3.282.661,6.588a1.1,1.1,0,0,1-.99,1.2A.982.982,0,0,1,1747.608,910.45ZM644.3,904.389a1.1,1.1,0,0,1-1.1-1.1l0-3.788,0-2.825a1.105,1.105,0,0,1,1.1-1.1h0a1.1,1.1,0,0,1,1.1,1.1l0,2.83,0,3.784a1.1,1.1,0,0,1-1.1,1.1Zm1100.982-15.877a1.1,1.1,0,0,1-1.094-.977q-.379-3.3-.77-6.567a1.1,1.1,0,0,1,.963-1.226,1.087,1.087,0,0,1,1.227.963q.39,3.271.77,6.578a1.1,1.1,0,0,1-.969,1.221A.925.925,0,0,1,1745.278,888.512Zm-1100.9-6.168h-.011a1.1,1.1,0,0,1-1.092-1.113q.031-3.3.074-6.61a1.1,1.1,0,0,1,1.1-1.089h.014a1.1,1.1,0,0,1,1.089,1.117q-.042,3.309-.073,6.6A1.1,1.1,0,0,1,644.377,882.344Zm1098.215-15.73a1.1,1.1,0,0,1-1.092-.959q-.43-3.3-.871-6.556a1.1,1.1,0,0,1,2.186-.295q.44,3.258.871,6.564a1.1,1.1,0,0,1-.95,1.236A1,1,0,0,1,1742.592,866.614ZM644.717,860.3h-.024a1.1,1.1,0,0,1-1.078-1.126q.072-3.308.157-6.617a1.067,1.067,0,0,1,1.131-1.074,1.1,1.1,0,0,1,1.074,1.13q-.084,3.306-.157,6.608A1.1,1.1,0,0,1,644.717,860.3Zm1094.856-15.542a1.1,1.1,0,0,1-1.09-.943q-.482-3.3-.969-6.542a1.1,1.1,0,0,1,2.182-.328q.487,3.246.969,6.551a1.1,1.1,0,0,1-.932,1.25A.961.961,0,0,1,1739.573,844.761ZM645.355,838.255h-.041a1.1,1.1,0,0,1-1.062-1.141q.12-3.313.255-6.623a1.133,1.133,0,0,1,1.147-1.056,1.1,1.1,0,0,1,1.056,1.146q-.135,3.3-.255,6.613A1.1,1.1,0,0,1,645.355,838.255Zm1090.877-15.3a1.1,1.1,0,0,1-1.088-.927q-.531-3.3-1.064-6.529a1.1,1.1,0,0,1,2.175-.359q.536,3.23,1.066,6.537a1.1,1.1,0,0,1-.913,1.264A1.172,1.172,0,0,1,1736.232,822.954Zm-1089.9-6.749h-.06a1.1,1.1,0,0,1-1.043-1.16q.177-3.321.37-6.625a1.1,1.1,0,0,1,2.2.129q-.194,3.3-.368,6.612A1.1,1.1,0,0,1,646.333,816.205Zm1086.24-15.01a1.1,1.1,0,0,1-1.086-.912q-.578-3.309-1.156-6.513a1.1,1.1,0,1,1,2.171-.389q.576,3.207,1.158,6.52a1.1,1.1,0,0,1-.9,1.278A1.274,1.274,0,0,1,1732.573,801.2ZM647.716,794.179c-.027,0-.054,0-.082,0a1.1,1.1,0,0,1-1.018-1.18q.241-3.318.5-6.606a1.1,1.1,0,1,1,2.2.177q-.262,3.281-.5,6.591A1.1,1.1,0,0,1,647.716,794.179ZM1728.6,779.492a1.1,1.1,0,0,1-1.082-.9q-.633-3.324-1.251-6.5a1.1,1.1,0,1,1,2.164-.422q.618,3.177,1.253,6.5a1.1,1.1,0,0,1-.876,1.29A1.145,1.145,0,0,1,1728.6,779.492ZM649.585,772.2a1,1,0,0,1-.108-.006,1.1,1.1,0,0,1-.99-1.2q.324-3.32.675-6.593a1.1,1.1,0,1,1,2.192.234q-.347,3.266-.673,6.574A1.1,1.1,0,0,1,649.585,772.2Zm1074.729-14.354a1.1,1.1,0,0,1-1.079-.88q-.695-3.367-1.352-6.477a1.1,1.1,0,1,1,2.158-.456q.657,3.113,1.354,6.487a1.1,1.1,0,0,1-.857,1.3A1.142,1.142,0,0,1,1724.314,757.847ZM652.07,750.286a1,1,0,0,1-.143-.01,1.1,1.1,0,0,1-.951-1.235q.432-3.318.893-6.571a1.1,1.1,0,1,1,2.184.31q-.461,3.241-.891,6.545A1.1,1.1,0,0,1,652.07,750.286Zm1065.173-11.644a.934.934,0,0,1-.129-.008q-3.189-.375-6.565-.742a1.1,1.1,0,1,1,.239-2.192q3.387.367,6.582.744a1.1,1.1,0,0,1-.127,2.2Zm-21.933-2.285c-.035,0-.068,0-.1,0q-3.225-.3-6.584-.593a1.1,1.1,0,1,1,.192-2.2q3.366.294,6.6.592a1.1,1.1,0,0,1-.1,2.2Zm-21.976-1.85-.085,0q-3.246-.249-6.594-.493a1.1,1.1,0,0,1-1.02-1.179,1.114,1.114,0,0,1,1.18-1.02q3.354.243,6.6.493a1.1,1.1,0,0,1-.083,2.2Zm-22-1.555-.073,0-6.6-.422a1.1,1.1,0,0,1,.138-2.2l6.606.422a1.1,1.1,0,0,1-.071,2.2Zm-22.013-1.339c-.022,0-.042,0-.064,0l-6.6-.367a1.1,1.1,0,1,1,.12-2.2l6.608.368a1.1,1.1,0,0,1-.061,2.2Zm-22.024-1.17h-.056l-6.606-.323a1.1,1.1,0,1,1,.106-2.2l6.61.323a1.1,1.1,0,0,1-.054,2.2Zm-22.028-1.035h-.05l-6.608-.286a1.1,1.1,0,0,1-1.054-1.149,1.124,1.124,0,0,1,1.149-1.054l6.61.286a1.1,1.1,0,0,1-.047,2.2Zm-22.033-.919h-.044l-6.61-.256a1.1,1.1,0,1,1,.084-2.2l6.612.256a1.1,1.1,0,0,1-.042,2.2Zm-907.876-.013a1.1,1.1,0,0,1-1.087-1.291l.367-2.081a3.9,3.9,0,0,1,3.811-3.273l.573-.007a1.025,1.025,0,0,1,1.121,1.084,1.1,1.1,0,0,1-1.084,1.121l-.575.008a1.7,1.7,0,0,0-1.676,1.455l-.365,2.07A1.1,1.1,0,0,1,655.36,728.476Zm885.837-.81h-.04l-6.61-.23a1.1,1.1,0,0,1,.075-2.2l6.613.23a1.1,1.1,0,0,1-.038,2.2Zm-22.04-.739h-.037l-6.611-.208a1.1,1.1,0,0,1-1.068-1.136,1.117,1.117,0,0,1,1.137-1.068l6.614.209a1.1,1.1,0,0,1-.035,2.2Zm-22.044-.669h-.034l-6.611-.187a1.1,1.1,0,0,1-1.072-1.133,1.081,1.081,0,0,1,1.132-1.073l6.616.188a1.1,1.1,0,0,1-.031,2.205Zm-22.046-.6h-.029l-6.612-.17a1.1,1.1,0,0,1-1.075-1.131,1.067,1.067,0,0,1,1.131-1.074l6.614.17a1.1,1.1,0,0,1-.029,2.205Zm-22.047-.545h-.026l-6.613-.153a1.1,1.1,0,0,1-1.077-1.127,1.058,1.058,0,0,1,1.127-1.078l6.614.153a1.1,1.1,0,0,1-.025,2.205Zm-22.047-.493h-.024l-6.613-.138a1.1,1.1,0,0,1-1.08-1.125,1.141,1.141,0,0,1,1.125-1.08l6.616.138a1.1,1.1,0,0,1-.024,2.2Zm-22.049-.445h-.021l-6.614-.125a1.1,1.1,0,0,1-1.082-1.123,1.049,1.049,0,0,1,1.123-1.082l6.616.125a1.1,1.1,0,0,1-.022,2.2Zm-734.436-.337a1.1,1.1,0,0,1-.012-2.205l6.618-.08a1.157,1.157,0,0,1,1.116,1.09,1.1,1.1,0,0,1-1.09,1.116l-6.618.079Zm712.388-.063h-.02l-6.613-.112a1.1,1.1,0,0,1,.018-2.205h.018l6.616.112a1.1,1.1,0,0,1-.019,2.205Zm-690.323-.2a1.1,1.1,0,0,1-.012-2.205l6.618-.076a1.061,1.061,0,0,1,1.116,1.09,1.1,1.1,0,0,1-1.09,1.115l-6.619.076Zm668.274-.165h-.017l-6.615-.1a1.1,1.1,0,0,1-1.086-1.119,1.046,1.046,0,0,1,1.119-1.086l6.616.1a1.1,1.1,0,0,1-.017,2.205Zm-646.211-.077a1.1,1.1,0,0,1-.012-2.206l6.618-.07a1.08,1.08,0,0,1,1.113,1.092,1.1,1.1,0,0,1-1.092,1.114l-6.615.07Zm22.062-.23a1.1,1.1,0,0,1-.011-2.2l6.617-.066a1.1,1.1,0,0,1,.021,2.206l-6.616.065Zm602.1-.016h-.015l-6.616-.09a1.1,1.1,0,0,1,.015-2.206h.015l6.616.091a1.1,1.1,0,0,1-.015,2.205Zm-580.036-.2a1.1,1.1,0,0,1-.01-2.205l6.618-.062a1.1,1.1,0,1,1,.02,2.206l-6.617.061Zm557.986-.089h-.014l-6.615-.081a1.1,1.1,0,0,1-1.089-1.116,1.059,1.059,0,0,1,1.115-1.089l6.617.08a1.1,1.1,0,0,1-.014,2.206ZM784.8,722.69a1.1,1.1,0,0,1-.01-2.206l6.618-.058h.01a1.1,1.1,0,0,1,.009,2.2l-6.617.059Zm513.873-.148h-.012l-6.615-.071a1.1,1.1,0,1,1,.023-2.205l6.616.071a1.1,1.1,0,0,1-.012,2.205Zm-491.815-.04a1.1,1.1,0,0,1-.009-2.205l6.617-.054h.009a1.1,1.1,0,0,1,.009,2.205l-6.616.054Zm22.06-.173a1.1,1.1,0,0,1-.009-2.2l6.617-.05h.008a1.1,1.1,0,0,1,.009,2.205l-6.617.05Zm447.7-.013h-.01l-6.615-.062a1.1,1.1,0,0,1,.01-2.206h.011l6.615.063a1.1,1.1,0,0,1-.011,2.2Zm-425.645-.145a1.1,1.1,0,0,1-.007-2.206l6.616-.045a1.078,1.078,0,0,1,1.11,1.1,1.1,1.1,0,0,1-1.095,1.11l-6.616.046Zm403.592-.053h-.009l-6.615-.054a1.1,1.1,0,0,1,.009-2.205h.008l6.616.054a1.1,1.1,0,0,1-.009,2.2Zm-381.533-.094a1.1,1.1,0,0,1-.008-2.205l6.618-.041h.006a1.1,1.1,0,0,1,.007,2.2l-6.616.041Zm359.483-.077h-.008l-6.616-.047a1.1,1.1,0,0,1-1.095-1.11,1.075,1.075,0,0,1,1.111-1.095l6.615.046a1.1,1.1,0,0,1-.007,2.206Zm-337.426-.054a1.1,1.1,0,0,1-.007-2.205l6.618-.038h.007a1.1,1.1,0,0,1,.006,2.2l-6.618.038Zm315.374-.093h-.007l-6.615-.039a1.1,1.1,0,0,1-1.1-1.109,1.128,1.128,0,0,1,1.11-1.1l6.615.039a1.1,1.1,0,0,1-.006,2.205Zm-293.316-.025a1.1,1.1,0,0,1-.005-2.205l6.618-.032h.005a1.1,1.1,0,0,1,.005,2.2l-6.617.032Zm271.263-.1h-.006l-6.615-.033a1.1,1.1,0,0,1,.005-2.205h.005l6.616.032a1.1,1.1,0,0,1-.005,2.206Zm-249.2-.007a1.1,1.1,0,0,1-.006-2.205l6.618-.027h0a1.1,1.1,0,0,1,.006,2.205l-6.616.027Zm22.058-.086a1.1,1.1,0,0,1,0-2.205l6.616-.023h0a1.1,1.1,0,0,1,.005,2.205l-6.617.023Zm205.094-.007h0l-6.617-.025a1.1,1.1,0,0,1,0-2.206h0l6.616.026a1.1,1.1,0,0,1,0,2.2Zm-183.037-.066a1.1,1.1,0,0,1,0-2.205l6.619-.019h0a1.1,1.1,0,0,1,0,2.205l-6.617.019Zm160.985-.011h0l-6.616-.019a1.1,1.1,0,0,1,0-2.206h0l6.616.02a1.1,1.1,0,0,1,0,2.205Zm-138.927-.046a1.1,1.1,0,0,1,0-2.206l6.616-.012h0a1.1,1.1,0,0,1,0,2.205l-6.617.013Zm116.874-.011h0l-6.616-.013a1.1,1.1,0,0,1,0-2.205h0l6.617.013a1.1,1.1,0,0,1,0,2.205Zm-94.816-.028a1.1,1.1,0,0,1,0-2.205l6.617-.009a1.1,1.1,0,0,1,0,2.205l-6.617.009Zm72.764-.009h0l-6.615-.007a1.1,1.1,0,0,1,0-2.205h0l6.617.007a1.1,1.1,0,0,1,0,2.205Zm-50.707-.014a1.1,1.1,0,0,1,0-2.2l6.6,0a1.1,1.1,0,1,1,0,2.205Zm28.654,0h0l-6.615,0a1.1,1.1,0,0,1,0-2.205l6.616,0a1.1,1.1,0,1,1,0,2.205Z" fill="#fff"/><path d="M1283.16,1227.683H1138.6a37.346,37.346,0,0,1-37.144-32.815l-16.7-139.1a37.3,37.3,0,0,1,37.144-41.652h173.659a37.3,37.3,0,0,1,37.262,40.525l-12.4,139.1A37.34,37.34,0,0,1,1283.16,1227.683Z" fill="url(#m)"/></g><g transform="translate(814 1831)"><path d="M1229.221,1172.354s-13.59-35.775-29.464-32.5-33.239,15.472-33.239,15.472l-25.5,34.488s71.586,28.2,96.764,12.039c0,0,73.12,12.634,165.457-2.517-13.367-28.22-21.333-56.473-26.011-78.4C1330.458,1147.406,1280.086,1167.179,1229.221,1172.354Z" fill="url(#n)"/><path d="M1616.547,912.868s-104.69,131.859-239.32,208.066c4.678,21.93,12.644,50.183,26.011,78.4,69.84-11.46,150.67-38.809,219.195-99.583Z" fill="url(#o)"/><path d="M831.907,930.3l6.5,174.559a479.479,479.479,0,0,0,52.773,14.985c10.469-33.7,33.52-75.07,52.4-105.827C874.224,989.506,831.907,930.3,831.907,930.3Z" fill="url(#p)"/><path d="M1178.151,927.335c-95.133,102.713-172.133,108.759-234.576,86.686-18.875,30.757-41.926,72.124-52.4,105.827,254.049,56.01,313.874-177.542,313.874-177.542Z" fill="url(#q)"/><path d="M1197.444,916.425s10.958-11.768,31.24-8.07,38.335,10.745,50.972,0,17.079,3.676,17.079,3.676L1258.9,940.8Z" fill="url(#r)"/><path d="M1174.811,936.542s7.509-31.4,30.137-27.093,74,32.24,87.238,27.093,30.168-17.464,38.854-13.11l-15.3,19.02s39.329-22.688,46.1-8.748L1296.4,970.53S1200.656,960.945,1174.811,936.542Z" fill="url(#s)"/><path d="M502.579,1457.556s-32.46-415.362,204.175-559.462c0,0,66.157-43.676,148.593,40.907s55.889,172.456-13.292,254.81S702.411,1379.394,719.18,1461.735c-19.636,9.482-57.7,20.508-107.816,20.6A249.687,249.687,0,0,1,502.579,1457.556Z" fill="url(#t)"/><path d="M826.015,771.865c-.063,5.526-78.861,117.45-78.861,117.45s14.144,27.856,81.666,50.472L887.1,819.95Z" fill="url(#u)"/><path d="M795.026,1156.138s149.5,125.208,310.937,70.574a38.441,38.441,0,0,1,30.308,2.284l46.412,24.512a41.429,41.429,0,0,0,54.908-15.375c6.448-10.785,11.951-23.1,13.045-34.906l-90.813-36.765,6.695-11.135s-44.34-3.757-55.945,28.021c0,0-84.454,35.128-226.88-121.53C883.693,1061.818,819.062,1116.774,795.026,1156.138Z" fill="url(#v)"/><path d="M786.98,1155.592a3.3,3.3,0,0,1-1.85-.568c-63.132-42.656-92.831-111.508-93.124-112.2a3.308,3.308,0,0,1,6.09-2.583c.287.673,29.275,67.772,90.738,109.3a3.308,3.308,0,0,1-1.854,6.049Z" fill="url(#w)"/><path d="M880.742,1060.444a3.306,3.306,0,0,1-2.783-1.516c-.189-.295-19.433-30.254-56.075-95.863-11.159-19.981-25.8-32.629-43.531-37.593-29.4-8.23-57.754,7.548-58.039,7.708a3.307,3.307,0,0,1-3.269-5.75c1.251-.71,28.419-17.04,60.5-8.1,19.513,5.445,38.051,18.906,50.113,40.5,36.521,65.4,55.671,95.213,55.86,95.507a3.308,3.308,0,0,1-2.778,5.1Z" fill="url(#x)"/><path d="M888.055,707.732s28.038,64.407,29.921,98.213,9.167,55.741-29.921,62.549-72.016-12.665-89.856-46.339c0,0-27.95-51.888-21.68-73.138S888.055,707.732,888.055,707.732Z" fill="url(#y)"/><path d="M811.556,797.943l2.226-.98a5.366,5.366,0,0,0,2.621-7.37c-5.512-10.65-16.257-35.055-2.376-40.748,17.89-7.337,88.753-21.788,104.042-46.933,14.7-24.166,1.675-55.361-17.892-64.233a2.694,2.694,0,0,0-3.525,1.148l-1.63,3.086a2.656,2.656,0,0,1-4.9-.5h0a2.643,2.643,0,0,0-4.783-.685c-4.7,7.522-17.388,19.718-51.318,25.98-48.223,8.9-80.1,28.415-80.9,61.736a2.659,2.659,0,0,1-4.11,2.192c-3.561-2.169-9.259-3.188-16.874,3.215-13.243,11.136-7.823,40.022,21.208,63.783a2.639,2.639,0,0,1-.125,4.254c-5.264,3.426-13.109,11.579,7.22,22.446,21.028,11.241,36.73,10.319,42.777,9.32a2.644,2.644,0,0,0,2.145-3.193l-6.453-29.287a2.656,2.656,0,0,1,2.594-3.228Z" fill="url(#z)"/><path d="M812.771,804.123s-10.7-41.142-29.143-29.606,9.572,46.1,24.4,47.638Z" fill="url(#aa)"/><path d="M1136.271,1229s37.991,37.161,45.323,31.751c2.608-1.925,9.194-8.916,15.576-16.7a16.31,16.31,0,0,0,1.109-19.217L1189.318,1211a25.9,25.9,0,0,0-38.662-5.632C1144.683,1210.57,1139.262,1218.1,1136.271,1229Z" fill="url(#n)"/><path d="M1739.344,1470.093s-4.662-138.266-101.736-310.673c-30.365-53.929-41.164-116.7-31.7-177.861l10.634-68.691s133.225-45.081,280.9-1.9c0,0,204.763,126.857,67.914,559.124a270,270,0,0,1-226.018,0Z" fill="url(#ac)"/><path d="M1639.226,825.2l34.545,82.992a16.538,16.538,0,0,0,12.494,9.937c19.918,3.416,68.089,8.751,99.725-12.05a8.04,8.04,0,0,0,2.15-11.3l-63.822-91.629Z" fill="url(#ad)"/><path d="M1724.427,1215.225a7.67,7.67,0,0,0-4.845,10.963l99.94,191.634a7.671,7.671,0,0,0,8.929,3.822l326.911-94.387a7.671,7.671,0,0,0,5.242-9.5l-56.313-194.945a7.671,7.671,0,0,0-9.325-5.289Z" fill="#bdd0fb"/><path d="M1745.516,1192.706a8.03,8.03,0,0,0-5.674,10.585l80,217.313a8.029,8.029,0,0,0,9.762,4.94l325.926-94.1a8.029,8.029,0,0,0,5.621-9.409l-45.168-209.153a8.03,8.03,0,0,0-9.709-6.116Z" fill="#bdd0fb"/><path d="M1773.9,1170.771a9.924,9.924,0,0,0-8.176,12.05l54.336,234.6a9.924,9.924,0,0,0,12.42,7.3l320.988-92.676a9.924,9.924,0,0,0,6.857-12.012l-49.364-191.495a9.923,9.923,0,0,0-11.1-7.334Z" fill="url(#ae)"/><path d="M2033.738,1260.234c24.913-188.193-120.115-332.9-120.115-332.9l-86.287,100.594c65.51,81.656,96.652,156.481,110.877,215.25C1957.078,1237.685,2002.5,1229.005,2033.738,1260.234Z" fill="url(#af)"/><path d="M1938.211,1245.384a2.2,2.2,0,0,1-2.14-1.686c-17.646-72.9-54.809-145.027-110.456-214.389a2.206,2.206,0,0,1,3.442-2.761c56.053,69.872,93.5,142.581,111.3,216.112a2.2,2.2,0,0,1-2.145,2.724Z" fill="url(#ag)"/><path d="M1938.213,1243.179c13.221,54.622,11.831,95.376,9.82,114.834a15.148,15.148,0,0,1-14.011,13.577c-8.357.586-19.73,1.353-29.894,1.939-11.172.643-23.572-6.418-31.864-12.319a4.987,4.987,0,0,0-7.345,6.305c6.188,12.11,21.9,22.886,32.722,29.226a5.167,5.167,0,0,1-1.191,9.438l-46.3,13.124c76.074,71.668,126.3-8.521,126.3-8.521,33.581-51.888,50.943-102.628,57.286-150.548C2002.5,1229.005,1957.078,1237.685,1938.213,1243.179Z" fill="url(#ah)"/><path d="M1674.951,698.222c-1.45,1.366-61.23,118.758-61.23,118.758l67.755,32.709,73.189-102.847S1699.24,675.358,1674.951,698.222Z" fill="url(#ai)"/><path d="M1723.874,759.182l-33.793,56.331a10.5,10.5,0,0,1-1.853,2.307c-4.022,3.745-17.786,14.635-28.426-.193-9.069-12.637-17.578-24.126-26.7-28.865a10.8,10.8,0,0,0-14.579,4.8c-5.568,11.035-16.353,33.529-23.128,54.86a10.756,10.756,0,0,0,6.261,13.192c13.719,5.558,40.835,15.611,64.9,18.932a10.808,10.808,0,0,0,10.219-4.345c10.352-14.182,39.529-53.814,49.487-63.734,9.252-9.217,26.327-5.742,34.021-3.531a10.864,10.864,0,0,0,8.633-1.133c7.807-4.7,21.429-16.41,8.967-36.234a10.818,10.818,0,0,1,3.345-14.693c8.716-5.734,18.173-16.495,9.163-33.922-9.121-17.642-25.41-19.226-36.5-17.869a11.223,11.223,0,0,1-11.775-6.547,7.147,7.147,0,0,0-5.577-4.393,10.491,10.491,0,0,1-8.49-12.319c1.957-9.983.484-22.952-15.456-31.716-29.235-16.073-54.842,10.117-61.354,32.225s26.175,37.733,46.736,40.341c15.1,1.916,23.384,18.4,26.716,27.014A10.826,10.826,0,0,1,1723.874,759.182Z" fill="url(#aj)"/><path d="M1713.57,833.154s13-38.037,29.64-36.641,29.736,17.974,9.114,36.608C1726.672,856.3,1713.57,833.154,1713.57,833.154Z" fill="url(#ak)"/></g><g transform="translate(814 1831)"><path d="M2035.055,460.933H1672.277a14.037,14.037,0,0,1-14.037-14.038h0a14.037,14.037,0,0,1,14.037-14.037h362.778a14.038,14.038,0,0,1,14.037,14.037h0A14.038,14.038,0,0,1,2035.055,460.933Z" fill="#fff" opacity="0.2"/><path d="M2078.644,515.921H1715.867a14.038,14.038,0,0,1-14.038-14.038h0a14.038,14.038,0,0,1,14.038-14.037h362.777a14.038,14.038,0,0,1,14.038,14.037h0A14.038,14.038,0,0,1,2078.644,515.921Z" fill="#fff" opacity="0.53"/><path d="M1975.482,625.9H1715.867a14.038,14.038,0,0,1-14.038-14.038h0a14.038,14.038,0,0,1,14.038-14.037h259.615a14.038,14.038,0,0,1,14.038,14.037h0A14.038,14.038,0,0,1,1975.482,625.9Z" fill="#fff" opacity="0.53"/><path d="M2119.328,570.909H1756.55a14.037,14.037,0,0,1-14.037-14.038h0a14.037,14.037,0,0,1,14.037-14.037h362.778a14.038,14.038,0,0,1,14.037,14.037h0A14.038,14.038,0,0,1,2119.328,570.909Z" fill="#fff" opacity="0.2"/></g><g transform="translate(814 1831)"><path d="M630.712,1204.65H267.934a14.038,14.038,0,0,1-14.037-14.038h0a14.038,14.038,0,0,1,14.037-14.038H630.712a14.038,14.038,0,0,1,14.038,14.038h0A14.038,14.038,0,0,1,630.712,1204.65Z" fill="#fff" opacity="0.2"/><path d="M674.3,1259.638H311.524a14.038,14.038,0,0,1-14.038-14.038h0a14.038,14.038,0,0,1,14.038-14.038H674.3a14.038,14.038,0,0,1,14.037,14.038h0A14.038,14.038,0,0,1,674.3,1259.638Z" fill="#fff" opacity="0.53"/><path d="M571.14,1369.614H311.524a14.038,14.038,0,0,1-14.038-14.038h0a14.038,14.038,0,0,1,14.038-14.038H571.14a14.038,14.038,0,0,1,14.037,14.038h0A14.038,14.038,0,0,1,571.14,1369.614Z" fill="#fff" opacity="0.53"/><path d="M714.985,1314.626H352.207a14.038,14.038,0,0,1-14.037-14.038h0a14.038,14.038,0,0,1,14.037-14.038H714.985a14.038,14.038,0,0,1,14.038,14.038h0A14.038,14.038,0,0,1,714.985,1314.626Z" fill="#fff" opacity="0.2"/></g><g transform="translate(814 1831)"><g opacity="0.64"><path d="M1118.93,453.907a3.211,3.211,0,0,1-2.822-1.673c-1.382-2.525-2.731-5.125-4.009-7.729a3.213,3.213,0,0,1,5.768-2.833c1.237,2.519,2.542,5.035,3.879,7.479a3.215,3.215,0,0,1-2.816,4.756Z" fill="#fff"/><path d="M1104.771,421.227a3.215,3.215,0,0,1-3.052-2.213c-1.751-5.334-3.3-10.822-4.592-16.31a3.214,3.214,0,0,1,6.255-1.477c1.254,5.31,2.749,10.621,4.444,15.783a3.216,3.216,0,0,1-3.055,4.217Zm-8.928-42.764a3.213,3.213,0,0,1-3.194-2.908c-.537-5.61-.839-11.3-.9-16.918a3.214,3.214,0,0,1,3.179-3.248h.036a3.213,3.213,0,0,1,3.212,3.179c.058,5.435.35,10.945.869,16.376a3.211,3.211,0,0,1-2.893,3.5A2.931,2.931,0,0,1,1095.843,378.463Zm.719-43.669a3.47,3.47,0,0,1-.417-.026,3.215,3.215,0,0,1-2.775-3.6c.722-5.575,1.695-11.193,2.893-16.7a3.213,3.213,0,0,1,6.28,1.366c-1.159,5.326-2.1,10.76-2.8,16.154A3.214,3.214,0,0,1,1096.562,334.794Zm10.433-42.422a3.217,3.217,0,0,1-3.015-4.328c1.949-5.277,4.149-10.536,6.54-15.63a3.214,3.214,0,0,1,5.819,2.732c-2.314,4.928-4.444,10.017-6.329,15.124A3.215,3.215,0,0,1,1106.995,292.372Zm19.6-39.036a3.213,3.213,0,0,1-2.69-4.966c3.067-4.715,6.375-9.357,9.832-13.8a3.213,3.213,0,1,1,5.071,3.947c-3.346,4.3-6.547,8.79-9.516,13.353A3.21,3.21,0,0,1,1126.595,253.336ZM1154.33,219.6a3.214,3.214,0,0,1-2.241-5.517c4.032-3.923,8.283-7.72,12.634-11.286a3.214,3.214,0,1,1,4.074,4.971c-4.212,3.451-8.325,7.126-12.227,10.922A3.2,3.2,0,0,1,1154.33,219.6Zm34.5-26.758a3.214,3.214,0,0,1-1.677-5.958c4.807-2.931,9.8-5.687,14.827-8.19a3.213,3.213,0,1,1,2.864,5.753c-4.868,2.423-9.7,5.089-14.344,7.925A3.206,3.206,0,0,1,1188.829,192.839Zm39.6-18.4a3.214,3.214,0,0,1-1.018-6.262c5.326-1.78,10.8-3.353,16.28-4.677a3.213,3.213,0,0,1,1.51,6.247c-5.3,1.281-10.6,2.8-15.755,4.526A3.194,3.194,0,0,1,1228.427,174.437Zm102.826-5.923a3.143,3.143,0,0,1-.67-.072c-5.326-1.128-10.765-2.04-16.168-2.709a3.214,3.214,0,1,1,.789-6.379c5.585.692,11.207,1.634,16.712,2.8a3.214,3.214,0,0,1-.663,6.358Zm-60.129-3.23a3.213,3.213,0,0,1-.319-6.41c5.612-.568,11.3-.9,16.914-.99a3.214,3.214,0,0,1,.1,6.427c-5.43.085-10.938.407-16.37.957A3.27,3.27,0,0,1,1271.124,165.284Z" fill="#fff"/><path d="M1365.384,179.109a3.194,3.194,0,0,1-1.229-.246c-2.583-1.069-5.226-2.1-7.851-3.051a3.213,3.213,0,1,1,2.2-6.04c2.714.986,5.444,2.048,8.114,3.154a3.214,3.214,0,0,1-1.23,6.183Z" fill="#fff"/></g><g opacity="0.64"><path d="M1472.994,288.841a3.216,3.216,0,0,1-3-2.049c-1.019-2.617-2.1-5.236-3.228-7.781a3.214,3.214,0,0,1,5.881-2.594c1.161,2.632,2.284,5.338,3.337,8.044a3.215,3.215,0,0,1-2.994,4.38Z" fill="#fff"/><path d="M1290.418,555.7q-3.612,0-7.2-.13a3.214,3.214,0,0,1-3.094-3.329,3.259,3.259,0,0,1,3.329-3.094c5.339.2,10.769.165,16.132-.092a3.214,3.214,0,1,1,.3,6.421C1296.75,555.624,1293.564,555.7,1290.418,555.7Zm-33.574-2.917a3.328,3.328,0,0,1-.559-.048c-5.448-.955-10.928-2.156-16.288-3.57a3.213,3.213,0,1,1,1.64-6.214c5.186,1.368,10.487,2.529,15.757,3.453a3.214,3.214,0,0,1-.55,6.379Zm69.353-.359a3.214,3.214,0,0,1-.577-6.374c5.281-.972,10.573-2.175,15.728-3.576a3.214,3.214,0,1,1,1.684,6.2c-5.325,1.447-10.793,2.69-16.249,3.693A3.257,3.257,0,0,1,1326.2,552.424Zm41.158-12.352a3.214,3.214,0,0,1-1.258-6.171c4.929-2.1,9.828-4.426,14.562-6.931a3.214,3.214,0,0,1,3,5.683c-4.894,2.586-9.958,5-15.052,7.162A3.2,3.2,0,0,1,1367.355,540.072ZM1404.786,519a3.213,3.213,0,0,1-1.88-5.822c4.353-3.13,8.622-6.48,12.689-9.956a3.213,3.213,0,1,1,4.175,4.885c-4.2,3.593-8.614,7.054-13.111,10.289A3.2,3.2,0,0,1,1404.786,519Zm31.916-28.758a3.214,3.214,0,0,1-2.4-5.351c3.566-4,7.005-8.2,10.22-12.482a3.214,3.214,0,0,1,5.139,3.862c-3.323,4.419-6.875,8.759-10.559,12.895A3.205,3.205,0,0,1,1436.7,490.243Zm24.912-35.017a3.214,3.214,0,0,1-2.8-4.78c2.614-4.685,5.058-9.53,7.265-14.4a3.213,3.213,0,0,1,5.854,2.651c-2.28,5.036-4.806,10.043-7.506,14.883A3.213,3.213,0,0,1,1461.614,455.226Zm16.706-39.606a3.216,3.216,0,0,1-3.082-4.13c1.527-5.139,2.853-10.4,3.938-15.642a3.213,3.213,0,1,1,6.293,1.3c-1.122,5.417-2.491,10.857-4.07,16.169A3.216,3.216,0,0,1,1478.32,415.62Zm7.613-42.314c-.072,0-.145,0-.219-.008a3.211,3.211,0,0,1-2.99-3.421c.285-4.256.431-8.58.431-12.852q0-1.637-.028-3.271a3.214,3.214,0,0,1,6.427-.109q.029,1.693.028,3.383c0,4.412-.15,8.881-.446,13.28A3.213,3.213,0,0,1,1485.933,373.306Zm-1.852-42.939a3.214,3.214,0,0,1-3.172-2.728c-.811-5.3-1.853-10.63-3.1-15.833a3.214,3.214,0,1,1,6.252-1.5c1.285,5.376,2.362,10.88,3.2,16.358a3.215,3.215,0,0,1-3.182,3.7Z" fill="#fff"/><path d="M1215.467,540.685a3.2,3.2,0,0,1-1.237-.249c-2.671-1.115-5.348-2.3-7.958-3.528a3.213,3.213,0,1,1,2.734-5.816c2.524,1.186,5.115,2.335,7.7,3.413a3.214,3.214,0,0,1-1.238,6.18Z" fill="#fff"/></g><path d="M1210.237,483.784a2.346,2.346,0,0,0,2.723.142l24.106-15.363a124.541,124.541,0,0,0,38.783,11.11l12.325,25.77a2.349,2.349,0,0,0,2.386,1.321l34.065-3.9a2.349,2.349,0,0,0,2.026-1.825l6.178-27.89a124.537,124.537,0,0,0,35.266-19.593l26.955,9.514a2.35,2.35,0,0,0,2.621-.754L1419,435.467a2.35,2.35,0,0,0,.141-2.724l-15.362-24.105a124.52,124.52,0,0,0,11.109-38.783l25.771-12.326a2.348,2.348,0,0,0,1.32-2.386l-3.9-34.065a2.347,2.347,0,0,0-1.826-2.025l-27.89-6.179a124.513,124.513,0,0,0-19.592-35.265l9.513-26.956a2.349,2.349,0,0,0-.753-2.62l-26.847-21.328a2.348,2.348,0,0,0-2.723-.142l-24.106,15.363a124.509,124.509,0,0,0-38.783-11.11l-12.325-25.771a2.352,2.352,0,0,0-2.386-1.32l-34.065,3.9a2.349,2.349,0,0,0-2.026,1.825l-6.178,27.891a124.485,124.485,0,0,0-35.266,19.592l-26.955-9.513a2.349,2.349,0,0,0-2.621.753l-21.328,26.847a2.348,2.348,0,0,0-.141,2.723l15.362,24.105a124.519,124.519,0,0,0-11.109,38.783L1140.26,352.96a2.349,2.349,0,0,0-1.32,2.386l3.9,34.064a2.35,2.35,0,0,0,1.825,2.027l27.891,6.178a124.538,124.538,0,0,0,19.592,35.265l-9.513,26.956a2.349,2.349,0,0,0,.753,2.621Z" fill="url(#al)"/><path d="M1290.5,392.119a36.877,36.877,0,1,1,12.995-2.383h0A36.707,36.707,0,0,1,1290.5,392.119Zm10.723-8.395h0Zm-10.752-52.511a24.066,24.066,0,1,0,9.872,2.14A24.02,24.02,0,0,0,1290.47,331.213Z" fill="#fff" opacity="0.56"/><path d="M1290.757,439.522h0q-3.24,0-6.462-.246-.921-.07-1.84-.161a2.143,2.143,0,0,1-1.932-2.13c0-.07,0-.141.01-.213a2.155,2.155,0,0,1,2.342-1.921,80.691,80.691,0,0,0,88.463-75.715q.121-2.2.123-4.429a81.09,81.09,0,0,0-.529-9.241,80.6,80.6,0,0,0-160.666,9.1,81.313,81.313,0,0,0,.529,9.241,80.483,80.483,0,0,0,16.056,39.813,2.142,2.142,0,1,1-3.4,2.607,84.89,84.89,0,1,1,77.071,32.733h0A86.048,86.048,0,0,1,1290.757,439.522Z" fill="#fff" opacity="0.56"/><g opacity="0.64"><path d="M911.726,507.62a2.139,2.139,0,0,1-1.881-1.113q-1.308-2.388-2.5-4.851a2.142,2.142,0,0,1,3.854-1.871q1.151,2.367,2.406,4.664a2.141,2.141,0,0,1-1.876,3.171Z" fill="#fff"/><path d="M905.187,493.307a2.144,2.144,0,0,1-2.009-1.4c-1.227-3.3-2.31-6.7-3.218-10.094a2.143,2.143,0,1,1,4.141-1.107c.872,3.268,1.914,6.534,3.094,9.708a2.144,2.144,0,0,1-2.008,2.89Zm-5.369-20.054a2.142,2.142,0,0,1-2.11-1.786q-.206-1.211-.385-2.431c-.394-2.681-.7-5.4-.894-8.082a2.142,2.142,0,1,1,4.272-.318c.193,2.581.482,5.2.861,7.775q.174,1.174.37,2.343a2.142,2.142,0,0,1-1.755,2.469A2.191,2.191,0,0,1,899.818,473.253Zm-1.535-20.7h-.044a2.144,2.144,0,0,1-2.1-2.185c.071-3.519.312-7.075.717-10.567a2.142,2.142,0,1,1,4.255.491c-.388,3.359-.619,6.779-.687,10.162A2.143,2.143,0,0,1,898.283,452.55Zm2.387-20.619a2.1,2.1,0,0,1-.45-.047,2.144,2.144,0,0,1-1.648-2.543c.737-3.443,1.646-6.89,2.7-10.244a2.142,2.142,0,0,1,4.086,1.289c-1.017,3.225-1.892,6.54-2.6,9.851A2.144,2.144,0,0,1,900.67,431.931Zm6.243-19.794a2.145,2.145,0,0,1-1.972-2.98c1.37-3.235,2.913-6.448,4.586-9.547a2.142,2.142,0,0,1,3.77,2.034c-1.609,2.982-3.093,6.072-4.411,9.185A2.144,2.144,0,0,1,906.913,412.137Zm9.857-18.27a2.142,2.142,0,0,1-1.78-3.333c1.956-2.928,4.074-5.794,6.292-8.52a2.142,2.142,0,0,1,3.323,2.7c-2.134,2.622-4.17,5.379-6.052,8.2A2.14,2.14,0,0,1,916.77,393.867Zm13.1-16.1a2.142,2.142,0,0,1-1.528-3.644c2.468-2.509,5.083-4.928,7.774-7.193a2.142,2.142,0,1,1,2.759,3.278c-2.589,2.179-5.105,4.507-7.478,6.919A2.134,2.134,0,0,1,929.872,377.767Zm15.883-13.358a2.142,2.142,0,0,1-1.22-3.9c2.9-2,5.919-3.883,8.988-5.6a2.143,2.143,0,1,1,2.09,3.741c-2.952,1.649-5.859,3.461-8.642,5.383A2.139,2.139,0,0,1,945.755,364.409Zm18.116-10.119a2.142,2.142,0,0,1-.863-4.1c3.215-1.414,6.543-2.691,9.889-3.8a2.143,2.143,0,0,1,1.343,4.07c-3.217,1.062-6.416,2.289-9.508,3.649A2.129,2.129,0,0,1,963.871,354.29Zm71.2-5.977a2.114,2.114,0,0,1-.527-.066c-3.28-.829-6.64-1.51-9.985-2.024a2.142,2.142,0,1,1,.651-4.234c3.479.533,6.973,1.241,10.384,2.1a2.142,2.142,0,0,1-.523,4.219Zm-51.494-.535a2.143,2.143,0,0,1-.474-4.232c2.882-.658,5.833-1.21,8.77-1.641q.826-.123,1.652-.23a2.142,2.142,0,0,1,.561,4.247q-.793.105-1.59.222c-2.826.415-5.665.946-8.44,1.58A2.133,2.133,0,0,1,983.573,347.778Zm30.975-2.615c-.042,0-.083,0-.125,0-3.354-.193-6.773-.228-10.187-.1a2.143,2.143,0,1,1-.161-4.283c3.549-.134,7.1-.1,10.595.1a2.142,2.142,0,0,1-.122,4.281Z" fill="#fff"/><path d="M1050.121,353.308a2.134,2.134,0,0,1-.819-.164q-2.42-1-4.9-1.889a2.143,2.143,0,0,1,1.446-4.034q2.571.921,5.09,1.965a2.143,2.143,0,0,1-.821,4.122Z" fill="#fff"/></g><g opacity="0.64"><path d="M1110.747,415.436a2.145,2.145,0,0,1-2-1.376q-.942-2.459-2-4.853a2.143,2.143,0,0,1,3.921-1.729q1.1,2.49,2.079,5.048a2.144,2.144,0,0,1-2,2.91Z" fill="#fff"/><path d="M1008.025,564.783c-3.121,0-6.272-.132-9.363-.393a2.143,2.143,0,0,1,.36-4.27,107.787,107.787,0,0,0,10.886.362,2.143,2.143,0,0,1,.077,4.285Q1009,564.784,1008.025,564.783Zm13.005-.769a2.142,2.142,0,0,1-.249-4.27q1.523-.182,3.049-.4c2.583-.38,5.172-.856,7.7-1.415a2.143,2.143,0,0,1,.925,4.185c-2.623.579-5.313,1.074-8,1.468q-1.586.234-3.168.421A2.461,2.461,0,0,1,1021.03,564.014Zm-33.2-1.112a2.177,2.177,0,0,1-.4-.037,112.044,112.044,0,0,1-11.013-2.659,2.143,2.143,0,0,1,1.216-4.109,107.712,107.712,0,0,0,10.59,2.557,2.142,2.142,0,0,1-.394,4.248Zm54.868-3.683a2.143,2.143,0,0,1-.671-4.178,106.879,106.879,0,0,0,10.157-3.931,2.143,2.143,0,0,1,1.749,3.913,111.69,111.69,0,0,1-10.564,4.088A2.154,2.154,0,0,1,1042.7,559.219Zm20.26-9.053a2.142,2.142,0,0,1-1.071-4,108.148,108.148,0,0,0,9.149-5.9,2.142,2.142,0,1,1,2.5,3.477,112.039,112.039,0,0,1-9.513,6.139A2.132,2.132,0,0,1,1062.96,550.166Zm18-12.957a2.142,2.142,0,0,1-1.422-3.746,108.43,108.43,0,0,0,7.779-7.623,2.141,2.141,0,1,1,3.149,2.9,113.027,113.027,0,0,1-8.086,7.928A2.143,2.143,0,0,1,1080.964,537.209Zm15.042-16.31a2.143,2.143,0,0,1-1.71-3.429,108.839,108.839,0,0,0,6.1-9.029,2.143,2.143,0,0,1,3.667,2.218c-1.947,3.218-4.08,6.376-6.34,9.384A2.138,2.138,0,0,1,1096.006,520.9Zm11.484-18.991a2.142,2.142,0,0,1-1.935-3.06,108.913,108.913,0,0,0,4.167-10.068,2.142,2.142,0,1,1,4.036,1.437,112.682,112.682,0,0,1-4.331,10.466A2.143,2.143,0,0,1,1107.49,501.908ZM1114.932,481a2.144,2.144,0,0,1-2.083-2.652,107.466,107.466,0,0,0,2.05-10.7,2.142,2.142,0,1,1,4.243.59,111.25,111.25,0,0,1-2.132,11.13A2.142,2.142,0,0,1,1114.932,481Zm3.057-21.987h-.08a2.144,2.144,0,0,1-2.062-2.221q.072-1.947.072-3.908c0-2.312-.075-4.662-.226-6.984a2.143,2.143,0,0,1,4.277-.278c.157,2.415.235,4.859.234,7.263q0,2.039-.074,4.066A2.144,2.144,0,0,1,1117.989,459.009Zm-1.433-22.15a2.142,2.142,0,0,1-2.111-1.792c-.594-3.576-1.373-7.159-2.319-10.646a2.143,2.143,0,1,1,4.136-1.121c.983,3.625,1.793,7.349,2.41,11.067a2.142,2.142,0,0,1-1.763,2.463A2.118,2.118,0,0,1,1116.556,436.859Z" fill="#fff"/><path d="M966.438,556.56a2.133,2.133,0,0,1-.814-.162q-2.527-1.039-4.994-2.2a2.142,2.142,0,1,1,1.82-3.878q2.373,1.113,4.8,2.114a2.143,2.143,0,0,1-.816,4.124Z" fill="#fff"/></g><path d="M963,524.061a1.318,1.318,0,0,0,1.529.08l13.537-8.627a69.907,69.907,0,0,0,21.779,6.239l6.921,14.472a1.321,1.321,0,0,0,1.34.741l19.129-2.192a1.318,1.318,0,0,0,1.137-1.024l3.47-15.663a69.923,69.923,0,0,0,19.8-11l15.137,5.343a1.318,1.318,0,0,0,1.471-.424l11.977-15.076a1.319,1.319,0,0,0,.08-1.529l-8.627-13.537a69.927,69.927,0,0,0,6.238-21.778l14.472-6.922a1.318,1.318,0,0,0,.741-1.339l-2.191-19.13a1.318,1.318,0,0,0-1.025-1.137l-15.662-3.47a69.886,69.886,0,0,0-11-19.8l5.343-15.138a1.318,1.318,0,0,0-.424-1.471L1053.1,379.7a1.319,1.319,0,0,0-1.529-.08l-13.537,8.628a69.907,69.907,0,0,0-21.779-6.239l-6.921-14.472a1.32,1.32,0,0,0-1.34-.741l-19.129,2.191a1.319,1.319,0,0,0-1.138,1.026l-3.469,15.661a69.922,69.922,0,0,0-19.8,11l-15.137-5.341a1.319,1.319,0,0,0-1.472.422L935.865,406.83a1.322,1.322,0,0,0-.079,1.53l8.627,13.536a69.933,69.933,0,0,0-6.239,21.779L923.7,450.6a1.316,1.316,0,0,0-.74,1.339l2.191,19.129a1.319,1.319,0,0,0,1.025,1.138l15.662,3.47a69.919,69.919,0,0,0,11,19.8L947.5,510.613a1.321,1.321,0,0,0,.424,1.472Z" fill="url(#am)"/><path d="M1008.069,471.119a19.24,19.24,0,1,1,6.781-1.243h0A19.168,19.168,0,0,1,1008.069,471.119Zm6.023-3.247h0Zm-6.038-30.955a14.958,14.958,0,1,0,5.281,28.951h0a14.962,14.962,0,0,0-5.281-28.951Z" fill="#fff" opacity="0.56"/><path d="M1008.217,500.145q-.877,0-1.753-.031-1.34-.05-2.672-.171l-.158-.014-.155-.015-.019,0a2.142,2.142,0,0,1-1.932-2.13c0-.07,0-.141.01-.212a2.136,2.136,0,0,1,2.343-1.922,44.66,44.66,0,0,0,9.438-.079h0A44.373,44.373,0,0,0,1052.5,448.64q-.07-1.07-.193-2.145a44.318,44.318,0,1,0-79.231,31.98,2.142,2.142,0,0,1-3.4,2.607,48.606,48.606,0,1,1,86.889-35.075,48.583,48.583,0,0,1-42.756,53.819h0l-.153.017A49.215,49.215,0,0,1,1008.217,500.145Z" fill="#fff" opacity="0.56"/></g><g transform="translate(814 1831)"><path d="M595.779,949.9l-5.414,2.111-.062.023a1.794,1.794,0,1,1-1.3-3.342l0,0,5.542-2.147a1.788,1.788,0,0,1,1.292,3.334Z" fill="#fff"/><path d="M574.628,959.5l-5.061,2.862-.055.031a1.818,1.818,0,0,1-1.79-3.165l0,0,5.176-2.914a1.812,1.812,0,0,1,1.778,3.158Z" fill="#fff"/><path d="M555,971.957l-4.64,3.511-.047.035a1.843,1.843,0,1,1-2.223-2.939l0,0,4.741-3.572a1.837,1.837,0,1,1,2.21,2.934Z" fill="#fff"/><path d="M537.121,986.846l-4.18,4.054-.039.039a1.867,1.867,0,0,1-2.6-2.68l0,0,4.266-4.122a1.861,1.861,0,1,1,2.586,2.677Z" fill="#fff"/><path d="M521.123,1003.764l-3.7,4.5-.032.041a1.891,1.891,0,1,1-2.924-2.4l0,0,3.771-4.575a1.885,1.885,0,1,1,2.909,2.4Z" fill="#fff"/><path d="M507.08,1022.353l-3.2,4.871-.027.041a1.915,1.915,0,1,1-3.2-2.1l0,0,3.264-4.946a1.91,1.91,0,0,1,3.188,2.1Z" fill="#fff"/><path d="M495.035,1042.306l-2.693,5.169-.022.042a1.94,1.94,0,1,1-3.44-1.793v0l2.749-5.248a1.934,1.934,0,1,1,3.426,1.794Z" fill="#fff"/><path d="M485.032,1063.359l-2.177,5.408-.018.044a1.964,1.964,0,0,1-3.644-1.467l0,0,2.224-5.491a1.958,1.958,0,0,1,3.629,1.469Z" fill="#fff"/><path d="M477.116,1085.284l-1.646,5.593-.013.046a1.988,1.988,0,1,1-3.815-1.123v0l1.684-5.68a1.982,1.982,0,0,1,3.8,1.126Z" fill="#fff"/><path d="M471.352,1107.869l-1.1,5.724-.01.048a2.012,2.012,0,1,1-3.953-.756v0l1.126-5.819a2.006,2.006,0,0,1,3.939.763Z" fill="#fff"/><path d="M467.823,1130.9l-.522,5.8,0,.051a2.037,2.037,0,1,1-4.057-.364v0l.543-5.9a2.031,2.031,0,1,1,4.044.372Z" fill="#fff"/><path d="M466.626,1154.162l.077,5.823v.054a2.061,2.061,0,1,1-4.121.054v0l-.066-5.931a2.055,2.055,0,1,1,4.109-.046Z" fill="#fff"/><path d="M467.816,1177.426l.653,5.791.006.05a2.085,2.085,0,1,1-4.144.468v-.005l-.652-5.892a2.079,2.079,0,1,1,4.133-.457Z" fill="#fff"/><path d="M471.256,1200.475l1.2,5.7.01.049a2.11,2.11,0,0,1-4.129.868v0l-1.208-5.8a2.1,2.1,0,1,1,4.118-.857Z" fill="#fff"/><path d="M476.845,1223.1l1.72,5.57.014.046a2.134,2.134,0,1,1-4.078,1.259v0l-1.737-5.665a2.128,2.128,0,1,1,4.068-1.248Z" fill="#fff"/><path d="M484.474,1245.129l2.213,5.393.019.044a2.158,2.158,0,0,1-3.993,1.639l0,0-2.239-5.486a2.152,2.152,0,0,1,3.986-1.626Z" fill="#fff"/><path d="M494.035,1266.39l2.68,5.178.021.043a2.182,2.182,0,1,1-3.876,2.006l0,0-2.712-5.267a2.176,2.176,0,1,1,3.869-1.993Z" fill="#fff"/><path d="M505.421,1286.734l3.12,4.925.025.04a2.207,2.207,0,0,1-3.728,2.362l0,0-3.161-5.012a2.2,2.2,0,0,1,3.723-2.347Z" fill="#fff"/><path d="M518.532,1306.01l3.535,4.634.03.039a2.231,2.231,0,0,1-3.548,2.706l0,0-3.585-4.719a2.225,2.225,0,1,1,3.543-2.691Z" fill="#fff"/><path d="M533.271,1324.065l3.928,4.3.034.037a2.255,2.255,0,1,1-3.331,3.04l0,0-3.987-4.386a2.249,2.249,0,1,1,3.328-3.026Z" fill="#fff"/><path d="M549.549,1340.736l4.3,3.931.039.036a2.279,2.279,0,1,1-3.076,3.364l0,0-4.367-4.011a2.273,2.273,0,1,1,3.075-3.349Z" fill="#fff"/><path d="M567.272,1355.846l4.645,3.511.044.033a2.3,2.3,0,0,1-2.778,3.676l0,0-4.725-3.587a2.3,2.3,0,1,1,2.778-3.66Z" fill="#fff"/><path d="M586.34,1369.2l4.963,3.037.05.031a2.328,2.328,0,0,1-2.43,3.971l0,0-5.057-3.109a2.322,2.322,0,0,1,2.432-3.956Z" fill="#fff"/><path d="M606.632,1380.581l5.243,2.529.051.024a2.352,2.352,0,1,1-2.044,4.237l0,0-5.34-2.589a2.346,2.346,0,0,1,2.047-4.222Z" fill="#fff"/><path d="M627.948,1389.93l5.461,2.015.053.02a2.377,2.377,0,0,1-1.646,4.459l-.005,0-5.562-2.066a2.37,2.37,0,1,1,1.651-4.444Z" fill="#fff"/><path d="M650.057,1397.212l5.627,1.495.053.014a2.4,2.4,0,0,1-1.232,4.641H654.5l-5.731-1.536a2.395,2.395,0,0,1,1.239-4.626Z" fill="#fff"/><path d="M672.75,1402.412l5.741.975.054.009a2.425,2.425,0,0,1-.813,4.781h-.005l-5.846-1.005a2.419,2.419,0,0,1,.821-4.768Z" fill="#fff"/><path d="M695.824,1405.541l5.806.462.053,0a2.449,2.449,0,0,1-.389,4.883h-.005l-5.911-.483a2.443,2.443,0,0,1,.4-4.87Z" fill="#fff"/><path d="M719.088,1406.633l5.825-.039h.053a2.473,2.473,0,1,1,.033,4.946h-.005l-5.93.028a2.467,2.467,0,1,1-.023-4.934Z" fill="#fff"/><path d="M742.365,1405.743l5.8-.524.052-.005a2.487,2.487,0,0,1,.447,4.953h0l-5.9.531a2.485,2.485,0,1,1-.445-4.95Z" fill="#fff"/><path d="M765.493,1402.929l5.74-1,.05-.009a2.492,2.492,0,1,1,.855,4.91h0l-5.841,1.014a2.49,2.49,0,1,1-.852-4.907Z" fill="#fff"/><path d="M788.317,1398.234l5.641-1.46.048-.013a2.5,2.5,0,0,1,1.253,4.836h0l-5.738,1.483a2.5,2.5,0,1,1-1.25-4.833Z" fill="#fff"/><path d="M810.69,1391.715l5.505-1.908.048-.017a2.5,2.5,0,1,1,1.639,4.73h0l-5.6,1.938a2.5,2.5,0,1,1-1.637-4.728Z" fill="#fff"/><path d="M832.469,1383.426l5.336-2.343.046-.02a2.509,2.509,0,0,1,2.017,4.594h0l-5.43,2.381a2.507,2.507,0,1,1-2.013-4.593Z" fill="#fff"/><path d="M853.538,1373.44l5.153-2.735.038-.02a2.514,2.514,0,1,1,2.357,4.441h0l-5.231,2.773a2.513,2.513,0,1,1-2.354-4.44Z" fill="#fff"/><path d="M873.864,1361.979l4.961-3.076.034-.021a2.52,2.52,0,0,1,2.655,4.283h0l-5.031,3.116A2.518,2.518,0,0,1,873.83,1362Z" fill="#fff"/><path d="M893.414,1349.213l4.765-3.376.03-.022a2.525,2.525,0,0,1,2.919,4.121h0l-4.828,3.416a2.523,2.523,0,0,1-2.915-4.119Z" fill="#fff"/><path d="M912.188,1335.305l4.576-3.636.025-.021a2.531,2.531,0,0,1,3.149,3.962h0l-4.629,3.675a2.529,2.529,0,1,1-3.145-3.961Z" fill="#fff"/><path d="M930.218,1320.416l4.4-3.856.021-.019a2.536,2.536,0,1,1,3.345,3.813h0l-4.442,3.892a2.534,2.534,0,0,1-3.341-3.812Z" fill="#fff"/><path d="M947.556,1304.7l4.235-4.04.017-.017a2.542,2.542,0,1,1,3.51,3.677h0l-4.272,4.073a2.54,2.54,0,0,1-3.506-3.677Z" fill="#fff"/><path d="M964.272,1288.3l4.09-4.19.014-.015a2.547,2.547,0,1,1,3.645,3.558h0l-4.121,4.218a2.545,2.545,0,0,1-3.641-3.558Z" fill="#fff"/><path d="M980.444,1271.349l3.968-4.312.011-.013a2.553,2.553,0,0,1,3.757,3.457h0l-3.993,4.335a2.551,2.551,0,0,1-3.753-3.456Z" fill="#fff"/><path d="M996.158,1253.949l3.867-4.408.009-.01a2.558,2.558,0,1,1,3.845,3.374h0l-3.887,4.426a2.557,2.557,0,0,1-3.842-3.374Z" fill="#fff"/><path d="M1011.5,1236.2l3.79-4.482.006-.007a2.563,2.563,0,0,1,3.915,3.31h0l-3.8,4.495a2.562,2.562,0,0,1-3.911-3.311Z" fill="#fff"/><path d="M1026.566,1218.2l3.732-4.531a2.569,2.569,0,1,1,3.975,3.256l-.005.006-3.743,4.54a2.568,2.568,0,1,1-3.959-3.271Z" fill="#fff"/><path d="M1041.436,1200.015l3.7-4.563a2.574,2.574,0,0,1,4.005,3.235l0,0-3.7,4.568a2.573,2.573,0,1,1-3.995-3.244Z" fill="#fff"/><path d="M1056.2,1181.733l3.684-4.578a2.58,2.58,0,1,1,4.02,3.234h0l-3.687,4.578a2.578,2.578,0,1,1-4.016-3.235Z" fill="#fff"/><path d="M1070.947,1163.419l3.693-4.575a2.586,2.586,0,1,1,4.023,3.249l0,0-3.693,4.569a2.584,2.584,0,1,1-4.021-3.246Z" fill="#fff"/><path d="M1085.761,1145.145l3.724-4.554a2.591,2.591,0,1,1,4.011,3.281l0,.005-3.72,4.544a2.589,2.589,0,1,1-4.011-3.276Z" fill="#fff"/><path d="M1100.73,1126.982l3.777-4.515a2.6,2.6,0,0,1,3.983,3.331l-.007.008-3.767,4.5a2.6,2.6,0,1,1-3.986-3.324Z" fill="#fff"/><path d="M1115.941,1109l3.851-4.456a2.6,2.6,0,0,1,3.937,3.4h0l-.008.01-3.837,4.436-.008.009a2.6,2.6,0,0,1-3.934-3.4Z" fill="#fff"/><path d="M1131.48,1091.289l3.946-4.376a2.607,2.607,0,0,1,3.873,3.491h0l-.011.012-3.927,4.352-.01.011a2.606,2.606,0,0,1-3.87-3.491Z" fill="#fff"/><path d="M1147.433,1073.929l4.062-4.273a2.613,2.613,0,0,1,3.788,3.6h0l-.014.014-4.038,4.244-.013.014a2.611,2.611,0,0,1-3.784-3.6Z" fill="#fff"/><path d="M1163.883,1057.02l4.2-4.144a2.618,2.618,0,1,1,3.678,3.727h0l-.016.017-4.17,4.11-.016.016a2.617,2.617,0,0,1-3.675-3.726Z" fill="#fff"/><path d="M1180.912,1040.671l4.356-3.985a2.623,2.623,0,1,1,3.542,3.871h0l-.02.018-4.318,3.947-.02.018a2.622,2.622,0,0,1-3.539-3.87Z" fill="#fff"/><path d="M1198.592,1025.005l4.529-3.794a2.629,2.629,0,0,1,3.376,4.031h0l-.024.02-4.483,3.752-.024.02a2.628,2.628,0,0,1-3.373-4.03Z" fill="#fff"/><path d="M1216.984,1010.158l4.721-3.565a2.635,2.635,0,0,1,3.175,4.206h0l-.03.023-4.663,3.516-.03.023a2.633,2.633,0,0,1-3.172-4.2Z" fill="#fff"/><path d="M1236.164,996.308l4.915-3.291a2.64,2.64,0,0,1,2.937,4.387h0l-.031.02-4.854,3.248-.031.02a2.638,2.638,0,0,1-2.935-4.385Z" fill="#fff"/><path d="M1256.095,983.565l5.092-3.009a2.646,2.646,0,0,1,2.692,4.555h0l-.032.019-5.029,2.969-.032.019a2.644,2.644,0,0,1-2.689-4.553Z" fill="#fff"/><path d="M1276.71,971.962l5.252-2.719a2.651,2.651,0,1,1,2.437,4.708h0l-.033.017-5.188,2.683-.032.017a2.649,2.649,0,1,1-2.435-4.706Z" fill="#fff"/><path d="M1297.939,961.527l5.394-2.423a2.656,2.656,0,1,1,2.177,4.846h0l-.033.015-5.329,2.39-.034.015a2.655,2.655,0,1,1-2.174-4.844Z" fill="#fff"/><path d="M1319.711,952.284l5.52-2.123a2.662,2.662,0,1,1,1.911,4.969h0l-.034.013-5.453,2.093-.034.013a2.66,2.66,0,0,1-1.909-4.966Z" fill="#fff"/><path d="M1341.958,944.249l5.628-1.817a2.667,2.667,0,0,1,1.64,5.076h0l-.035.011-5.56,1.793-.034.011a2.666,2.666,0,1,1-1.638-5.074Z" fill="#fff"/><path d="M1364.609,937.439l5.718-1.51a2.673,2.673,0,0,1,1.365,5.168h0l-.034.009-5.649,1.489-.035.009a2.671,2.671,0,0,1-1.363-5.166Z" fill="#fff"/><path d="M1387.594,931.864l5.791-1.2a2.678,2.678,0,1,1,1.086,5.245h0l-.035.007-5.721,1.183-.035.007a2.677,2.677,0,0,1-1.085-5.243Z" fill="#fff"/><path d="M1410.845,927.534l5.847-.887a2.683,2.683,0,1,1,.8,5.306h0l-.036.005-5.775.874-.036.005a2.682,2.682,0,0,1-.8-5.3Z" fill="#fff"/><path d="M1434.3,924.455l5.885-.573a2.689,2.689,0,0,1,.521,5.353h0l-.035,0-5.815.564-.035,0a2.688,2.688,0,0,1-.52-5.351Z" fill="#fff"/><path d="M1457.875,922.634l5.907-.259a2.695,2.695,0,1,1,.236,5.384h0l-.036,0-5.835.252-.036,0a2.693,2.693,0,1,1-.234-5.381Z" fill="#fff"/><path d="M1481.518,922.073l5.913.057a2.7,2.7,0,0,1-.052,5.4h-.037l-5.841-.06h-.036a2.7,2.7,0,1,1,.053-5.4Z" fill="#fff"/><path d="M1505.158,922.776l5.9.373a2.706,2.706,0,0,1-.342,5.4h0l-.036,0-5.829-.371-.036,0a2.7,2.7,0,0,1,.342-5.4Z" fill="#fff"/><path d="M1528.728,924.745l5.873.689a2.712,2.712,0,0,1-.633,5.386h0l-.036-.005-5.8-.684-.036,0a2.71,2.71,0,1,1,.634-5.382Z" fill="#fff"/><path d="M1552.157,927.979l5.828,1.007a2.716,2.716,0,1,1-.925,5.353h0l-.036-.006-5.755-1-.036-.006a2.715,2.715,0,0,1,.925-5.351Z" fill="#fff"/><path d="M1575.379,932.479l5.764,1.322a2.722,2.722,0,1,1-1.217,5.306h0l-.036-.008-5.691-1.308-.037-.008a2.721,2.721,0,0,1,1.218-5.3Z" fill="#fff"/><path d="M1598.322,938.239l5.683,1.636a2.727,2.727,0,1,1-1.509,5.242h0l-.036-.011-5.611-1.618-.036-.01a2.726,2.726,0,0,1,1.51-5.239Z" fill="#fff"/><path d="M1620.914,945.254l5.585,1.948a2.733,2.733,0,0,1-1.8,5.161h0l-.036-.013-5.512-1.926-.036-.013a2.731,2.731,0,0,1,1.8-5.157Z" fill="#fff"/><path d="M1643.084,953.513l5.467,2.258a2.738,2.738,0,0,1-2.09,5.062h0l-.036-.015-5.395-2.231-.036-.015a2.737,2.737,0,0,1,2.091-5.059Z" fill="#fff"/><path d="M1664.757,963l5.332,2.562a2.744,2.744,0,1,1-2.377,4.947h0l-.035-.017-5.261-2.532-.035-.016a2.742,2.742,0,0,1,2.377-4.943Z" fill="#fff"/><path d="M1685.861,973.705l5.179,2.862a2.75,2.75,0,0,1-2.66,4.813h0l-.035-.019-5.108-2.826-.034-.019a2.748,2.748,0,0,1,2.659-4.81Z" fill="#fff"/><path d="M1706.322,985.594l5.007,3.154a2.755,2.755,0,0,1-2.937,4.662h0l-.034-.021-4.938-3.114-.033-.021a2.753,2.753,0,0,1,2.936-4.659Z" fill="#fff"/><path d="M1726.067,998.629l4.822,3.411a2.76,2.76,0,1,1-3.188,4.507h0l-.024-.017-4.772-3.379-.025-.018a2.759,2.759,0,0,1,3.188-4.5Z" fill="#fff"/><path d="M1745.148,1012.527l4.7,3.562a2.766,2.766,0,1,1-3.343,4.407h0l-.013-.01-4.668-3.543-.013-.01a2.765,2.765,0,0,1,3.342-4.405Z" fill="#fff"/><path d="M1763.815,1026.9l4.63,3.628a2.771,2.771,0,1,1-3.418,4.363l-.005,0-4.621-3.623a2.77,2.77,0,1,1,3.414-4.364Z" fill="#fff"/><path d="M1782.308,1041.419l4.624,3.619a2.776,2.776,0,0,1-3.412,4.381l-.007,0-4.631-3.629a2.775,2.775,0,1,1,3.426-4.367Z" fill="#fff"/><path d="M1800.864,1055.791l4.675,3.534.014.011a2.782,2.782,0,0,1-3.355,4.439h0l-4.7-3.556a2.781,2.781,0,0,1,3.355-4.436Z" fill="#fff"/><path d="M1819.708,1069.7l4.783,3.365.025.017a2.788,2.788,0,1,1-3.208,4.56h0l-4.831-3.4a2.786,2.786,0,1,1,3.209-4.556Z" fill="#fff"/><path d="M1839.064,1082.787l4.944,3.1.038.024a2.793,2.793,0,0,1-2.964,4.735h0l-5.019-3.146a2.792,2.792,0,0,1,2.966-4.731Z" fill="#fff"/><path d="M1859.135,1094.627l5.148,2.707.055.028a2.8,2.8,0,0,1-2.6,4.955h0l-5.256-2.766a2.8,2.8,0,0,1,2.6-4.95Z" fill="#fff"/><path d="M1880.069,1104.7l5.377,2.172.074.03a2.8,2.8,0,0,1-2.1,5.2h0l-5.522-2.234a2.8,2.8,0,1,1,2.1-5.2Z" fill="#fff"/><path d="M1901.906,1112.4l5.589,1.483.093.025a2.809,2.809,0,0,1-1.442,5.43h0l-5.772-1.535a2.808,2.808,0,1,1,1.443-5.427Z" fill="#fff"/><path d="M1924.507,1117.137l5.733.663.106.012a2.815,2.815,0,0,1-.646,5.592h0l-5.943-.69a2.813,2.813,0,0,1,.648-5.589Z" fill="#fff"/><path d="M1947.5,1118.4l5.752-.287.118-.006a2.82,2.82,0,1,1,.281,5.633h0l-5.988.3a2.818,2.818,0,0,1-.279-5.63Z" fill="#fff"/><path d="M1970.376,1115.827l5.636-1.218.108-.024a2.826,2.826,0,1,1,1.194,5.524h0l-5.854,1.262a2.824,2.824,0,1,1-1.19-5.521Z" fill="#fff"/><path d="M1992.593,1109.664l5.4-2.057.095-.036a2.831,2.831,0,0,1,2.016,5.291h0l-5.588,2.126a2.83,2.83,0,0,1-2.013-5.289Z" fill="#fff"/><path d="M2013.709,1100.313l5.07-2.784.082-.044a2.836,2.836,0,1,1,2.73,4.972h0l-5.235,2.871a2.835,2.835,0,0,1-2.727-4.972Z" fill="#fff"/><path d="M2033.427,1088.216l4.685-3.4.07-.05a2.842,2.842,0,1,1,3.341,4.6h0l-4.826,3.5a2.841,2.841,0,0,1-3.338-4.6Z" fill="#fff"/><path d="M2051.544,1073.784l4.262-3.93.059-.055a2.848,2.848,0,0,1,3.861,4.187h0l-4.382,4.037a2.846,2.846,0,0,1-3.857-4.187Z" fill="#fff"/><path d="M2067.92,1057.372l3.807-4.376.05-.057a2.853,2.853,0,0,1,4.3,3.745v0l-3.91,4.488a2.851,2.851,0,1,1-4.3-3.745Z" fill="#fff"/><path d="M2082.437,1039.28l3.325-4.755.043-.061a2.859,2.859,0,0,1,4.685,3.277h0l-3.413,4.875a2.857,2.857,0,0,1-4.682-3.277Z" fill="#fff"/><path d="M2094.981,1019.762l2.814-5.075.036-.065a2.864,2.864,0,0,1,5.01,2.777h0l-2.888,5.2a2.863,2.863,0,1,1-5.006-2.778Z" fill="#fff"/><path d="M2105.428,999.046l2.268-5.34.029-.07a2.87,2.87,0,0,1,5.283,2.243h0l-2.329,5.479a2.868,2.868,0,1,1-5.279-2.244Z" fill="#fff"/><path d="M2113.633,977.353l1.683-5.548.023-.076a2.875,2.875,0,0,1,5.5,1.669h0l-1.731,5.7a2.874,2.874,0,1,1-5.5-1.67Z" fill="#fff"/><path d="M2119.521,954.9l1.139-5.7.013-.064a2.88,2.88,0,1,1,5.649,1.128h0l-1.167,5.828a2.879,2.879,0,1,1-5.646-1.13Z" fill="#fff"/><path d="M2123.3,931.964l.624-5.781.006-.062a2.886,2.886,0,0,1,5.739.619h0l-.64,5.906a2.884,2.884,0,1,1-5.735-.621Z" fill="#fff"/><path d="M2125.042,908.774l.128-5.816,0-.06a2.891,2.891,0,1,1,5.781.128v0l-.134,5.935a2.89,2.89,0,0,1-5.779-.13Z" fill="#fff"/><path d="M2124.843,885.506l-.342-5.81,0-.057a2.9,2.9,0,1,1,5.784-.34h0l.346,5.925a2.9,2.9,0,0,1-5.782.337Z" fill="#fff"/><path d="M2122.8,862.316l-.788-5.77-.007-.054a2.9,2.9,0,0,1,5.752-.785v0l.8,5.878a2.9,2.9,0,1,1-5.749.781Z" fill="#fff"/><path d="M2119.012,839.335l-1.208-5.7-.011-.051a2.908,2.908,0,1,1,5.689-1.206h0l1.227,5.8a2.906,2.906,0,1,1-5.687,1.2Z" fill="#fff"/><path d="M2113.574,816.678l-1.607-5.6-.014-.048a2.914,2.914,0,0,1,5.6-1.607h0l1.632,5.7a2.912,2.912,0,0,1-5.6,1.6Z" fill="#fff"/><path d="M2106.571,794.45l-1.987-5.479-.017-.047a2.919,2.919,0,0,1,5.489-1.99v0l2.018,5.572a2.918,2.918,0,0,1-5.487,1.987Z" fill="#fff"/><path d="M2098.074,772.744l-2.35-5.334-.02-.045a2.924,2.924,0,1,1,5.352-2.358h0l2.387,5.425a2.923,2.923,0,1,1-5.351,2.354Z" fill="#fff"/><path d="M2088.143,751.654l-2.7-5.164-.023-.043a2.93,2.93,0,1,1,5.192-2.716h0l2.744,5.253a2.928,2.928,0,0,1-5.191,2.712Z" fill="#fff"/><path d="M2076.823,731.279l-3.042-4.97-.026-.043a2.935,2.935,0,0,1,5.007-3.065h0l3.092,5.057a2.934,2.934,0,0,1-5.006,3.061Z" fill="#fff"/><path d="M2064.157,711.735l-3.392-4.717-.038-.052a2.92,2.92,0,0,1,4.735-3.42l3.488,4.811a2.932,2.932,0,1,1-4.747,3.442l-.006-.009Z" fill="#fff"/><path d="M2050.008,693.25l-3.743-4.475-.027-.033a2.876,2.876,0,0,1,4.405-3.7l3.815,4.526a2.887,2.887,0,0,1-4.415,3.722l-.007-.009Z" fill="#fff"/><path d="M2034.664,675.643l-3.974-4.289-.021-.022a2.831,2.831,0,0,1,4.146-3.856l4.032,4.318a2.842,2.842,0,0,1-4.155,3.879l-.007-.008Z" fill="#fff"/><path d="M2018.5,658.725l-4.141-4.136-.017-.017a2.786,2.786,0,0,1,3.93-3.949l4.191,4.154a2.8,2.8,0,1,1-3.938,3.973l-.008-.007Z" fill="#fff"/><path d="M2001.73,642.379l-4.272-4.006-.014-.014a2.741,2.741,0,0,1,3.742-4.005l4.317,4.017a2.752,2.752,0,0,1-3.75,4.029l-.008-.007Z" fill="#fff"/><path d="M1984.472,626.526l-4.38-3.892-.013-.011a2.7,2.7,0,0,1,3.574-4.037l4.42,3.9a2.707,2.707,0,0,1-3.581,4.061l-.007-.007Z" fill="#fff"/><path d="M1966.8,611.116l-4.462-3.8-.011-.01a2.632,2.632,0,0,1,3.393-4.025l4.524,3.775a2.662,2.662,0,0,1-3.411,4.089l-.021-.018Z" fill="#fff"/><path d="M1948.83,596.057l-4.547-3.7-.01-.009a2.5,2.5,0,0,1,3.141-3.9l4.608,3.671a2.536,2.536,0,0,1-3.16,3.967l-.01-.009Z" fill="#fff"/><path d="M1930.524,581.391l-4.628-3.606-.01-.007a2.375,2.375,0,0,1,2.9-3.762l4.686,3.57a2.406,2.406,0,1,1-2.916,3.829l-.011-.008Z" fill="#fff"/><path d="M1911.9,567.122l-4.7-3.5-.01-.008a2.246,2.246,0,0,1,2.662-3.617l4.763,3.466a2.278,2.278,0,0,1-2.681,3.684l-.01-.007Z" fill="#fff"/><path d="M1892.967,553.271l-4.783-3.394-.011-.007a2.117,2.117,0,0,1,2.431-3.466l4.841,3.356a2.149,2.149,0,1,1-2.448,3.532l-.01-.007Z" fill="#fff"/><path d="M1873.731,539.843l-4.856-3.288-.011-.007a1.93,1.93,0,0,1,2.135-3.215l4.936,3.215a1.982,1.982,0,0,1-2.163,3.322l-.021-.014Z" fill="#fff"/><path d="M1854.166,526.9l-4.952-3.139-.012-.008a1.721,1.721,0,0,1,1.817-2.923l5.031,3.066a1.773,1.773,0,0,1-1.845,3.029l-.019-.012Z" fill="#fff"/><path d="M1834.193,514.617l-5.066-2.946-.015-.008a1.512,1.512,0,0,1,1.5-2.628l5.148,2.872a1.564,1.564,0,0,1-1.524,2.732l-.017-.009Z" fill="#fff"/><path d="M1813.738,503.181l-4.341-2.232-.016-.008a1.247,1.247,0,0,1,1.114-2.231l4.425,2.146a1.3,1.3,0,0,1-1.138,2.348l-.022-.011Z" fill="#fff"/><path d="M1796.8,453.429l-7.9,32.728-18.769-19.421Z" fill="#7d97f4"/><path d="M1654.161,399.121l69.673,98.86a8.521,8.521,0,0,0,12.132,1.867l96.623-73.693a3.415,3.415,0,0,0-1.67-6.107Z" fill="#91b3fa"/><path d="M1796.789,453.431l-142.628-54.31,127.071,66.251-1.8,9.169Z" fill="#7d97f4"/><path d="M1771.955,472.381l16.945,13.776-7.668-20.786Z" fill="#7d97f4"/></g></g></svg>