<svg xmlns="http://www.w3.org/2000/svg" xmlns:xlink="http://www.w3.org/1999/xlink" width="2150.234" height="1358.819" viewBox="0 0 2150.234 1358.819"><defs><linearGradient id="a" y1="0.5" x2="1" y2="0.5" gradientUnits="objectBoundingBox"><stop offset="0" stop-color="#dae3fe"/><stop offset="1" stop-color="#e9effd"/></linearGradient><linearGradient id="f" x1="0.411" y1="0.932" x2="0.634" y2="-0.163" gradientUnits="objectBoundingBox"><stop offset="0" stop-color="#09005d"/><stop offset="1" stop-color="#1a0f91"/></linearGradient><linearGradient id="g" x1="1.019" y1="0.061" x2="-1.171" y2="2.013" gradientUnits="objectBoundingBox"><stop offset="0" stop-color="#fe7062"/><stop offset="1" stop-color="#ff928e"/></linearGradient><linearGradient id="h" x1="0.56" y1="-7.142" x2="0.496" y2="0.951" xlink:href="#f"/><linearGradient id="i" y1="0.5" x2="1" y2="0.5" gradientUnits="objectBoundingBox"><stop offset="0" stop-color="#e1473d"/><stop offset="1" stop-color="#e9605a"/></linearGradient><linearGradient id="j" x1="0.535" y1="0.54" x2="1.074" y2="2.925" gradientUnits="objectBoundingBox"><stop offset="0" stop-color="#4042e2"/><stop offset="1" stop-color="#4f52ff"/></linearGradient><linearGradient id="k" x1="0.592" y1="-0.423" x2="0.484" y2="0.589" xlink:href="#j"/><linearGradient id="l" x1="0.059" y1="0.683" x2="-1.479" y2="2.299" xlink:href="#j"/><linearGradient id="m" x1="3.483" y1="-0.972" x2="-7.856" y2="4.717" xlink:href="#g"/><linearGradient id="n" x1="5.865" y1="-1.588" x2="-9.002" y2="4.101" xlink:href="#g"/><linearGradient id="o" x1="6.431" y1="-2.21" x2="-6.005" y2="3.479" xlink:href="#g"/><linearGradient id="p" x1="-0.154" y1="0.768" x2="1.903" y2="-0.021" xlink:href="#j"/><linearGradient id="q" x1="-0.048" y1="-0.285" x2="1.61" y2="2.09" xlink:href="#j"/><linearGradient id="r" x1="1.125" y1="-1" x2="-0.586" y2="1.739" gradientUnits="objectBoundingBox"><stop offset="0" stop-color="#cb236d"/><stop offset="1" stop-color="#4c246d"/></linearGradient><linearGradient id="s" x1="1.317" y1="-0.042" x2="0" y2="0.907" xlink:href="#j"/><linearGradient id="t" x1="0.994" y1="-0.109" x2="-0.636" y2="2.424" xlink:href="#f"/><linearGradient id="u" x1="0.37" y1="1.115" x2="-0.641" y2="5.239" xlink:href="#j"/><linearGradient id="v" x1="0.864" y1="0.03" x2="-1.352" y2="2.298" xlink:href="#j"/><linearGradient id="w" x1="1.055" y1="-0.475" x2="0.378" y2="0.647" gradientUnits="objectBoundingBox"><stop offset="0" stop-color="#ff928e"/><stop offset="1" stop-color="#feb3b1"/></linearGradient><linearGradient id="x" x1="0.683" y1="-0.191" x2="-0.105" y2="2.428" xlink:href="#w"/><linearGradient id="y" x1="0.725" y1="-0.218" x2="-0.207" y2="2.917" xlink:href="#w"/><linearGradient id="z" x1="0.247" y1="-0.58" x2="0.502" y2="0.484" xlink:href="#w"/><linearGradient id="aa" x1="0.435" y1="0.354" x2="1.185" y2="1.33" xlink:href="#f"/><linearGradient id="ab" x1="-0.533" y1="-2.973" x2="0.509" y2="0.502" xlink:href="#w"/><linearGradient id="ac" x1="0.544" y1="-25.317" x2="0.519" y2="-10.354" xlink:href="#w"/><linearGradient id="ad" x1="0.738" y1="-0.403" x2="-2.031" y2="10.1" xlink:href="#j"/><linearGradient id="ae" x1="0" y1="0.5" x2="1" y2="0.5" xlink:href="#j"/><linearGradient id="af" x1="-23.266" y1="0.417" x2="-22.608" y2="1.226" xlink:href="#f"/><linearGradient id="ag" x1="-9.399" y1="-0.299" x2="-9.439" y2="0.495" xlink:href="#f"/><linearGradient id="ah" x1="-23.523" y1="0.26" x2="-22.163" y2="1.995" xlink:href="#f"/><linearGradient id="ai" x1="-6.343" y1="-1.026" x2="-6.371" y2="-0.299" xlink:href="#f"/><linearGradient id="aj" x1="0.471" y1="0.304" x2="0.603" y2="1.537" xlink:href="#w"/><linearGradient id="ak" x1="0.655" y1="1.623" x2="0.971" y2="3.906" xlink:href="#g"/><linearGradient id="al" x1="0.699" y1="-0.528" x2="0.5" y2="0.713" xlink:href="#w"/><linearGradient id="am" x1="-53.146" y1="1.062" x2="-53.036" y2="0.1" xlink:href="#w"/><linearGradient id="an" x1="-27.34" y1="-44.916" x2="-27.646" y2="-45.947" xlink:href="#w"/><linearGradient id="ao" x1="-19.51" y1="-33.102" x2="-19.309" y2="-31.918" xlink:href="#f"/><linearGradient id="ap" x1="-88.818" y1="-196.986" x2="-89.78" y2="-201.468" xlink:href="#w"/><linearGradient id="aq" x1="-129.055" y1="-0.762" x2="-133.318" y2="2.353" xlink:href="#j"/><linearGradient id="ar" x1="5.432" y1="-3.331" x2="3.128" y2="-1.543" xlink:href="#i"/><linearGradient id="as" x1="0.451" y1="0.744" x2="-0.571" y2="5.822" xlink:href="#i"/><linearGradient id="at" x1="0.545" y1="0.082" x2="-0.025" y2="4.719" xlink:href="#i"/><linearGradient id="au" x1="0.494" y1="0.473" x2="0.994" y2="2.692" xlink:href="#j"/><linearGradient id="av" x1="0.486" y1="-8.077" x2="0.543" y2="28.793" xlink:href="#j"/><linearGradient id="aw" x1="0.511" y1="2.413" x2="0.557" y2="10.097" xlink:href="#j"/><linearGradient id="ax" x1="10.586" y1="0.5" x2="11.586" y2="0.5" gradientUnits="objectBoundingBox"><stop offset="0" stop-color="#a22b25"/><stop offset="1" stop-color="#c0423c"/></linearGradient><linearGradient id="ay" x1="15.403" y1="0.968" x2="15.199" y2="4.164" xlink:href="#f"/><linearGradient id="az" x1="3.622" y1="0.5" x2="4.622" y2="0.5" xlink:href="#ax"/><linearGradient id="ba" x1="-0.334" y1="0.996" x2="0.485" y2="0.453" xlink:href="#f"/><linearGradient id="bb" x1="9.002" y1="0.98" x2="8.843" y2="9.413" xlink:href="#f"/><linearGradient id="bc" x1="0.402" y1="0.717" x2="-0.923" y2="2.055" xlink:href="#g"/><linearGradient id="bd" x1="26.447" y1="1.885" x2="26.217" y2="0.326" xlink:href="#ax"/><linearGradient id="be" x1="0.777" y1="-0.664" x2="0.584" y2="0.237" xlink:href="#ax"/><linearGradient id="bf" x1="1.011" y1="0.094" x2="-1.324" y2="1.625" xlink:href="#f"/><linearGradient id="bg" x1="7.031" y1="0.5" x2="8.031" y2="0.5" xlink:href="#ax"/><linearGradient id="bh" x1="1.54" y1="-0.171" x2="-0.097" y2="0.891" xlink:href="#f"/><linearGradient id="bi" x1="0" y1="0.5" x2="1" y2="0.5" xlink:href="#f"/><linearGradient id="bk" x1="40.09" y1="-0.304" x2="38.251" y2="1.583" xlink:href="#j"/><linearGradient id="bm" x1="4.553" y1="0.5" x2="5.553" y2="0.5" xlink:href="#j"/><linearGradient id="bn" x1="4.784" y1="0.5" x2="5.784" y2="0.5" xlink:href="#j"/><linearGradient id="bo" x1="11.743" y1="0.5" x2="12.743" y2="0.5" xlink:href="#j"/><linearGradient id="bp" x1="11.974" y1="0.5" x2="12.974" y2="0.5" xlink:href="#j"/><linearGradient id="bq" x1="0.798" y1="-1.541" x2="0.47" y2="0.709" xlink:href="#w"/><linearGradient id="br" x1="1.923" y1="-9.257" x2="0.354" y2="1.498" xlink:href="#w"/><linearGradient id="bs" x1="0.962" y1="-2.667" x2="0.266" y2="2.107" xlink:href="#w"/></defs><g transform="translate(-910.011 -1935.547)"><g transform="translate(727 1808)"><path d="M384.387,153.79C346.878,276.784,157.828,1001.452,805.979,1301c0,0,247.269-445.037-403.2-1151.438A10.879,10.879,0,0,0,384.387,153.79Z" fill="#91b3fa"/><path d="M431.349,275.19c2.515,43.088,6.834,86.141,12,129.032q7.8,64.35,18.734,128.263c14.624,85.161,33.28,169.67,57.407,252.606,24.206,82.865,53.787,164.324,91.9,241.719,9.461,19.372,19.656,38.372,30.324,57.086q15.965,28.1,34.038,54.89a694.408,694.408,0,0,0,81.014,100.154l.025.026a4.051,4.051,0,0,1-5.786,5.671l-.012-.014A702.3,702.3,0,0,1,669.5,1142.969q-18.1-27.093-34.071-55.5c-10.661-18.9-20.839-38.075-30.269-57.608-37.988-78.037-67.3-159.948-91.21-243.171-23.824-83.294-42.136-168.065-56.4-253.442Q446.87,469.206,439.359,404.7c-4.979-43-9.107-86.073-11.438-129.348a1.715,1.715,0,1,1,3.426-.184Z" fill="url(#a)"/></g><g transform="translate(727 1808)"><path d="M249.5,743.891c-3.641,73.077-7.468,499.208,391.762,574.626,0,0,74.736-279.89-382.2-579.51A6.19,6.19,0,0,0,249.5,743.891Z" fill="#bdd0fb"/><path d="M292.927,804.151c7.49,22.813,15.907,45.4,24.653,67.8q13.188,33.594,27.832,66.588,14.594,33,30.759,65.268c10.787,21.49,21.935,42.8,33.863,63.673,23.716,41.8,49.765,82.311,79.094,120.291,3.557,4.833,7.47,9.38,11.2,14.074l5.654,6.991c1.883,2.332,3.9,4.548,5.843,6.828,3.944,4.509,7.792,9.1,11.812,13.543l12.242,13.142a540.18,540.18,0,0,0,52.9,48.334l.041.033a3.968,3.968,0,1,1-4.93,6.22l-.024-.019a547.613,547.613,0,0,1-53.329-49.5l-12.282-13.4c-4.029-4.52-7.881-9.193-11.83-13.781-1.944-2.318-3.965-4.576-5.847-6.945l-5.652-7.1c-3.725-4.767-7.637-9.39-11.185-14.289-29.274-38.536-55.14-79.487-78.63-121.661-11.816-21.057-22.837-42.54-33.49-64.189q-15.922-32.5-30.333-65.708-14.394-33.2-27.373-66.976c-8.6-22.543-16.836-45.191-24.194-68.214a1.68,1.68,0,0,1,3.2-1.036Z" fill="url(#a)"/></g><g transform="translate(727 1808)"><path d="M311.309,1238.187H734.988V1156.5H311.309C320.377,1156.5,320.377,1238.187,311.309,1238.187Z" fill="#bdd0fb"/><path d="M734.988,1217.746v-37.383c0-13.179-8.373-23.862-18.7-23.862H313.1a14.443,14.443,0,0,1-14.706-14.166h0a4.389,4.389,0,0,1,4.468-4.3H743.515c10.1,0,26.15,15.306,26.15,34.186v52.21c0,17.8-15.576,32.232-25.1,32.232H305.176a6.665,6.665,0,0,1-6.787-6.537h0a12.167,12.167,0,0,1,12.388-11.934H718.968C727.815,1238.187,734.988,1229.036,734.988,1217.746Z" fill="#7d97f4"/><path d="M723.238,1174.241H325.98a.979.979,0,0,1,0-1.959H723.238a.979.979,0,0,1,0,1.959Z" fill="#7d97f4"/><path d="M723.238,1186.366H325.98a.98.98,0,0,1,0-1.96H723.238a.98.98,0,0,1,0,1.96Z" fill="#7d97f4"/><path d="M723.238,1198.491H325.98a.98.98,0,0,1,0-1.96H723.238a.98.98,0,0,1,0,1.96Z" fill="#7d97f4"/><path d="M723.238,1210.616H325.98a.979.979,0,0,1,0-1.959H723.238a.979.979,0,0,1,0,1.959Z" fill="#7d97f4"/><path d="M723.238,1222.742H325.98a.98.98,0,0,1,0-1.96H723.238a.98.98,0,0,1,0,1.96Z" fill="#7d97f4"/><rect width="565.451" height="136.491" rx="21.391" transform="translate(183.012 1255.787)" fill="#7d97f4"/><rect width="66.428" height="105.117" rx="7.242" transform="translate(246.916 1271.474)" fill="#91b3fa"/><rect width="24.924" height="105.117" rx="5.89" transform="translate(323.114 1271.474)" fill="#91b3fa"/></g><g transform="translate(727 1808)"><path d="M2296.335,352.154c24.952,113.925,139.05,784.276-562.147,1041.287,0,0-205.224-415.307,543.663-1045.675C2284.4,342.251,2294.7,344.712,2296.335,352.154Z" fill="#91b3fa"/><path d="M2237.9,462.721c-7.807,40.023-17.32,79.6-27.527,119.024q-15.468,59.082-33.68,117.405A2353.14,2353.14,0,0,1,2092.2,928.336q-24.4,56.032-52.06,110.592-28.1,54.3-59.995,106.564c-21.672,34.557-44.682,68.292-69.452,100.758a1035.785,1035.785,0,0,1-80.708,92.146,4.122,4.122,0,1,1-5.857-5.8l.014-.014.045-.045a1028.054,1028.054,0,0,0,80.456-90.969c24.749-32.115,47.785-65.533,69.512-99.8q32.046-51.756,60.242-105.8,27.842-54.177,52.422-109.971a2348.059,2348.059,0,0,0,85.411-228.25q18.459-58.107,34.192-117.041c10.378-39.288,20.08-78.818,28.046-118.624l.007-.035a1.746,1.746,0,0,1,3.426.677Z" fill="url(#a)"/></g><g transform="translate(727 1808)"><path d="M1994.663,134c60.633,119.685,380.311,829.5-341.505,1228.341,0,0-350.547-416.869,319.308-1229.971C1978.326,125.259,1990.7,126.183,1994.663,134Z" fill="#bdd0fb"/><path d="M1959.388,264.036c1.635,22.6,2.5,45.18,3.13,67.79q.9,33.908.723,67.828-.262,67.835-4.437,135.584c-5.6,90.27-16.2,180.319-33.64,269.15-17.474,88.765-41.674,176.487-76.182,260.35a948.094,948.094,0,0,1-60.272,121.831c-11.626,19.479-23.86,38.62-37.121,57.057q-19.923,27.625-42.283,53.41a3.788,3.788,0,0,1-5.715-4.972l.01-.011.023-.026q22.219-25.335,42.038-52.666c13.2-18.2,25.4-37.116,37.007-56.384a941.244,941.244,0,0,0,60.324-120.722c34.64-83.225,59.109-170.5,76.883-258.915,17.74-88.487,28.684-178.294,34.636-268.374q4.388-67.575,4.974-135.335.276-33.861-.448-67.72c-.533-22.559-1.314-45.149-2.849-67.625l0-.026a1.6,1.6,0,0,1,3.2-.224Z" fill="url(#a)"/></g><g transform="translate(727 1808)"><path d="M2333.147,909.074c-12.818,72.727-104.692,492.911-514.472,477.522,0,0-10.725-292.193,506.155-484.474A6.248,6.248,0,0,1,2333.147,909.074Z" fill="#bdd0fb"/><path d="M2280.209,960.471c-11.821,21.471-25.13,41.859-38.968,61.945q-20.847,30.042-43.852,58.507-22.935,28.482-47.734,55.41-24.857,26.838-51.442,52.019c-17.663,16.834-36.125,32.811-54.908,48.393-9.5,7.656-18.969,15.367-28.757,22.664-9.623,7.517-19.627,14.52-29.519,21.679a965.645,965.645,0,0,1-125.884,74.868,4.953,4.953,0,0,1-4.405-8.873l.043-.022.033-.016a956.7,956.7,0,0,0,125.366-72.913c9.873-7,19.863-13.848,29.478-21.21,9.781-7.142,19.244-14.7,28.75-22.2,18.789-15.28,37.277-30.964,54.984-47.513q26.609-24.766,51.625-51.193,24.882-26.522,48.007-54.636c15.384-18.744,30.173-37.988,44.194-57.777,13.942-19.812,27.444-40.08,39.288-61.105l.036-.063a2.1,2.1,0,0,1,3.665,2.041Z" fill="url(#a)"/></g><g transform="translate(727 1808)"><path d="M1908.642,1307.59a23.955,23.955,0,0,1-23.9,23.873H592.546a23.955,23.955,0,0,1-23.9-23.873L557.9,565c0-13.13,15.469-38.763,43.82-36.837L1864.6,495.484a60.216,60.216,0,0,1,61.789,61.589Z" fill="url(#f)"/><path d="M1885.051,1284.687a22.674,22.674,0,0,1-22.608,22.607H623.708a22.673,22.673,0,0,1-22.607-22.607L590.954,610.555c1.2-40.567,36.762-55.148,58.322-54.287L1859.668,523.8a42.262,42.262,0,0,1,43.383,43.307Z" fill="url(#g)"/><g opacity="0.58"><path d="M614.488,963.246a2.135,2.135,0,0,1-2.133-2.1l-.8-54.672a2.134,2.134,0,0,1,4.267-.062l.8,54.671a2.135,2.135,0,0,1-2.1,2.165Z" fill="#fff"/><path d="M612.521,829.273a2.133,2.133,0,0,1-2.133-2.1l-3.075-209.389c.064-14.076,4.4-25.322,12.9-33.463,15.437-14.791,39.573-14.048,40.592-14.009l386.5-10.372a2.093,2.093,0,0,1,2.19,2.075,2.133,2.133,0,0,1-2.075,2.189L660.794,574.575c-1.1-.044-23.485-.729-37.629,12.825-7.629,7.31-11.527,17.525-11.586,30.36l3.075,209.349a2.133,2.133,0,0,1-2.1,2.164Z" fill="#fff"/></g><path d="M1980.848,1393.107H522.642a32.719,32.719,0,0,1-32.624-32.623h0a32.72,32.72,0,0,1,32.624-32.624H1980.848a32.72,32.72,0,0,1,32.623,32.624h0A32.719,32.719,0,0,1,1980.848,1393.107Z" fill="url(#h)"/><rect width="986.807" height="536.865" rx="34.321" transform="translate(703.219 627.138)" fill="url(#i)"/></g><g transform="translate(727 1808)"><path d="M790.995,444.631l19.952,71.9a34.908,34.908,0,0,1-4.539,28.654c-14.071,21.19-48.471,59.457-121.408,78.977-74.077,19.825-116.014-.572-134.06-14.01a37.169,37.169,0,0,1-13.531-19.569L515.57,514.438Z" fill="url(#j)"/><path d="M633.077,352.083,840.551,410.2a13.87,13.87,0,0,1,5.28,23.9C804.7,469.273,711.237,551.2,675.837,598.782a13.852,13.852,0,0,1-16.415,4.512L449.495,516.4a13.87,13.87,0,0,1-3.853-23.239c40.728-35.757,144.374-125.285,178.067-140.4A13.79,13.79,0,0,1,633.077,352.083Z" fill="url(#k)"/><path d="M637.566,459.262s-110.61,69.77-119.039,85.71,8.539,88.4,8.539,88.4C509.652,694.7,507.074,761.3,536.487,796.137c0,0,36.263-80.647,20.063-114.638s-22.443-47.926-22.443-47.926-14.172-77.245-9.69-88.288C524.417,545.285,646.953,463.68,637.566,459.262Z" fill="url(#l)"/><path d="M812.632,429.444,706.45,534.185,679.9,560.37l-6.636,6.546-3.313,3.257a19.835,19.835,0,0,1-20.214,4.471l-70.712-23.688a1.066,1.066,0,0,0-.685,2.019l70.53,24.223a22.638,22.638,0,0,0,23.069-4.95l3.36-3.253,6.686-6.5,26.743-25.983L815.7,432.583a2.2,2.2,0,1,0-3.06-3.15Z" fill="#91b3fa"/><path d="M535.16,670.637l.21.223.246.29.5.589.955,1.286c.631.867,1.183,1.821,1.782,2.726l1.576,2.9c.49.988.919,2.013,1.384,3.017a30.18,30.18,0,0,1,1.23,3.1c.371,1.05.784,2.086,1.124,3.148l.9,3.231a32.763,32.763,0,0,1,.825,3.257l.659,3.3a33.3,33.3,0,0,1,.578,3.323c.264,2.237.566,4.473.8,6.718l.326,6.776c.022.566.067,1.13.07,1.7l-.04,1.7-.079,3.4c.038,4.543-.583,9.059-.948,13.592-.074,1.136-.259,2.26-.442,3.383l-.531,3.375c-.365,2.249-.685,4.506-1.086,6.75-1.005,4.447-1.918,8.923-3,13.358l-3.718,13.2-.012.039a.764.764,0,0,0,1.465.434l4.087-13.181c1.208-4.44,2.246-8.931,3.378-13.4.465-2.257.849-4.532,1.277-6.8l.627-3.405c.214-1.134.431-2.268.537-3.42.493-4.594,1.239-9.168,1.325-13.81l.17-3.472.085-1.737c.013-.58-.018-1.16-.025-1.741l-.154-6.969c-.182-2.32-.433-4.637-.648-6.959-.074-1.165-.321-2.311-.509-3.464l-.6-3.457c-.161-1.16-.5-2.288-.774-3.428l-.862-3.415c-.329-1.128-.734-2.238-1.1-3.358a33.3,33.3,0,0,0-1.223-3.324c-.467-1.089-.9-2.192-1.4-3.27l-1.628-3.187c-.635-1.026-1.211-2.075-1.9-3.081l-1.058-1.5-.593-.741-.3-.372-.371-.411a2.2,2.2,0,0,0-3.261,2.941l.025.027Z" fill="#91b3fa"/><path d="M531.782,699.181l.005,4.316-.038,4.866-.127,9.75-.334,19.514-.786,39.034a1.193,1.193,0,0,0,2.385.082l1.789-39.009.836-19.512.378-9.764.164-4.893.06-2.466.024-1.24c0-.533-.04-1.164-.093-1.736a2.137,2.137,0,0,0-4.265.191Z" fill="#91b3fa"/></g><g transform="translate(727 1808)"><path d="M1824.6,670.989l295.171,4c11.367.154,20.328,8.546,19.772,18.516l-4.915,88.134c-.524,9.4-9.36,16.791-20.083,16.791H1824.291c-11.1,0-20.106-7.9-20.106-17.655V688.641C1804.185,678.784,1813.377,670.837,1824.6,670.989Z" fill="#7d97f4"/><circle cx="47.656" cy="47.656" r="47.656" transform="translate(2043.467 447.819) rotate(-8.025)" fill="#7d97f4"/><circle cx="47.656" cy="47.656" r="47.656" transform="matrix(0.407, -0.914, 0.914, 0.407, 1915.95, 512.507)" fill="#7d97f4"/><circle cx="47.656" cy="47.656" r="47.656" transform="translate(1797.99 464.551) rotate(-22.892)" fill="#7d97f4"/><path d="M2068.992,478.283a30.612,30.612,0,1,0,28.317-18.979c-.518,0-1.032.014-1.544.039v-7.759c.513-.02,1.027-.034,1.544-.034a38.341,38.341,0,1,1-35.435,23.641Z" fill="url(#m)"/><path d="M1963.08,515.814a30.609,30.609,0,1,0,16.31-56.51c-.518,0-1.033.014-1.544.039v-7.759c.512-.02,1.026-.034,1.544-.034a38.365,38.365,0,1,1-20.157,71.011Z" fill="url(#n)"/><path d="M1834.886,507.126A30.611,30.611,0,1,0,1860.2,459.3c-.517,0-1.032.014-1.544.039v-7.759c.513-.02,1.027-.034,1.544-.034a38.365,38.365,0,1,1-31.6,60.125Z" fill="url(#o)"/><path d="M2058.479,556.2h77.66a8.826,8.826,0,1,1,0,17.652h-77.66a8.826,8.826,0,0,1,0-17.652Z" fill="#7d97f4"/><path d="M1940.04,556.2h77.66a8.826,8.826,0,1,1,0,17.652h-77.66a8.826,8.826,0,1,1,0-17.652Z" fill="#7d97f4"/><path d="M1899.261,573.85H1821.6a8.826,8.826,0,0,1,0-17.652h77.66a8.826,8.826,0,1,1,0,17.652Z" fill="#7d97f4"/><rect width="95.312" height="69.628" rx="8.826" transform="translate(2049.653 583.657)" fill="#7d97f4"/><rect width="95.312" height="69.628" rx="8.826" transform="translate(1931.214 583.657)" fill="#7d97f4"/><rect width="95.312" height="69.628" rx="8.826" transform="translate(1812.775 583.657)" fill="#7d97f4"/><path d="M1710.536,254.285l433.4-5.156c8.5-.1,10.5,6.668,10.48,10.4l.954,142.078c-.019,3.755-3.811,6.906-12.364,6.862-78.371-.4-420.235-1.884-435.591-1.48-15.175.4-9.079-112.237-7.044-141.185C1700.625,262.224,1702.382,254.382,1710.536,254.285Z" fill="url(#p)"/><path d="M2143.433,403.82h-.064c-62.313-.213-376.073-1.26-433.559-1.115h-.311l-.133-.281c-5.549-11.687-5.832-59.443-.721-121.662.066-.8,1.233-1.094,2.213-1.105l433.4-4.931a4.44,4.44,0,0,1,1.438.218c.691.257.833.65.83.933l-.887,126.778c-.006.792-1.112,1.156-2.207,1.164Zm-419.112-2.11c83.121,0,360.831.931,419.051,1.13h.064a2.4,2.4,0,0,0,1.227-.271l.887-126.616a1.052,1.052,0,0,0-.194-.092,3.19,3.19,0,0,0-1.084-.156l-433.4,4.932a2.156,2.156,0,0,0-1.277.3c-5.028,61.477-4.824,108.772.53,120.789C1713.853,401.715,1718.641,401.71,1724.321,401.71Z" fill="#bdd0fb"/><path d="M1923.479,312.652a9.357,9.357,0,0,0-6.747-2.857l-172.289.3a9.359,9.359,0,0,0-9.338,9.624l1.7,59.768a9.359,9.359,0,0,0,9.327,9.093l168.376.495a9.356,9.356,0,0,0,9.377-9.016l2.215-60.566A9.353,9.353,0,0,0,1923.479,312.652Z" fill="#bdd0fb"/><path d="M1950.621,288.253l-216.782,2.113c-2.437.024-4.1,2.517-4.1,5.566v.1c0,3.049,1.7,5.525,4.137,5.532l216.933.641a6.831,6.831,0,0,0,6.819-6.937l-.036-.124A6.921,6.921,0,0,0,1950.621,288.253Z" fill="#bdd0fb"/><path d="M2125.651,313.422a6.765,6.765,0,0,0-4.669-1.895l-173.777-.612a6.284,6.284,0,0,0-4.569,1.941,6.165,6.165,0,0,0-1.674,4.621l.227,3.478a6.129,6.129,0,0,0,6.157,5.709l173.865-1.2c3.285-.024,6.493-2.611,6.613-5.895l.06-1.655C2127.945,316.256,2126.8,314.621,2125.651,313.422Z" fill="#bdd0fb"/><path d="M2124.785,337.081a6.754,6.754,0,0,0-4.668-1.895l-173.777-.612a6.282,6.282,0,0,0-4.569,1.941,6.161,6.161,0,0,0-1.674,4.621l.226,3.477a6.131,6.131,0,0,0,6.158,5.71l173.865-1.2c3.285-.023,6.493-2.611,6.613-5.894l.06-1.655C2127.08,339.915,2125.937,338.28,2124.785,337.081Z" fill="#bdd0fb"/><path d="M2123.92,360.739a6.763,6.763,0,0,0-4.668-1.9l-173.777-.612a6.28,6.28,0,0,0-4.569,1.942,6.165,6.165,0,0,0-1.675,4.621l.227,3.477a6.129,6.129,0,0,0,6.158,5.709l173.864-1.2c3.286-.023,6.493-2.611,6.614-5.895l.06-1.655C2126.215,363.574,2125.072,361.938,2123.92,360.739Z" fill="#bdd0fb"/><path d="M2087.656,261.893a8.514,8.514,0,0,1-8.581,8.21l-6.2-.032c-4.558-.023-8.674-3.741-8.634-8.3l0-.2a8.507,8.507,0,0,1,8.574-8.21l6.2.033c4.558.023,8.679,3.741,8.638,8.3Z" fill="#bdd0fb"/><path d="M2113.668,262.022a8.318,8.318,0,0,1-8.358,8.212l-5.656-.028a8.143,8.143,0,0,1-8.1-8.294l0-.2a8.139,8.139,0,0,1,8.146-8.214l5.763.029a8.232,8.232,0,0,1,8.2,8.295Z" fill="#bdd0fb"/><path d="M2139.68,262.151a8.129,8.129,0,0,1-8.134,8.214l-5.769-.029a8.238,8.238,0,0,1-8.207-8.3l0-.2a8.329,8.329,0,0,1,8.37-8.211l5.651.027a8.138,8.138,0,0,1,8.089,8.295Z" fill="#bdd0fb"/><rect width="458.262" height="47.838" rx="12" transform="translate(1697.437 177.344)" fill="url(#q)"/><path d="M2074.689,200.41a10.805,10.805,0,0,1-10.891,10.42l-7.863-.042c-5.785-.029-11.009-4.747-10.958-10.533l0-.257a10.8,10.8,0,0,1,10.881-10.42l7.868.041c5.785.029,11.014,4.748,10.963,10.533Z" fill="#bdd0fb"/><path d="M2107.7,200.574A10.558,10.558,0,0,1,2097.095,211l-7.179-.035a10.337,10.337,0,0,1-10.275-10.527l0-.258a10.331,10.331,0,0,1,10.339-10.425l7.313.037a10.448,10.448,0,0,1,10.409,10.528Z" fill="#bdd0fb"/><path d="M2140.716,200.737a10.318,10.318,0,0,1-10.324,10.425l-7.321-.037a10.455,10.455,0,0,1-10.416-10.528l0-.258a10.572,10.572,0,0,1,10.623-10.422l7.172.035a10.33,10.33,0,0,1,10.267,10.527Z" fill="#bdd0fb"/><path d="M2027.876,208.172H1898.92a7.6,7.6,0,0,1-7.582-7.583h0a7.605,7.605,0,0,1,7.582-7.583h128.956a7.605,7.605,0,0,1,7.583,7.583h0A7.6,7.6,0,0,1,2027.876,208.172Z" fill="#bdd0fb"/></g><path d="M918.433,1313.964l.362.813.678-.813Z" transform="translate(727 1808)" fill="url(#r)"/><g transform="translate(727 1808)"><path d="M1276,853.8c-9.832-25.127-24.472-44.612-40.544-63.83a53.7,53.7,0,0,0-49.59-18.527c-87.682,13.852-208.339,25.917-261.968,32.674a76.524,76.524,0,0,0-48.2,26.069c-46.019,53.254-143.536,193.475-49.966,341.074a5.356,5.356,0,0,0,4.521,2.475h68.091l4.907-7.581c-19.8-44.109-17.036-92.444,5.122-145.505a5.38,5.38,0,0,1,10.094.452h0a925.246,925.246,0,0,1,33.7,148.02,5.36,5.36,0,0,0,5.3,4.614h208a5.353,5.353,0,0,0,5.271-4.442c19.191-109.407,70.517-227.635,87.341-264.687a33.557,33.557,0,0,1,16.6-16.715c2.3-1.04,4.563-2.112,6.809-3.189a5.374,5.374,0,0,0,2.828-6.372C1281.9,870.069,1279.157,861.861,1276,853.8Z" fill="url(#s)"/><path d="M1461.022,740.93a11.492,11.492,0,0,1,.48-16.917l600.453-535.749a5.6,5.6,0,0,1,6.142-.872h0a5.6,5.6,0,0,1,1.371,9.169L1476.812,741.155a11.493,11.493,0,0,1-15.79-.225Z" fill="url(#t)"/><path d="M905.369,993.927c-17.76-51.116-14.053-110.375-12.856-124.308a2.965,2.965,0,0,1,3.3-2.691h0a2.965,2.965,0,0,1,2.623,3.2c-1.161,13.461-4.857,71.727,12.539,121.808a2.976,2.976,0,0,1-1.778,3.784l0,0A2.967,2.967,0,0,1,905.369,993.927Z" fill="url(#u)"/><path d="M1473.767,800.329c-83.446,30.5-270.7-28.832-270.7-28.832l-2.8,140.232c142.4,45.02,235.056,31.912,295.312-5.871C1499.325,862.914,1486.418,825.538,1473.767,800.329Z" fill="url(#v)"/><path d="M1606.624,650.388l-34.921-6.916s-9.524,111.114-87.3,152.189a85.686,85.686,0,0,1-10.632,4.668c12.651,25.209,25.558,62.585,21.811,105.529C1618.022,829.079,1606.624,650.388,1606.624,650.388Z" fill="url(#w)"/><path d="M1573.475,653.157l-1.772-9.685s-7.284-23.657,11.984-46.946c27.851-33.663,47.5-23.91,47.5-23.91s-.707,9.826-.608,16.21c.08,5.152,4.23,7.149,8.024,3.662l47.495-43.643s12.712,68.821-84.768,114.418Z" fill="url(#x)"/><path d="M1012.8,686.591l-6.259,109.21a6.713,6.713,0,0,0,5.042,6.915c13.859,3.5,52.167,10.453,85.507-8.519a10.87,10.87,0,0,0,4.962-12.419l-27.882-98.129Z" fill="url(#y)"/><path d="M1099.614,575.364s30.541,70.158,32.592,106.982,9.986,60.718-32.592,68.133-78.447-13.795-97.878-50.476c0,0-30.446-56.521-23.617-79.668S1099.614,575.364,1099.614,575.364Z" fill="url(#z)"/><path d="M1016.285,673.63l2.424-1.068a5.845,5.845,0,0,0,2.856-8.028c-6-11.6-17.709-38.185-2.588-44.386,19.486-7.992,96.677-23.734,113.331-51.123,16.007-26.324,1.824-60.3-19.49-69.969a2.934,2.934,0,0,0-3.839,1.251l-1.777,3.361a2.893,2.893,0,0,1-5.337-.547h0a2.88,2.88,0,0,0-5.21-.747c-5.119,8.194-18.94,21.479-55.9,28.3-52.527,9.7-87.256,30.952-88.12,67.249a2.9,2.9,0,0,1-4.478,2.387c-3.878-2.363-10.085-3.472-18.38,3.5-14.425,12.129-8.522,43.6,23.1,69.477a2.874,2.874,0,0,1-.137,4.634c-5.733,3.732-14.28,12.612,7.865,24.45,22.905,12.244,40.01,11.239,46.6,10.152a2.88,2.88,0,0,0,2.337-3.478l-7.03-31.9a2.894,2.894,0,0,1,2.826-3.516Z" fill="url(#aa)"/><path d="M1017.608,680.362s-11.652-44.816-31.745-32.25S996.29,698.326,1012.444,700Z" fill="url(#ab)"/><path d="M1059.186,669.45c-3.578,4.116-9.087,53.288-.723,78.51,11.689,4.133,39.485,9.231,77.7-5.374,13.41-9.484,5.126-62.044-2.632-80.959-1.069-1.937-2.474-5.512-4.925-5.63-3.682-.178-8.249-6.021-12.472-4.77-7.449,2.206-20.063,15.188-24.225,16.383C1072.6,673.151,1065.594,662.081,1059.186,669.45Z" fill="#fff"/><path d="M1017.138,666.124A89.932,89.932,0,0,0,1030,671.859c2.2.827,4.449,1.5,6.687,2.174l3.381.939,3.421.775a101.994,101.994,0,0,0,13.822,2.095c2.315.271,4.648.27,6.973.358a13.5,13.5,0,0,1,7.1,1.723l.029.017a.8.8,0,0,1,.275,1.112.829.829,0,0,1-.214.227,10.218,10.218,0,0,1-3.574,1.555,12.028,12.028,0,0,1-3.675.368c-2.456-.123-4.916-.161-7.358-.477a86.179,86.179,0,0,1-14.474-2.686,82.473,82.473,0,0,1-13.725-5.143,59.921,59.921,0,0,1-12.37-7.692.666.666,0,0,1-.081-.957.71.71,0,0,1,.873-.148Z" fill="#fff"/><path d="M1005.2,697.777a199.413,199.413,0,0,0,12.974,16.079,152.864,152.864,0,0,0,14.6,14.479,82.38,82.38,0,0,0,16.749,11.414,42.922,42.922,0,0,0,9.311,3.459,72.783,72.783,0,0,1,9.784,2.832l.025.01a.729.729,0,0,1,.064,1.346,16.418,16.418,0,0,1-11.106.658,48.069,48.069,0,0,1-10.353-3.946,79.627,79.627,0,0,1-17.533-12.517,130.592,130.592,0,0,1-14.183-15.668c-2.154-2.763-4.147-5.637-6.089-8.533s-3.784-5.843-5.44-8.926a.667.667,0,0,1,.293-.916.716.716,0,0,1,.9.214Z" fill="#fff"/></g><g transform="translate(727 1808)"><path d="M1225.4,991.282l1.547,2.5a.51.51,0,1,1-.865.541l-.005-.007-1.515-2.522a.49.49,0,0,1,.838-.509Z" fill="#fff"/><path d="M1230.6,999.581l1.581,2.475a.578.578,0,1,1-.971.626l-.005-.009-1.55-2.5a.558.558,0,0,1,.945-.592Z" fill="#fff"/><path d="M1235.912,1007.8l1.621,2.454a.645.645,0,1,1-1.073.716l-.007-.01-1.59-2.481a.625.625,0,0,1,1.049-.679Z" fill="#fff"/><path d="M1241.356,1015.942l1.66,2.423a.713.713,0,1,1-1.171.812l-.008-.011-1.631-2.452a.693.693,0,0,1,1.15-.772Z" fill="#fff"/><path d="M1246.939,1023.98l1.7,2.389,0,.005a.78.78,0,1,1-1.27.905l-.006-.008-1.677-2.421a.76.76,0,0,1,1.246-.87Z" fill="#fff"/><path d="M1252.681,1031.9l1.757,2.349,0,.005a.848.848,0,0,1-1.358,1.015l-.007-.009-1.731-2.383a.827.827,0,0,1,1.331-.982Z" fill="#fff"/><path d="M1258.6,1039.68l1.812,2.306,0,.005a.915.915,0,0,1-1.439,1.131l-.008-.01-1.788-2.342a.895.895,0,0,1,1.414-1.1Z" fill="#fff"/><path d="M1264.707,1047.315l1.868,2.26,0,.005a.982.982,0,1,1-1.514,1.252l-.008-.01-1.847-2.3a.962.962,0,0,1,1.491-1.217Z" fill="#fff"/><path d="M1271,1054.791l1.926,2.209.005.007a1.049,1.049,0,1,1-1.582,1.379l-.01-.011-1.906-2.249a1.029,1.029,0,0,1,1.561-1.342Z" fill="#fff"/><path d="M1277.485,1062.1l1.978,2.161.007.007a1.1,1.1,0,0,1-1.624,1.487l-.006-.007-1.975-2.19a1.09,1.09,0,0,1,1.613-1.466Z" fill="#fff"/><path d="M1284.153,1069.234l2.04,2.1.008.007a1.139,1.139,0,0,1-1.635,1.587l-.006-.006-2.038-2.132a1.127,1.127,0,0,1,1.623-1.565Z" fill="#fff"/><path d="M1291.029,1076.166l2.1,2.036.008.008a1.177,1.177,0,0,1-1.637,1.692l-.006-.007-2.105-2.068a1.166,1.166,0,0,1,1.628-1.669Z" fill="#fff"/><path d="M1298.119,1082.873l2.169,1.965.01.009a1.215,1.215,0,0,1-1.632,1.8l-.007-.007-2.172-2a1.2,1.2,0,0,1,1.622-1.778Z" fill="#fff"/><path d="M1305.429,1089.335l2.236,1.886.01.009a1.253,1.253,0,1,1-1.615,1.915l-.008-.006-2.242-1.922a1.241,1.241,0,0,1,1.608-1.891Z" fill="#fff"/><path d="M1312.963,1095.525l2.3,1.8.012.009a1.291,1.291,0,0,1-1.589,2.035l-.008-.007-2.314-1.836a1.279,1.279,0,0,1,1.582-2.011Z" fill="#fff"/><path d="M1320.727,1101.418l2.374,1.705.014.01a1.328,1.328,0,1,1-1.55,2.158l-.009-.006-2.388-1.743a1.317,1.317,0,0,1,1.545-2.134Z" fill="#fff"/><path d="M1328.723,1106.982l2.444,1.6.015.01a1.367,1.367,0,0,1-1.5,2.287l-.009-.006-2.462-1.639a1.355,1.355,0,0,1,1.493-2.262Z" fill="#fff"/><path d="M1336.952,1112.184l2.514,1.485.017.01a1.4,1.4,0,0,1-1.428,2.419l-.01-.006-2.536-1.525a1.393,1.393,0,0,1,1.425-2.393Z" fill="#fff"/><path d="M1345.412,1116.988l2.582,1.358.02.01a1.442,1.442,0,0,1-1.343,2.553l-.01-.005-2.61-1.4a1.431,1.431,0,0,1,1.341-2.529Z" fill="#fff"/><path d="M1354.1,1121.356l2.648,1.219.022.01a1.48,1.48,0,1,1-1.238,2.689l-.011,0-2.682-1.261a1.469,1.469,0,0,1,1.239-2.664Z" fill="#fff"/><path d="M1362.994,1125.26l2.708,1.076.024.009a1.5,1.5,0,0,1-1.1,2.783h0l-2.753-1.1a1.493,1.493,0,1,1,1.11-2.772Z" fill="#fff"/><path d="M1372.089,1128.66l2.764.914.027.008a1.51,1.51,0,0,1-.948,2.867h0l-2.815-.938a1.506,1.506,0,0,1,.953-2.857Z" fill="#fff"/><path d="M1381.366,1131.506l2.811.74.028.007a1.522,1.522,0,1,1-.775,2.944h0l-2.865-.761a1.518,1.518,0,1,1,.78-2.935Z" fill="#fff"/><path d="M1390.8,1133.763l2.854.557.03.006a1.535,1.535,0,1,1-.589,3.013h0l-2.911-.577a1.531,1.531,0,1,1,.595-3Z" fill="#fff"/><path d="M1400.35,1135.4l2.885.369.03,0a1.547,1.547,0,1,1-.393,3.069h0l-2.944-.385a1.543,1.543,0,1,1,.4-3.06Z" fill="#fff"/><path d="M1409.992,1136.415l2.9.184h.029a1.56,1.56,0,0,1-.2,3.114h0l-2.961-.2a1.556,1.556,0,1,1,.2-3.1Z" fill="#fff"/><path d="M1419.68,1136.817l2.91.005h.028a1.573,1.573,0,0,1-.005,3.145h0l-2.967-.013a1.568,1.568,0,0,1,.014-3.137Z" fill="#fff"/><path d="M1429.378,1136.633l2.906-.165.027,0a1.585,1.585,0,0,1,.18,3.165h0l-2.961.16a1.581,1.581,0,0,1-.171-3.157Z" fill="#fff"/><path d="M1439.054,1135.893l2.894-.325.025,0a1.6,1.6,0,1,1,.357,3.175h0l-2.946.324a1.594,1.594,0,0,1-.348-3.169Z" fill="#fff"/><path d="M1448.681,1134.633l2.876-.475.023,0a1.61,1.61,0,1,1,.524,3.177h0l-2.924.475a1.606,1.606,0,0,1-.515-3.171Z" fill="#fff"/><path d="M1458.239,1132.889l2.851-.612.022-.005a1.623,1.623,0,0,1,.681,3.173h0l-2.9.614a1.619,1.619,0,0,1-.671-3.167Z" fill="#fff"/><path d="M1467.711,1130.7l2.822-.738.021-.006a1.635,1.635,0,0,1,.827,3.164h0l-2.865.742a1.632,1.632,0,0,1-.818-3.159Z" fill="#fff"/><path d="M1477.085,1128.1l2.791-.854.019-.006a1.648,1.648,0,1,1,.964,3.151h0l-2.831.859a1.644,1.644,0,0,1-.954-3.146Z" fill="#fff"/><path d="M1486.353,1125.124l2.758-.96.017-.006a1.66,1.66,0,1,1,1.092,3.135l0,0-2.8.965a1.657,1.657,0,0,1-1.081-3.132Z" fill="#fff"/><path d="M1495.509,1121.808l2.726-1.054.016-.006a1.67,1.67,0,1,1,1.2,3.115h0l-2.758,1.064a1.669,1.669,0,1,1-1.2-3.114Z" fill="#fff"/><path d="M1504.56,1118.2l2.694-1.138.014-.006a1.659,1.659,0,0,1,1.294,3.056l-2.719,1.155a1.662,1.662,0,1,1-1.3-3.06h0Z" fill="#fff"/><path d="M1513.5,1114.313l2.658-1.217.013-.006a1.649,1.649,0,0,1,1.375,3l-2.681,1.233a1.651,1.651,0,1,1-1.381-3l0,0Z" fill="#fff"/><path d="M1522.326,1110.169l2.628-1.29.012-.006a1.638,1.638,0,0,1,1.446,2.939l-2.648,1.307a1.641,1.641,0,0,1-1.453-2.943h0Z" fill="#fff"/><path d="M1531.05,1105.789l2.6-1.356.011-.006a1.627,1.627,0,0,1,1.509,2.883l-2.614,1.373a1.63,1.63,0,1,1-1.516-2.887h0Z" fill="#fff"/><path d="M1539.668,1101.2l2.562-1.414.008-.005a1.617,1.617,0,0,1,1.566,2.829l-2.577,1.429a1.62,1.62,0,1,1-1.572-2.832l0,0Z" fill="#fff"/><path d="M1548.184,1096.422l2.539-1.464.007,0a1.606,1.606,0,0,1,1.607,2.78l-2.55,1.478a1.609,1.609,0,0,1-1.614-2.784l0,0Z" fill="#fff"/><path d="M1556.621,1091.492l2.517-1.5.006,0a1.595,1.595,0,0,1,1.64,2.736l-2.526,1.517a1.6,1.6,0,1,1-1.646-2.74h0Z" fill="#fff"/><path d="M1564.988,1086.434l2.5-1.537.005,0a1.584,1.584,0,0,1,1.665,2.7l-2.5,1.549a1.588,1.588,0,0,1-1.671-2.7h0Z" fill="#fff"/><path d="M1573.294,1081.273l2.485-1.567a1.574,1.574,0,1,1,1.685,2.658l-2.488,1.577a1.577,1.577,0,0,1-1.688-2.664Z" fill="#fff"/><path d="M1581.557,1076.028l2.471-1.587a1.563,1.563,0,0,1,1.694,2.628l-2.473,1.594a1.566,1.566,0,1,1-1.7-2.632Z" fill="#fff"/><path d="M1589.784,1070.722l2.464-1.6a1.552,1.552,0,0,1,1.695,2.6l-2.463,1.608a1.555,1.555,0,1,1-1.7-2.605Z" fill="#fff"/><path d="M1597.991,1065.378l2.46-1.607a1.541,1.541,0,0,1,1.69,2.578l-2.458,1.614a1.545,1.545,0,1,1-1.7-2.582Z" fill="#fff"/><path d="M1606.19,1060.016l2.461-1.609a1.531,1.531,0,0,1,1.678,2.561l-2.456,1.614a1.534,1.534,0,0,1-1.686-2.564Z" fill="#fff"/><path d="M1614.4,1054.656l2.465-1.6a1.52,1.52,0,0,1,1.66,2.547l-2.459,1.608a1.523,1.523,0,0,1-1.67-2.548Z" fill="#fff"/><path d="M1622.621,1049.32l2.474-1.593a1.509,1.509,0,1,1,1.635,2.537l-2.465,1.6a1.513,1.513,0,0,1-1.649-2.537Z" fill="#fff"/><path d="M1630.88,1044.028l2.486-1.576a1.5,1.5,0,1,1,1.6,2.533l-2.476,1.577a1.5,1.5,0,1,1-1.62-2.53Z" fill="#fff"/><path d="M1639.185,1038.8l2.5-1.551a1.488,1.488,0,1,1,1.568,2.53h0l-2.491,1.551,0,0a1.492,1.492,0,1,1-1.577-2.532Z" fill="#fff"/><path d="M1647.556,1033.675l2.526-1.515a1.459,1.459,0,0,1,1.51,2.5l-.006,0-2.505,1.526-.006,0a1.469,1.469,0,0,1-1.527-2.51Z" fill="#fff"/><path d="M1656,1028.668l2.55-1.477a1.427,1.427,0,0,1,1.439,2.465l-.007,0-2.527,1.487-.006,0a1.436,1.436,0,1,1-1.457-2.476Z" fill="#fff"/><path d="M1664.533,1023.8l2.579-1.433a1.395,1.395,0,0,1,1.363,2.434l-.008,0-2.555,1.442-.007,0a1.4,1.4,0,0,1-1.38-2.447Z" fill="#fff"/><path d="M1673.159,1019.082l2.607-1.378a1.362,1.362,0,0,1,1.282,2.4l-.009.005-2.581,1.387-.008,0a1.372,1.372,0,0,1-1.3-2.417Z" fill="#fff"/><path d="M1681.9,1014.567l2.653-1.3a1.33,1.33,0,0,1,1.179,2.385l-.014.007-2.617,1.3-.014.006a1.34,1.34,0,1,1-1.195-2.4Z" fill="#fff"/><path d="M1690.815,1010.366l2.718-1.176a1.3,1.3,0,0,1,1.039,2.379l-.021.009-2.67,1.176-.02.009a1.308,1.308,0,1,1-1.054-2.394Z" fill="#fff"/><path d="M1699.965,1006.641l2.8-1a1.265,1.265,0,0,1,.858,2.381l-.028.011-2.735.995-.027.01a1.275,1.275,0,0,1-.872-2.4Z" fill="#fff"/><path d="M1709.382,1003.583l2.878-.755a1.233,1.233,0,0,1,.634,2.384l-.035.01-2.8.755-.034.009a1.243,1.243,0,1,1-.647-2.4Z" fill="#fff"/><path d="M1719.066,1001.414l2.949-.441a1.2,1.2,0,0,1,.364,2.374l-.044.007-2.861.447-.042.007a1.211,1.211,0,1,1-.374-2.392Z" fill="#fff"/><path d="M1728.955,1000.375l2.987-.058a1.168,1.168,0,0,1,.054,2.336l-.049,0-2.89.075h-.048a1.178,1.178,0,0,1-.062-2.356Z" fill="#fff"/><path d="M1738.915,1000.72l2.964.411a1.136,1.136,0,0,1-.3,2.252l-.053-.007-2.86-.377-.054-.007a1.146,1.146,0,1,1,.3-2.272Z" fill="#fff"/><path d="M1748.693,1002.617l2.863.853a1.1,1.1,0,0,1-.623,2.118l-.047-.014-2.775-.807-.047-.013a1.114,1.114,0,0,1,.622-2.139Z" fill="#fff"/><path d="M1758.07,1005.927l2.708,1.248a1.065,1.065,0,0,1-.88,1.94l-.04-.018-2.643-1.182-.04-.018a1.081,1.081,0,1,1,.884-1.974Z" fill="#fff"/><path d="M1766.887,1010.493l2.52,1.583a1.008,1.008,0,0,1-1.061,1.714l-.032-.02-2.475-1.514-.033-.02a1.025,1.025,0,0,1,1.07-1.749Z" fill="#fff"/><path d="M1775.052,1016.115l2.312,1.867a.95.95,0,0,1-1.185,1.486l-.026-.021-2.282-1.8-.027-.02a.968.968,0,0,1,1.2-1.52Z" fill="#fff"/><path d="M1782.5,1022.633l2.086,2.107a.893.893,0,0,1-1.261,1.264l-.021-.021-2.069-2.041-.021-.021a.91.91,0,0,1,1.279-1.3Z" fill="#fff"/><path d="M1789.19,1029.913l1.851,2.314a.835.835,0,0,1-1.3,1.052l-.017-.021-1.845-2.252-.017-.02a.853.853,0,0,1,1.32-1.081Z" fill="#fff"/><path d="M1795.076,1037.841l1.6,2.491a.778.778,0,0,1-1.3.85l-.014-.02-1.606-2.432-.014-.02a.8.8,0,0,1,1.328-.877Z" fill="#fff"/><path d="M1800.122,1046.324l1.342,2.639a.721.721,0,0,1-1.28.662l-.011-.02-1.353-2.584-.01-.02a.738.738,0,0,1,1.308-.685Z" fill="#fff"/><path d="M1804.28,1055.27l1.067,2.761a.664.664,0,0,1-1.235.486l-.007-.019-1.084-2.71-.008-.019a.681.681,0,0,1,1.264-.506Z" fill="#fff"/><path d="M1807.5,1064.591l.775,2.856a.606.606,0,0,1-1.168.324l-.005-.018-.8-2.809-.006-.019a.624.624,0,0,1,1.2-.34Z" fill="#fff"/><path d="M1809.73,1074.194l.468,2.92a.549.549,0,0,1-1.083.18l0-.017-.5-2.88,0-.017a.566.566,0,1,1,1.116-.192Z" fill="#fff"/><path d="M1810.917,1083.975l.146,2.952a.491.491,0,0,1-.981.055v-.017l-.178-2.917v-.016a.508.508,0,0,1,1.015-.063Z" fill="#fff"/></g><g transform="translate(727 1808)"><path d="M1264.356,1241a36.482,36.482,0,0,1-36.481,36.482c-20.149,0-40.014-15.274-40.014-35.423s19.865-37.541,40.014-37.541A36.482,36.482,0,0,1,1264.356,1241Z" fill="#7d97f4"/><path d="M1221.24,1263.44h0a4.843,4.843,0,0,1-4.792-4.329l-3.289-30.729a4.845,4.845,0,0,1,5.193-5.345l3.288.255a4.845,4.845,0,0,1,4.469,4.83V1258.6A4.844,4.844,0,0,1,1221.24,1263.44Z" fill="#fff" opacity="0.69"/><path d="M1231.681,1227.655v30.975a4.845,4.845,0,0,0,4.788,4.844l.778.01a4.845,4.845,0,0,0,4.9-4.669l1.119-30.985a4.844,4.844,0,0,0-4.841-5.019h-1.9A4.844,4.844,0,0,0,1231.681,1227.655Z" fill="#fff" opacity="0.69"/></g><g transform="translate(727 1808)"><path d="M1341.192,1241a27.8,27.8,0,0,1-27.8,27.8c-15.353,0-30.491-11.639-30.491-26.993s15.138-28.607,30.491-28.607A27.8,27.8,0,0,1,1341.192,1241Z" fill="#7d97f4"/><path d="M1301.874,1229.029v24.764a3.873,3.873,0,0,0,3.827,3.873l.622.007a3.873,3.873,0,0,0,3.916-3.732l.9-24.773a3.873,3.873,0,0,0-3.87-4.012h-1.518A3.873,3.873,0,0,0,1301.874,1229.029Z" fill="#fff" opacity="0.69"/><path d="M1316.771,1228.2l-1.316,25.921a2.077,2.077,0,0,0,3.563,1.553l12.54-12.9a2.077,2.077,0,0,0,.084-2.8l-11.224-13.025A2.077,2.077,0,0,0,1316.771,1228.2Z" fill="#fff" opacity="0.69"/></g><g transform="translate(727 1808)"><path d="M1115.715,1241a27.8,27.8,0,0,0,27.8,27.8c15.353,0,30.491-11.639,30.491-26.993s-15.138-28.607-30.491-28.607A27.8,27.8,0,0,0,1115.715,1241Z" fill="#7d97f4"/><path d="M1155.033,1229.029v24.764a3.873,3.873,0,0,1-3.827,3.873l-.623.007a3.873,3.873,0,0,1-3.916-3.732l-.9-24.773a3.873,3.873,0,0,1,3.871-4.012h1.517A3.873,3.873,0,0,1,1155.033,1229.029Z" fill="#fff" opacity="0.69"/><path d="M1140.135,1228.2l1.316,25.921a2.077,2.077,0,0,1-3.563,1.553l-12.54-12.9a2.077,2.077,0,0,1-.084-2.8l11.224-13.025A2.077,2.077,0,0,1,1140.135,1228.2Z" fill="#fff" opacity="0.69"/></g><path d="M1063.119,1170.415l.63,3.22c.577,2.95,8.663,2.779,14.447,2.779l605.284,2.418c6.219,0,7.5-4.91,7.5-4.91,0-3.165-1.214-6.6-7.387-6.635L1075.7,1164.4C1069,1164.361,1062.45,1166.993,1063.119,1170.415Z" transform="translate(727 1808)" fill="url(#ac)"/><path d="M1261.75,1174.141c-1.041-3-2.318-6.035-3.543-9.085l-549.287-1.985c-9.808-.036-17.528,2.926-16.549,6.348l.919,3.219c.844,2.951,7.925,5.2,16.38,5.2h553.614C1262.7,1176.541,1262.151,1175.3,1261.75,1174.141Z" transform="translate(727 1808)" fill="#7d97f4"/><path d="M1274.728,1171.149a10.438,10.438,0,1,1-10.438-10.438A10.438,10.438,0,0,1,1274.728,1171.149Z" transform="translate(727 1808)" fill="url(#ad)"/><g transform="translate(727 1808)"><path d="M2141.14,1090.759s48.863,27.068,52.905,72.879.337,235.955-97.645,282.754-227.679,36.014-277.323,30.9-77.171-38.856-83.32-62.086-16.08-109.767,36.145-137.68,107.077-70.679,161.888-112.32S2082.532,1055.587,2141.14,1090.759Z" fill="url(#ae)"/><path d="M1787.3,1293.317s13.188.7,14.805,27.829c0,0-30.58,27.414-71.888,33.939-3.1.49,4.335-21.17,5.453-24.1C1740.992,1317.021,1757.744,1308.031,1787.3,1293.317Z" fill="url(#af)"/><path d="M1935.826,1261.414H1908s-85.417-94.335-141.439-103.852c0,0-39,49.779,2.077,142.791,3.3,7.482,12.545,10.806,19.439,6.4a11.136,11.136,0,0,0,4.441-5.294l-3.3-79.417s72.861,63.725,85.525,76.023S1951.775,1302.87,1935.826,1261.414Z" fill="url(#ag)"/><path d="M1666.771,1459.475c11.662-10.219,30.244-21.686,57.069-24.974l9.072,5.549a98.842,98.842,0,0,1-16.353,17.546c-9.713,5.642-24.711,13.282-37.145,14.939C1667.326,1474.145,1665.543,1466.84,1666.771,1459.475Z" fill="url(#ah)"/><path d="M1735.672,1330.981c7.185,2.326,10.345,12.505,28.576,5.774A161.409,161.409,0,0,0,1801.743,1317c.151,1.313.277,2.683.365,4.145,0,0-32.244,30.67-73.553,37.194a4.111,4.111,0,0,1-4.441-5.539A103.8,103.8,0,0,1,1735.672,1330.981Z" fill="#7d97f4"/><path d="M1657.986,1468.2a96.053,96.053,0,0,1,8.785-8.727c-1.228,7.365.555,14.67,12.643,13.06,12.434-1.657,27.432-9.3,37.145-14.939-12.173,10.383-30.7,21.4-54.073,20.755A6.131,6.131,0,0,1,1657.986,1468.2Z" fill="#7d97f4"/><path d="M1934.808,1281.55l-130.325,1.411s-74.425,61.576-87.924,155.469c0,0-2.241,6.906,11.212,8.087,0,0,45-29.388,74.337-81.346,35.974-63.709,107.246-35.031,107.246-35.031,23.417-16.883,56.508-20.322,81.437-25.946Z" fill="url(#ai)"/><path d="M1931.73,1176.567s-14.03,70.311-82.771,98.127l-24.452-2.882-5.77,9.2,57.357,1.828s49.028-19.419,75-72.333C1951.956,1208.758,1966.261,1179.223,1931.73,1176.567Z" fill="url(#aj)"/><path d="M1924.212,1280.4s15.954-43.368,19.383-85.507c0,0-11.672-10.03-18.967-14.358a5.274,5.274,0,0,1-2.06-6.84c5.363-11.111,37.8-54.739,40.229-55.345,13.206-3.3,67.368-29.049,105.514,23.129,16.371,22.393-3.249,91.326-77.52,162.714l-15.323,2.931Z" fill="url(#ak)"/><path d="M1985.687,1204.4s-44.325,52.484-101,60.156c0,0-14.646-13.352-25.536-8.585s-25.824,25.809-25.824,25.809H1906.1s68.8-2.424,103.182-44.145C2006.512,1223.033,1998.227,1214.312,1985.687,1204.4Z" fill="url(#al)"/><path d="M2011.546,1081.539l9.7,32.347a3.555,3.555,0,0,1-1.381,3.961c-4.669,3.2-16.873,9.558-33.615,3.377a5.275,5.275,0,0,1-3.392-4.529l-2.3-28.179Z" fill="url(#am)"/><path d="M1970.683,1027.583s-17.449,29.027-13.958,45.153,27.862,25.93,50.384,11.661l14.156-44.192Z" fill="url(#an)"/><path d="M2005.1,1063.109a1.661,1.661,0,0,1-.836-2.394c1.592-2.695,4.555-8.181,5.363-12.9,0,0,3.729-2.639-10.044-5.27s-34.321-6.753-39.127-18.15c-4.686-11.113,4.939-40.049,23.436-18.2a1.659,1.659,0,0,0,2.629-.1c2.688-3.855,9.852-11.931,20.511-7.729,9.974,3.933,11.406,11.043,11.439,14.658a1.65,1.65,0,0,0,2.031,1.6c4.9-1.171,16.715-2.528,22.811,9.378,5.021,9.807,2.321,15.615-.249,18.513a1.655,1.655,0,0,0,.835,2.712c3.293.844,7.613,3.4,7.545,11.03-.095,10.544-11.9,10.161-15.265,9.836a1.663,1.663,0,0,0-1.449.589c-2.724,3.309-15.033,17.4-28.955,19.667a1.674,1.674,0,0,1-1.857-2.128l5.244-17.889a1.668,1.668,0,0,0-1-2.024Z" fill="url(#ao)"/><path d="M2002.781,1065.721s14.736-11.145,16.254-2.4-13.115,13.371-20.606,10.431Z" fill="url(#ap)"/><path d="M1987.153,1058.281c1.345,1.863,2.1,22.943-2.116,33.4-4.935,1.386-16.523,2.67-31.79-4.753-5.224-4.458-.2-26.54,3.571-34.335.5-.789,1.186-2.265,2.2-2.237,1.52.041,3.578-2.3,5.276-1.632,3,1.175,7.785,7.094,9.46,7.735C1981.522,1059.428,1984.744,1054.944,1987.153,1058.281Z" fill="#fff"/><path d="M2004.549,1058.2a36.335,36.335,0,0,1-5.468,2.03c-.929.282-1.876.495-2.817.712l-1.42.291-1.43.221a40.771,40.771,0,0,1-5.75.452c-.96.041-1.92-.033-2.879-.07a5.408,5.408,0,0,0-2.973.507l-.012.007a.344.344,0,0,0-.148.464.36.36,0,0,0,.081.1,4.175,4.175,0,0,0,1.422.774,4.811,4.811,0,0,0,1.5.274c1.014.026,2.027.087,3.041.031a34.5,34.5,0,0,0,6.036-.682,33.225,33.225,0,0,0,5.8-1.751,24.386,24.386,0,0,0,5.324-2.877.29.29,0,0,0,.063-.4.287.287,0,0,0-.355-.091Z" fill="#fff"/><path d="M2008.485,1072.038a83.957,83.957,0,0,1-5.83,6.424,63.746,63.746,0,0,1-6.45,5.692,33.712,33.712,0,0,1-7.24,4.32,17.27,17.27,0,0,1-3.935,1.175,29.086,29.086,0,0,0-4.111.893l-.011,0a.316.316,0,0,0-.068.571,6.576,6.576,0,0,0,4.548.632,19.323,19.323,0,0,0,4.379-1.349,32.65,32.65,0,0,0,7.6-4.764,54.733,54.733,0,0,0,6.315-6.21c.971-1.107,1.879-2.265,2.767-3.434s1.735-2.365,2.511-3.623a.288.288,0,0,0-.467-.336Z" fill="#fff"/><path d="M1836.994,1285.85,1804.323,1176.9a11.14,11.14,0,0,0-9.911-7.915l-44.111-3.019a6.257,6.257,0,0,0-6.33,8.314l36.524,104.051a9.158,9.158,0,0,0,7.72,6.078l43.438,4.824Z" fill="#bdd0fb"/><path d="M1776.74,1213.822c2.439,4.924,6.651,7.808,9.408,6.443s3.015-6.465.576-11.388-6.652-7.808-9.409-6.443S1774.3,1208.9,1776.74,1213.822Z" fill="url(#aq)"/><path d="M1831.653,1289.228c.07,0,.142,0,.213-.006l92.555-4.678a4.148,4.148,0,1,0-.419-8.285l-92.555,4.678a4.148,4.148,0,0,0,.206,8.291Z" fill="#bdd0fb"/><path d="M1943.595,1195.917a1.022,1.022,0,0,1-1.023-1.02c-.066-19.593,7.468-45.5,7.544-45.763a1.023,1.023,0,1,1,1.964.576c-.075.257-7.526,25.888-7.462,45.181a1.022,1.022,0,0,1-1.02,1.026Z" fill="url(#ar)"/><path d="M1985.686,1205.42a1.024,1.024,0,0,1-.8-1.658c.2-.256,20.286-25.786,27.15-43.182a1.024,1.024,0,0,1,1.9.751c-6.977,17.678-27.244,43.441-27.448,43.7A1.022,1.022,0,0,1,1985.686,1205.42Z" fill="url(#as)"/><path d="M2014.072,1244.834l-3.839-5.427a1.023,1.023,0,0,1,1.671-1.181l2.88,4.071c28.247-12.56,45.749-46.366,45.924-46.709a1.023,1.023,0,0,1,1.823.93c-.18.353-18.316,35.411-47.7,47.991Z" fill="url(#at)"/></g><g transform="translate(727 1808)"><rect width="12" height="129.772" transform="translate(435.199 1459.385) rotate(180)" fill="url(#au)"/><path d="M0,0H105.1a0,0,0,0,1,0,0V4.488a3.323,3.323,0,0,1-3.323,3.323H3.323A3.323,3.323,0,0,1,0,4.488V0A0,0,0,0,1,0,0Z" transform="translate(481.75 1461.888) rotate(180)" fill="url(#av)"/><rect width="132.146" height="37.478" rx="12.905" transform="translate(361.049 1300.536)" fill="url(#aw)"/><path d="M517.788,1243.085s17.831,2.764,37.88,16.166a9.992,9.992,0,0,1,4.41,9.551c-2.4,19.016-12.271,80.563-44.819,140.677a15.137,15.137,0,0,0-1.452,10.384l5.655,26.316,10.486,9.832H502.937l-17.984-48.669,7.69-2.432a14.549,14.549,0,0,0,10.162-13.622l.9-52.208c-.77-23.261,14.263-39.309,14.263-39.309l-43.138-2.1Z" fill="url(#ax)"/><path d="M540.5,1460.759c2.459,3.219-26.476,7.468-41.095.426,0,0-20.265-35.259-20.265-53.412,0,0,1.608-3.7,13.507-2.863,0,0,6.8,41.748,13.989,46.425s20.1.473,20.1.473S536.866,1456.009,540.5,1460.759Z" fill="url(#ay)"/><path d="M480.29,1300.536c.23-.4,46.444-5.557,46.444-5.557s-1.513,14.052,3.214,33.4,72.58,103.148,72.58,103.148l-7.115,22.554c22,7.663,43.636,8.888,64.928,3.906l-44.092-26.46s-41.264-140.622-66.54-165.708l-46.325-16.027Z" fill="url(#az)"/><path d="M376.648,1218.713s-26.627,39.6-28.811,57.668,7.293,25.406,35.231,26.616,102.52,1.191,102.52,1.191l63.655-54.4s-46.389-16.553-58.45-21.234S376.648,1218.713,376.648,1218.713Z" fill="url(#ba)"/><path d="M598.1,1446.481s-7.66,7.419-2.486,15.673c0,0,60.677,10.755,77.152,5.875,0,0-3.421-7.807-21.972-16.694l1.369,1.051a2.216,2.216,0,0,1-1.464,3.975C638.477,1455.664,613.179,1453.425,598.1,1446.481Z" fill="url(#bb)"/><path d="M448.655,1213.47s31.007-29.524,46.269-49.08a41.49,41.49,0,0,0,7.026-37.341c-6.968-23.476-19.352-47.791-20.481-51.575-1.731-5.8-36.5-5.559-36.5-5.559s-68.412,44.4-95.292,119.612l30.188,9.4s17.862-29.968,35.511-49.021c0,0-30.539,40.344-31.615,56.86Z" fill="url(#bc)"/><path d="M485.673,1043.056c-.363,1.2-9.437,31.287-10.147,31.912s-19.9,1.656-28.933-4.517l15.325-32.08Z" fill="url(#bd)"/><path d="M470.768,979.872s16.381,6.917,27.52,30.589,2.82,34.6-7.628,36.1-26.073,1.272-42.6-14.02S449.472,971.673,470.768,979.872Z" fill="url(#be)"/><path d="M459.169,1019.906s-12.359-34.633,18.346-35.043l7.226,5.05s11.266-19.2-7.226-28.367-46.082-1.005-53.951,23.907-3.263,41,9.828,52.918,18.487-1.6,18.487-1.6-7.129-11.148-4.227-17.112,9.6,1.234,9.6,1.234Z" fill="url(#bf)"/><path d="M511.822,1215.662l-22.78-21.957-31.515,13.313s-31.369,4.86-49.322,0l-17.954-4.86-40.572-12.631-6.372,18.008a10.843,10.843,0,0,0,3.961,12.457,71.68,71.68,0,0,0,10.247,6.383c5.343,2.337,131.709-1.617,131.709-1.617Z" fill="url(#bg)"/><path d="M425.971,989.357c3.948-4.033,1.382-10.846-4.2-11.716-18-2.807-45.444.058-56.972,38.591-12.985,43.4-21.438,65.106-30.113,68.914-5.7,2.5-6.063,10.41-.387,12.958,4.2,1.884,10.2,2.553,18.8.661C419.439,1084.172,402.814,1013.014,425.971,989.357Z" fill="url(#bh)"/><path d="M471.606,1017c-1.1,1.907.481,21.835,5.733,31.2,4.954.743,16.371.635,30.409-8.089,4.592-4.79-2.724-25-7.251-31.913-.573-.686-1.4-2-2.386-1.856-1.474.212-3.734-1.756-5.313-.936-2.785,1.446-6.794,7.563-8.354,8.356C477.211,1017.44,473.583,1013.586,471.606,1017Z" fill="#fff"/><path d="M454.672,1018.905a36.251,36.251,0,0,0,5.543,1.289c.935.159,1.88.252,2.819.35l1.414.113,1.416.045a41.188,41.188,0,0,0,5.643-.229c.94-.07,1.865-.249,2.794-.392a5.452,5.452,0,0,1,2.949.138l.013.005a.324.324,0,0,1,.2.42.349.349,0,0,1-.068.107,4.143,4.143,0,0,1-1.3.89,4.832,4.832,0,0,1-1.429.428c-.984.14-1.963.313-2.956.375a34.738,34.738,0,0,1-5.947.044,33.361,33.361,0,0,1-5.839-.987,24.232,24.232,0,0,1-5.5-2.1.27.27,0,0,1-.105-.374.288.288,0,0,1,.335-.126Z" fill="#fff"/><path d="M452.364,1032.377a80.846,80.846,0,0,0,6.379,5.383,61.853,61.853,0,0,0,6.9,4.624,33.241,33.241,0,0,0,7.519,3.244,17.342,17.342,0,0,0,3.958.658,29.334,29.334,0,0,1,4.1.374l.011,0a.3.3,0,0,1,.244.347.3.3,0,0,1-.116.182,6.633,6.633,0,0,1-4.355,1.112,19.414,19.414,0,0,1-4.409-.772,32.142,32.142,0,0,1-7.915-3.621,52.757,52.757,0,0,1-6.827-5.127c-1.067-.931-2.078-1.919-3.07-2.918s-1.949-2.028-2.843-3.124a.27.27,0,0,1,.047-.386.287.287,0,0,1,.371.017Z" fill="#fff"/><path d="M425.612,1226.014c.1.005.2.008.3.007l132.148-.144a5.915,5.915,0,1,0-.013-11.83l-132.148.145a5.915,5.915,0,0,0-.291,11.822Z" fill="url(#bi)"/><path d="M676.859,1106.032H566.806a20.976,20.976,0,0,0-18.972,12.028l-50.877,107.883H633.724a12.745,12.745,0,0,0,11.855-8.062l39.454-99.83A8.788,8.788,0,0,0,676.859,1106.032Z" fill="url(#bi)"/><path d="M599.325,1161.347c-2.385,7.409-.623,14.6,3.936,16.072s10.186-3.35,12.571-10.759.623-14.606-3.935-16.073S601.71,1153.937,599.325,1161.347Z" fill="url(#bk)"/><path d="M240.912,1230.842a4.877,4.877,0,0,1,1.147-4.225,5.6,5.6,0,0,1,4.207-1.859H797.715a6.391,6.391,0,0,1,5.288,2.713,5.569,5.569,0,0,1,.41,5.638l-5.976,12.124a8.42,8.42,0,0,1-7.6,4.554H250.05a6.244,6.244,0,0,1-6.22-4.811Z" fill="url(#ae)"/><path d="M766.807,1486.366a4.74,4.74,0,0,0,1.91-.4,4.994,4.994,0,0,0,2.533-6.5l-101.494-241.4a4.8,4.8,0,0,0-6.358-2.592,5,5,0,0,0-2.533,6.505l101.494,241.4A4.84,4.84,0,0,0,766.807,1486.366Z" fill="url(#bm)"/><path d="M652.47,1486.366a4.839,4.839,0,0,0,4.448-3l101.494-241.4a5,5,0,0,0-2.534-6.505,4.8,4.8,0,0,0-6.357,2.592l-101.494,241.4a4.994,4.994,0,0,0,2.533,6.5A4.737,4.737,0,0,0,652.47,1486.366Z" fill="url(#bn)"/><path d="M367.136,1486.366a4.741,4.741,0,0,0,1.91-.4,4.994,4.994,0,0,0,2.533-6.5l-101.493-241.4a4.8,4.8,0,0,0-6.358-2.592,5,5,0,0,0-2.533,6.505l101.493,241.4A4.84,4.84,0,0,0,367.136,1486.366Z" fill="url(#bo)"/><path d="M252.8,1486.366a4.839,4.839,0,0,0,4.448-3l101.494-241.4a5,5,0,0,0-2.533-6.505,4.8,4.8,0,0,0-6.358,2.592l-101.494,241.4a4.994,4.994,0,0,0,2.533,6.5A4.737,4.737,0,0,0,252.8,1486.366Z" fill="url(#bp)"/></g><g transform="translate(727 1808)"><path d="M743.328,860.471a2.669,2.669,0,0,1-.295-.017l-21.354-2.59a2.453,2.453,0,0,1-2.1-1.92l-3.648-17a78.978,78.978,0,0,1-21.386-12.067L678.1,832.561a2.456,2.456,0,0,1-2.732-.806L662.1,814.825a2.454,2.454,0,0,1-.129-2.846l9.445-14.606a78.916,78.916,0,0,1-6.606-23.651l-15.632-7.6a2.454,2.454,0,0,1-1.362-2.5l2.589-21.355h0a2.455,2.455,0,0,1,1.921-2.1l17-3.647a78.982,78.982,0,0,1,12.067-21.387l-5.681-16.44a2.454,2.454,0,0,1,.806-2.732l16.93-13.269a2.454,2.454,0,0,1,2.846-.129L710.9,692a78.973,78.973,0,0,1,23.651-6.606l7.6-15.632a2.455,2.455,0,0,1,2.5-1.362l21.353,2.589a2.453,2.453,0,0,1,2.1,1.921l3.647,17a78.937,78.937,0,0,1,21.387,12.067l16.44-5.681a2.456,2.456,0,0,1,2.732.806l13.27,16.931a2.456,2.456,0,0,1,.129,2.844l-9.446,14.607a78.982,78.982,0,0,1,6.606,23.651l15.632,7.6a2.454,2.454,0,0,1,1.362,2.5l-2.589,21.355a2.453,2.453,0,0,1-1.921,2.1l-17,3.648A78.98,78.98,0,0,1,806.3,813.729l5.681,16.44a2.456,2.456,0,0,1-.8,2.731L794.24,846.17a2.456,2.456,0,0,1-2.844.13l-14.607-9.446a78.97,78.97,0,0,1-23.651,6.6l-7.6,15.632A2.458,2.458,0,0,1,743.328,860.471Zm-48.406-35.795.422.338a77.018,77.018,0,0,0,21.766,12.281l.508.186,3.873,18.052a.5.5,0,0,0,.423.385l21.355,2.589a.491.491,0,0,0,.5-.274l8.075-16.6.538-.059a77,77,0,0,0,24.07-6.723l.491-.227,15.512,10.031a.5.5,0,0,0,.573-.026l16.93-13.268a.5.5,0,0,0,.162-.551l-6.032-17.46.338-.422a77.068,77.068,0,0,0,12.281-21.766l.186-.507,18.051-3.874a.494.494,0,0,0,.386-.423L837.924,765a.494.494,0,0,0-.274-.5l-16.6-8.076-.06-.537a77.013,77.013,0,0,0-6.723-24.071l-.228-.49,10.032-15.513a.5.5,0,0,0-.026-.573l-13.269-16.93a.49.49,0,0,0-.549-.162l-17.462,6.033-.421-.338a77.031,77.031,0,0,0-21.766-12.282l-.508-.186-3.874-18.051a.492.492,0,0,0-.423-.386l-21.354-2.59a.5.5,0,0,0-.5.274l-8.076,16.6-.537.06a77.006,77.006,0,0,0-24.071,6.723l-.491.228L695.227,684.2a.491.491,0,0,0-.573.026L677.723,697.5a.494.494,0,0,0-.161.55l6.033,17.461-.339.421a77.048,77.048,0,0,0-12.281,21.766l-.186.508-18.051,3.874a.494.494,0,0,0-.387.423h0l-2.589,21.354a.494.494,0,0,0,.274.5l16.6,8.076.059.538a77,77,0,0,0,6.723,24.07l.228.49-10.032,15.513a.5.5,0,0,0,.026.574l13.269,16.929a.493.493,0,0,0,.55.163Zm-43.543-82.3h0Zm92.884,74.682a53.382,53.382,0,0,1-6.4-.387A52.818,52.818,0,0,1,711.8,805.965a.98.98,0,0,1,1.2-1.547,50.839,50.839,0,1,0-19.5-35.53.98.98,0,1,1-1.951.179,52.889,52.889,0,1,1,52.705,48Z" fill="url(#bq)"/><path d="M743.82,784.508a20.081,20.081,0,1,1,18.759-12.858A19.991,19.991,0,0,1,743.82,784.508Zm.043-38.2a18.125,18.125,0,1,0,6.5,1.214A18.151,18.151,0,0,0,743.863,746.306Z" fill="url(#br)"/><path d="M896.842,722.747a1.687,1.687,0,0,1-1.29-.6l-5.224-6.176a38.508,38.508,0,0,1-11.414-.255l-5.495,5.928a1.691,1.691,0,0,1-1.92.4l-9.465-4.174a1.689,1.689,0,0,1-1-1.687l.672-8.054a38.5,38.5,0,0,1-7.884-8.257l-8.083.307A1.7,1.7,0,0,1,844.1,699.1l-3.741-9.644a1.689,1.689,0,0,1,.483-1.9l6.176-5.224a38.465,38.465,0,0,1,.256-11.413l-5.929-5.495a1.689,1.689,0,0,1-.4-1.92l4.174-9.466a1.682,1.682,0,0,1,1.687-1l8.054.673a38.5,38.5,0,0,1,8.257-7.885l-.307-8.082a1.691,1.691,0,0,1,1.076-1.639l9.646-3.741a1.691,1.691,0,0,1,1.9.484l5.223,6.176a38.477,38.477,0,0,1,11.414.255l5.494-5.929a1.687,1.687,0,0,1,1.92-.4l9.466,4.175a1.69,1.69,0,0,1,1,1.684l-.673,8.057a38.473,38.473,0,0,1,7.885,8.257l8.082-.307a1.713,1.713,0,0,1,1.639,1.076l3.741,9.646a1.688,1.688,0,0,1-.484,1.9l-6.175,5.223a38.473,38.473,0,0,1-.256,11.414l5.929,5.495a1.687,1.687,0,0,1,.4,1.919l-4.175,9.467a1.693,1.693,0,0,1-1.686,1l-8.055-.672a38.487,38.487,0,0,1-8.256,7.884l.307,8.083a1.69,1.69,0,0,1-1.078,1.639l-9.644,3.74A1.689,1.689,0,0,1,896.842,722.747Zm-5.713-8.861,5.794,6.851,9.285-3.6-.34-8.966.446-.3a36.549,36.549,0,0,0,8.574-8.188l.325-.432,8.936.746,4.019-9.111-6.576-6.1.1-.531a36.543,36.543,0,0,0,.265-11.853l-.075-.536,6.85-5.794-3.6-9.285-8.967.341-.305-.447a36.524,36.524,0,0,0-8.187-8.574l-.432-.325.747-8.936-9.113-4.019-6.095,6.577-.532-.1a36.565,36.565,0,0,0-11.852-.265l-.536.076-5.794-6.851-9.285,3.6.34,8.966-.446.306a36.546,36.546,0,0,0-8.574,8.187l-.326.432-8.935-.746-4.019,9.112,6.576,6.095-.1.532a36.536,36.536,0,0,0-.265,11.852l.075.536-6.85,5.794,3.6,9.285,8.966-.34.3.446a36.53,36.53,0,0,0,8.188,8.574l.432.325L863,716.155l9.113,4.018,6.095-6.576.531.1a36.517,36.517,0,0,0,11.853.265ZM846.916,654.83v0ZM885.7,703.394a26.035,26.035,0,0,1-21.168-10.961.98.98,0,1,1,1.6-1.131,23.99,23.99,0,1,0-2.369-23.544,24.216,24.216,0,0,0-1.557,4.864.98.98,0,1,1-1.919-.4,26.116,26.116,0,0,1,1.683-5.26,25.926,25.926,0,1,1,23.73,36.427Z" fill="url(#bs)"/></g></g></svg>