<svg xmlns="http://www.w3.org/2000/svg" xmlns:xlink="http://www.w3.org/1999/xlink" width="828.765" height="773.254" viewBox="0 0 828.765 773.254"><defs><linearGradient id="a" x1="0.835" y1="-0.575" x2="-0.404" y2="3.986" gradientUnits="objectBoundingBox"><stop offset="0" stop-color="#09005d"/><stop offset="1" stop-color="#1a0f91"/></linearGradient><linearGradient id="b" x1="1.063" y1="-0.858" x2="0.303" y2="0.97" xlink:href="#a"/><linearGradient id="c" y1="0.5" x2="1" y2="0.5" gradientUnits="objectBoundingBox"><stop offset="0" stop-color="#ff928e"/><stop offset="1" stop-color="#fe7062"/></linearGradient><linearGradient id="d" x1="0.934" y1="-7.202" x2="0.463" y2="1.376" xlink:href="#a"/><linearGradient id="e" x1="0.663" y1="-6.507" x2="0.543" y2="-1.225" xlink:href="#c"/><linearGradient id="f" x1="0.736" y1="-4.925" x2="0.466" y2="1.285" gradientUnits="objectBoundingBox"><stop offset="0" stop-color="#4f52ff"/><stop offset="1" stop-color="#4042e2"/></linearGradient><linearGradient id="g" x1="116.352" y1="0.238" x2="115.517" y2="0.678" gradientUnits="objectBoundingBox"><stop offset="0" stop-color="#febbba"/><stop offset="1" stop-color="#ff928e"/></linearGradient><linearGradient id="h" x1="-133.623" y1="-142.622" x2="-133.813" y2="-138.901" xlink:href="#a"/><linearGradient id="i" x1="138.256" y1="0.225" x2="141.659" y2="-1.251" xlink:href="#g"/><linearGradient id="j" x1="-120.709" y1="-164.268" x2="-120.93" y2="-161.159" xlink:href="#a"/><linearGradient id="k" x1="35.605" y1="57.775" x2="36.364" y2="52.011" xlink:href="#f"/><linearGradient id="l" x1="-79.421" y1="-7.302" x2="-79.103" y2="-6.556" xlink:href="#a"/><linearGradient id="m" x1="2.572" y1="-3.309" x2="1.35" y2="-1.022" xlink:href="#f"/><linearGradient id="n" x1="-69.405" y1="0.5" x2="-68.405" y2="0.5" xlink:href="#g"/><linearGradient id="o" x1="-331.992" y1="-18.262" x2="-331.809" y2="-19.342" xlink:href="#g"/><linearGradient id="p" x1="-357.34" y1="-71.558" x2="-355.784" y2="-73.786" xlink:href="#g"/><linearGradient id="q" x1="-281.515" y1="-66.828" x2="-280.902" y2="-65.394" xlink:href="#a"/><linearGradient id="r" x1="-1377.388" y1="-227.12" x2="-1371.4" y2="-234.17" xlink:href="#g"/><linearGradient id="s" x1="-98.528" y1="-42.496" x2="-99.268" y2="-40.059" xlink:href="#a"/><linearGradient id="t" x1="53.612" y1="0.565" x2="58.686" y2="-0.107" xlink:href="#a"/><linearGradient id="u" x1="-763.619" y1="-0.304" x2="-765.459" y2="1.583" xlink:href="#f"/><linearGradient id="v" x1="0" y1="0.5" x2="1" y2="0.5" xlink:href="#a"/><linearGradient id="w" x1="0.266" y1="-0.555" x2="1.073" y2="3.364" xlink:href="#g"/><linearGradient id="y" x1="0.262" y1="-1.081" x2="0.822" y2="2.525" xlink:href="#g"/><linearGradient id="z" x1="1.158" y1="-0.81" x2="-0.045" y2="1.544" xlink:href="#f"/><linearGradient id="aa" x1="0.836" y1="-0.304" x2="0.091" y2="1.558" xlink:href="#f"/><linearGradient id="ab" x1="0" y1="0.5" x2="1" y2="0.5" xlink:href="#g"/><linearGradient id="ae" x1="1.103" y1="-0.458" x2="-1.2" y2="3.981" xlink:href="#g"/><linearGradient id="af" x1="0.619" y1="0.82" x2="0.308" y2="-0.114" xlink:href="#g"/><linearGradient id="ag" x1="0.39" y1="-0.467" x2="0.567" y2="0.954" xlink:href="#a"/><linearGradient id="ah" x1="1.286" y1="2.058" x2="-0.186" y2="-0.895" xlink:href="#g"/><linearGradient id="ai" x1="1.325" y1="-0.956" x2="-0.235" y2="2.067" xlink:href="#g"/><linearGradient id="aj" x1="-80.931" y1="-37.811" x2="-81.671" y2="-35.374" xlink:href="#a"/><linearGradient id="ak" x1="-62.707" y1="0.134" x2="-63.107" y2="0.8" xlink:href="#a"/><linearGradient id="al" x1="0" y1="0.5" x2="1" y2="0.5" xlink:href="#f"/></defs><g transform="translate(-2168.882 -3808.386)"><g transform="translate(1929 3621)"><path d="M1059.251,191.5c.77-3.276-3.839-5.453-6.661-3.165-28.654,23.236-97.5,92.818-80.345,214.418,21.528,152.565-15.277,208.235-61.09,242.193,0,0,62.916-15.969,102.5-72.458C1110.843,433.792,1045.568,249.745,1059.251,191.5Z" fill="#bdd0fb"/><path d="M1037.444,239.149c-3.584,16.985-6.779,34.021-9.248,51.134q-3.859,25.647-5.893,51.443c-1.273,17.19-2.172,34.4-2.223,51.612-.141,17.214.575,34.414,1.363,51.68.677,17.261,1.472,34.646.208,52.154-1.242,17.473-4.92,35.1-12.218,51.62-1.825,4.118-3.743,8.223-5.923,12.19-2.1,4-4.4,7.927-6.778,11.814a186.458,186.458,0,0,1-16.254,22.359,205.026,205.026,0,0,1-42.8,37.456,4.284,4.284,0,0,1-5.418-.616,3.036,3.036,0,0,1,.623-4.617l.011-.008c3.828-2.689,7.616-5.412,11.25-8.271,1.843-1.405,3.611-2.877,5.41-4.321,1.734-1.5,3.536-2.943,5.214-4.488a186.016,186.016,0,0,0,46.7-64.068,150.806,150.806,0,0,0,8.1-24.328,166.019,166.019,0,0,0,3.909-25.2c1.378-16.994.755-34.207.223-51.471-.507-17.268-.879-34.624-.424-51.966q.3-13,1.143-25.992c.251-4.329.6-8.654.939-12.978q.582-6.481,1.259-12.955,2.79-25.887,7.424-51.568c3.189-17.1,6.9-34.114,11.371-50.979a1.051,1.051,0,0,1,1.242-.673A.908.908,0,0,1,1037.444,239.149Z" fill="#fff" style="mix-blend-mode:soft-light;isolation:isolate"/></g><g transform="translate(1929 3621)"><path d="M985.022,556.675a7.213,7.213,0,0,0,11.805-2.01c11.663-25.747,38.053-101.524-5.532-188.823-36.806-73.72-49.758-117.192-54.27-137.334a4.523,4.523,0,0,0-8.553-.831C909.034,271.735,857.71,421.6,985.022,556.675Z" fill="#91b3fa"/><path d="M991.4,553.958a1.954,1.954,0,0,0,.385.031,2,2,0,0,0,1.969-2.03c-.019-1.252-2.456-126.4-49-231.212a2,2,0,1,0-3.656,1.623c46.206,104.052,48.638,228.407,48.658,229.65A2,2,0,0,0,991.4,553.958Z" fill="#fff" style="mix-blend-mode:soft-light;isolation:isolate"/></g><g transform="translate(1929 3621)"><path d="M554.361,758.667,538.225,903.385h187.21L701.05,758.667Z" fill="url(#a)"/><path d="M239.882,402.113V733.555a50.279,50.279,0,0,0,48.984,50.265c121.058,3.122,544.463,10.691,659.7,8.992a36.995,36.995,0,0,0,36.423-35.942c2.222-77,5.831-262.154-7.524-348.114a38.072,38.072,0,0,0-36.4-32.225C839.633,373.286,390.8,362.983,275.61,365.569A36.547,36.547,0,0,0,239.882,402.113Z" fill="url(#b)"/><path d="M260.679,400.5V715.392a29.132,29.132,0,0,0,28.7,29.129L931.99,752.46a28.351,28.351,0,0,0,28.775-28.243l1.075-312.079a20.735,20.735,0,0,0-20.23-20.806L283.692,378.041A22.466,22.466,0,0,0,260.679,400.5Z" fill="url(#c)"/><path d="M965.6,765.461h-.017L260.662,753.45a.987.987,0,0,1,.017-1.973h.017l704.924,12.01a.987.987,0,0,1-.017,1.974Z" fill="#91b3fa"/><path d="M765.76,932.995H491.765c-7.443,0-13.033-5.3-11.594-10.991l3.516-13.905c1.057-4.181,5.658-7.251,11.122-7.422l264.14-8.242c5.708-.178,10.763,2.852,12.006,7.2l6.338,22.146C778.94,927.533,773.323,932.995,765.76,932.995Z" fill="url(#d)"/><path d="M639.261,904.537a.987.987,0,0,1-.014-1.973l11.319-.165a1,1,0,0,1,1,.972.987.987,0,0,1-.973,1l-11.319.165Z" fill="#fff"/><path d="M490.316,925.423a.929.929,0,0,1-.157-.013.987.987,0,0,1-.819-1.129l1.615-10.113a11.376,11.376,0,0,1,11.085-9.6l120.052-1.755a1.008,1.008,0,0,1,1,.973.988.988,0,0,1-.973,1l-120.052,1.755a9.4,9.4,0,0,0-9.166,7.934l-1.614,10.113A.987.987,0,0,1,490.316,925.423Z" fill="#91b3fa"/><path d="M961.752,437.861l.088-25.723a20.735,20.735,0,0,0-20.23-20.806L283.822,378.041A22.355,22.355,0,0,0,260.94,400.5v37.361Z" fill="url(#e)"/><circle cx="9.792" cy="9.792" r="9.792" transform="translate(286.687 407.948)" fill="#fff" opacity="0.49"/><circle cx="9.792" cy="9.792" r="9.792" transform="translate(320.256 407.948)" fill="#fff" opacity="0.49"/><circle cx="9.792" cy="9.792" r="9.792" transform="translate(355.395 407.948)" fill="#fff" opacity="0.49"/></g><g transform="translate(1929 3621)"><path d="M979.046,853.025H683.153V795.976H979.046C972.713,795.977,972.713,853.025,979.046,853.025Z" fill="#bdd0fb"/><path d="M683.153,838.749V812.641c0-9.2,5.848-16.664,13.061-16.664H977.8a10.088,10.088,0,0,0,10.271-9.894h0a3.065,3.065,0,0,0-3.121-3.006H677.2c-7.058,0-18.263,10.689-18.263,23.874v36.464c0,12.431,10.878,22.51,17.532,22.51H983.329a4.656,4.656,0,0,0,4.74-4.566h0a8.5,8.5,0,0,0-8.651-8.334H694.342C688.163,853.025,683.153,846.634,683.153,838.749Z" fill="#7d97f4"/><path d="M968.8,808.682H691.359a1,1,0,0,1,0-2H968.8a1,1,0,0,1,0,2Z" fill="#fff"/><path d="M968.8,817.149H691.359a1,1,0,0,1,0-2H968.8a1,1,0,0,1,0,2Z" fill="#fff"/><path d="M968.8,825.618H691.359a1,1,0,0,1,0-2H968.8a1,1,0,0,1,0,2Z" fill="#fff"/><path d="M968.8,834.085H691.359a1,1,0,0,1,0-2H968.8a1,1,0,0,1,0,2Z" fill="#fff"/><path d="M968.8,842.554H691.359a1,1,0,0,1,0-2H968.8a1,1,0,0,1,0,2Z" fill="#fff"/><rect width="502.452" height="95.324" rx="21.391" transform="translate(1068.647 960.64) rotate(180)" fill="url(#f)"/><rect width="46.392" height="73.413" rx="7.242" transform="translate(1024.017 949.685) rotate(180)" fill="#7d97f4"/><rect width="17.407" height="73.413" rx="5.89" transform="translate(970.801 949.685) rotate(180)" fill="#7d97f4"/></g><g transform="translate(1929 3621)"><path d="M731.587,847.734c.115-.044,61.559-107.647,69.861-117.773a6.437,6.437,0,0,1,5.747-2.31l17.15,2.044,20.147,43.586-33.565-19.548c3.321,22.971-39.8,57.107-54.586,69.564a3.4,3.4,0,0,0-.269,4.947l5.9,6.18a67.808,67.808,0,0,1-33.5,19.051Z" fill="url(#g)"/><path d="M758.561,831.089s3.768,1.217,5.044,4.573a3.839,3.839,0,0,1-1.444,4.424c-6.205,4.446-26.67,18.8-36.115,21.607a1.068,1.068,0,0,1-1.336-1.259c.485-2.194,2.052-6.575,7.1-12.989l-.453.917a1.312,1.312,0,0,0,1.816,1.731C739.493,846.528,752.359,838.723,758.561,831.089Z" fill="url(#h)"/><path d="M755.52,874.143c.1-.066,9.322-22.277,9.425-22.343,8.452-51.461,29.074-95.534,35.156-107.131a6.434,6.434,0,0,1,5.16-3.425l17.209-1.469,28.551,38.607-36.827-12.351c7.9,21.823-27.417,63.98-39.378,79.171a3.4,3.4,0,0,0,.738,4.9l7.032,4.858A67.8,67.8,0,0,1,753.635,880.4Z" fill="url(#i)"/><path d="M778.567,852.384s3.936.429,5.865,3.457a3.841,3.841,0,0,1-.519,4.626c-5.176,5.608-22.314,23.8-30.994,28.468a1.068,1.068,0,0,1-1.564-.962c.031-2.247.679-6.855,4.328-14.158l-.259.989a1.313,1.313,0,0,0,2.13,1.328C763.018,871.362,774.038,861.115,778.567,852.384Z" fill="url(#j)"/><path d="M903.022,731.644s15.567,23.154,16.844,33.717-4.3,14.214-20.6,15.561c-48.488,4.009-72.391-10.523-72.391-10.523C823.56,749.25,821.2,743.87,793.5,732.371c0,0,35.038,2.781,42.09.045S903.022,731.644,903.022,731.644Z" fill="url(#k)"/><path d="M834.391,612.612s15.947-18.867,32.9,4.281c3.07,4.193,14.863.734,19.187,9.509a11.139,11.139,0,0,0,12.02,6.189c12.371-2.282,32.591-2.474,42.574,16.912,7.621,14.8,1.738,23.457-5.88,28.394a12.487,12.487,0,0,0-4.208,16.733c3.245,5.51,3.855,12.972-4.524,21.952-18.777,20.125-55.946-12.771-55.946-12.771L841,634.074Z" fill="url(#l)"/><path d="M860.921,728.578s-18.129-17.262-27.053-28.7a24.26,24.26,0,0,1-4.107-21.832c4.074-13.726,11.314-27.942,11.974-30.155,1.012-3.392,21.339-3.25,21.339-3.25s40,25.959,55.715,69.933l-17.65,5.495s-10.443-17.521-20.762-28.661c0,0,17.855,23.588,18.484,33.245Z" fill="url(#m)"/><path d="M826.38,735.39,840,720.57l15.731,4.236s18.341,2.841,28.838,0l10.5-2.841,23.721-7.386,3.726,10.529a6.341,6.341,0,0,1-2.316,7.284,41.813,41.813,0,0,1-5.991,3.731c-3.124,1.367-71.961.433-71.961.433Z" fill="url(#n)"/><path d="M849.1,620.206l13.662,25.4c-.9,5.546-14.869,5.7-17.027,2.391a3.266,3.266,0,0,1-.428-1.12l-8.173-16.975c-.351-1.655,4.187-7.233,5.68-8.028l5.431-2.89C850.34,617.875,841.615,617.788,849.1,620.206Z" fill="url(#o)"/><path d="M835.723,600.405s-6.913,5.315-9.26,17.928,2.956,16.766,8.1,16.181,12.528-2.632,18.471-11.939S844.808,593.872,835.723,600.405Z" fill="url(#p)"/><path d="M846.194,617.959s1.566-17.965-13.053-14.349l-2.8,3.293s-7.728-7.712-.093-14.355,18.842-5.738,25.668,5.105,9.533,18.587,4.8,25.867-8.969,1.538-8.969,1.538,2-6.174-.119-8.644-4.4,1.777-4.4,1.777Z" fill="url(#q)"/><path d="M848.307,619.361s.75-9.239,5.587-6.9-1.169,8.659-3.6,10.834Z" fill="url(#r)"/><path d="M871.47,741.256c-.048,0-.1,0-.144,0l-62.654-.068a2.8,2.8,0,1,1,.006-5.609l62.654.069a2.8,2.8,0,0,1,.138,5.6Z" fill="url(#s)"/><path d="M752.348,684.37h52.179a9.945,9.945,0,0,1,8.995,5.7l24.122,51.149H772.8a6.042,6.042,0,0,1-5.621-3.822l-18.706-47.331A4.167,4.167,0,0,1,752.348,684.37Z" fill="url(#t)"/><path d="M789.109,710.6c1.131,3.513.295,6.925-1.866,7.62s-4.83-1.588-5.96-5.1-.3-6.925,1.865-7.62S787.978,707.083,789.109,710.6Z" fill="url(#u)"/></g><g transform="translate(1929 3621)"><path d="M374.461,248.449c.015-.423.028-.81.039-1.146a3.2,3.2,0,0,0-1.06-2.489c-4.135-3.713-19.622-16.449-41.508-20.416a2.723,2.723,0,0,0-2.776,1.161,57.937,57.937,0,0,1,7.563,1.552C347.537,229.953,363.267,237.515,374.461,248.449Z" fill="#7d97f4"/><path d="M336.719,227.111a57.937,57.937,0,0,0-7.563-1.552,2.759,2.759,0,0,0-.071,3.035,18.806,18.806,0,0,0,1.328,1.876c3.425,4.289,31.107,32.691,31.107,32.691s8.789,1.072,11.475-.485c.871-.505,1.3-9.627,1.466-14.227C363.267,237.515,347.537,229.953,336.719,227.111Z" fill="url(#v)"/><path d="M373.408,277.948V261.032a3.305,3.305,0,0,0-2.274-3.158,12.971,12.971,0,0,0-8.262-.2,4.773,4.773,0,0,0-3.026,4.112l-1.261,15.8Z" fill="url(#w)"/><path d="M306.319,262.969a3.429,3.429,0,0,0-1.1-1.64c-3.55.7-10.945,2.658-26.1,8.007-17.565,6.2-22.706,11.617-24.187,14.513,7.526,2.2,24.63,5.573,49.166.778l4.847-2.273S308.615,270.533,306.319,262.969Z" fill="url(#v)"/><path d="M279.129,269.336c15.15-5.349,22.545-7.306,26.1-8.007a3.426,3.426,0,0,0-2.9-.727c-8.723,1.815-35.081,8.019-48.855,19.186a2.211,2.211,0,0,0,.719,3.836c.238.074.49.149.751.225C256.423,280.953,261.564,275.538,279.129,269.336Z" fill="#7d97f4"/><path d="M318.033,292.571,307.71,280.2a3.827,3.827,0,0,0-4.131-1.192,14.117,14.117,0,0,0-5.972,3.972,3.506,3.506,0,0,0-.515,3.974l7.51,14.554Z" fill="url(#y)"/><path d="M356.324,272.059s12.6-2.419,19.588,0c0,0,9.213,55.293,7.629,73.072l-27.217,5.532S355.55,288.365,356.324,272.059Z" fill="url(#z)"/><path d="M468.03,368.938s-89.005,5-125.13,2.505a10,10,0,0,1-8.262-5.511c-7.743-15.5-30.962-62.012-33-66.451,0,0,9.431-7.879,16.394-8.967,0,0,32.966,36.674,34.344,55.384,0,0,76.341-21.956,83.881-21.748s30.662,10.525,30.662,10.525Z" fill="url(#aa)"/><path d="M586.675,299.563s-3.266-6.789-.433-10.372,13.044-14.674,13.044-14.674l1.187-7.664,4.2,12.484-9.005,18.833S590.391,303.873,586.675,299.563Z" fill="url(#ab)"/><path d="M609.544,331.146a142.344,142.344,0,0,0-13.881-32.976l-8.988,1.393,4.436,31.158C594.5,331.747,603.758,334.087,609.544,331.146Z" fill="url(#ab)"/><path d="M615.365,361.486a184.165,184.165,0,0,0-5.821-30.34c-5.786,2.941-15.041.6-18.433-.425l1.273,8.947-3.407-12.049a69.943,69.943,0,0,0-25.1-36.747l-8.459-6.4c-8.312-6.289-21.6-4.117-30.082,1.944-18.827,13.457-46.775,36.017-56.317,43.778a7.023,7.023,0,0,1-7.279.97l-1.592-.7a2.133,2.133,0,0,0-2.983,2.187l4.051,37.039,64.678-.747c7.755,0,30.221-.8,33.795-7.682l5.98-14.679c14.016,11.919,31.993,20.108,41.626,22.494C611.732,370.171,615.893,366.3,615.365,361.486Z" fill="#7d97f4"/><path d="M569.939,264.6l-19.883,19.315a3.538,3.538,0,0,0-.262,4.8c6.133,7.307,11.4,11.139,15.772,11.427a5.12,5.12,0,0,0,4.61-2.428l10.569-16.664Z" fill="url(#ab)"/><path d="M610.07,359.777l17.1-6.656,19.885,15.818-35.607.133Z" fill="url(#ae)"/><path d="M603.279,260.137s-2.713,19.079-10.042,24.946-21.608,1.449-26.431-12.934l9.61-24.592Z" fill="url(#af)"/><path d="M575.333,263.471a.945.945,0,0,0,1.228-.757,24.677,24.677,0,0,1,2.262-7.621s-.7-2.5,6.326,1.279,17.577,9.336,23.79,6.028c6.056-3.225,12.192-19.454-3.816-16.447a.944.944,0,0,1-1.123-.989c.2-2.668-.068-8.8-6.282-10.774-5.816-1.843-9,.782-10.311,2.366a.938.938,0,0,1-1.47-.023c-1.743-2.275-6.473-7.115-13.438-4.046-5.736,2.528-6.628,6.061-6.534,8.263a.942.942,0,0,1-1.342.9c-1.756-.81-4.582-1.23-7.289,2.161-3.743,4.689,1.605,8.755,3.21,9.822a.946.946,0,0,1,.428.779c.015,2.439.4,13.076,5.726,19.075a.952.952,0,0,0,1.583-.273l4.1-9.78a.949.949,0,0,1,1.166-.536Z" fill="url(#ag)"/><path d="M575.42,265.457s-2.507-10.21-6.314-6.895.992,10.61,5.354,12Z" fill="url(#ah)"/><path d="M546.785,308.522s.767-23.619-8.936-24.094c-12.049-.589-31.416,8.143-19.887,42.759,6.37,19.125,15.968,33.316,42.321,39.328a39.024,39.024,0,0,1,8.923-20.253C558.469,338.7,549.373,326.907,546.785,308.522Z" fill="#91b3fa"/><path d="M568,346.329a.942.942,0,0,1-.543-.172c-12.364-8.712-19.228-20.63-21.6-37.5a1.1,1.1,0,0,1-.009-.162c.2-6.312-.845-22.769-8.038-23.121a23.512,23.512,0,0,0-10.274,1.849.945.945,0,1,1-.75-1.734,25.5,25.5,0,0,1,11.116-2c10.307.5,9.887,23.165,9.836,24.985,2.308,16.279,8.922,27.766,20.81,36.143a.944.944,0,0,1-.544,1.716Z" fill="#bdd0fb"/><path d="M551.9,365.086a.949.949,0,0,1-.308-.052c-21.861-7.544-29.511-22.505-34.521-37.548a78.076,78.076,0,0,1-2.6-9.757.944.944,0,0,1,1.854-.358,75.963,75.963,0,0,0,2.541,9.518c4.857,14.584,12.258,29.083,33.345,36.36a.944.944,0,0,1-.308,1.837Z" fill="#bdd0fb"/><path d="M614.911,368.938l-.04-9.161s-25.678.568-45.665-13.515a39.024,39.024,0,0,0-8.923,20.253C573.618,369.557,591.238,370.507,614.911,368.938Z" fill="url(#ai)"/><path d="M581.995,372.135c.062,0,.125.005.188,0l81.672-.089a3.655,3.655,0,1,0-.008-7.311l-81.673.09a3.655,3.655,0,0,0-.179,7.306Z" fill="url(#aj)"/><path d="M737.275,297.982H669.257a12.964,12.964,0,0,0-11.725,7.434l-31.444,66.676h84.527a7.88,7.88,0,0,0,7.328-4.983l24.383-61.7A5.431,5.431,0,0,0,737.275,297.982Z" fill="url(#ak)"/><path d="M689.356,332.168c-1.474,4.58-.385,9.027,2.432,9.934s6.3-2.07,7.77-6.65.385-9.026-2.432-9.933S690.83,327.589,689.356,332.168Z" fill="#91b3fa"/></g><g transform="translate(1929 3621)"><path d="M623.094,440.759,403.652,507.647l219.442,66.888,219.441-66.888Z" fill="url(#al)"/><path d="M623.094,586.459l-138.111-42.1V640.53a33.432,33.432,0,0,0,26.48,32.71c74.169,15.726,145.487,16.214,213.775.515A33.362,33.362,0,0,0,751.029,641.2V547.463Z" fill="url(#al)"/><path d="M454.478,637.875q-18,8-31.476.336a7.042,7.042,0,0,1-3.339-7.526L439.2,533.573l19.383,96.378A7.137,7.137,0,0,1,454.478,637.875Z" fill="url(#al)"/><path d="M623.094,497.738,436.352,517.581v32.394h5.534l.568-28.39Z" fill="url(#al)"/></g><g transform="translate(1929 3621)"><g opacity="0.3"><path d="M487.82,800.129a1.951,1.951,0,0,1,1.646,2.025c-.11,2.2-.318,4.431-.617,6.626a1.951,1.951,0,0,1-2.2,1.67l-.037-.006a1.951,1.951,0,0,1-1.633-2.191c.285-2.085.482-4.2.587-6.294a1.952,1.952,0,0,1,2.251-1.83Zm-2.74,16.777a1.88,1.88,0,0,1,.227.049,1.952,1.952,0,0,1,1.355,2.4c-.6,2.132-1.288,4.259-2.058,6.323a1.952,1.952,0,1,1-3.657-1.364c.733-1.961,1.39-3.983,1.956-6.009A1.95,1.95,0,0,1,485.08,816.906Zm-6.366,15.756a1.927,1.927,0,0,1,.63.213,1.952,1.952,0,0,1,.786,2.645c-1.053,1.942-2.2,3.863-3.419,5.708a1.951,1.951,0,0,1-3.259-2.147c1.155-1.752,2.247-3.576,3.247-5.42A1.949,1.949,0,0,1,478.714,832.662Zm-9.731,13.94a1.952,1.952,0,0,1,1.162,3.218c-1.461,1.658-3.012,3.273-4.608,4.8a1.952,1.952,0,0,1-2.7-2.821c1.517-1.45,2.99-2.984,4.378-4.561A1.95,1.95,0,0,1,468.983,846.6Zm-12.6,11.42a1.95,1.95,0,0,1,.841,3.51c-1.788,1.29-3.657,2.521-5.555,3.659a1.951,1.951,0,1,1-2.007-3.346c1.8-1.082,3.58-2.252,5.28-3.478A1.943,1.943,0,0,1,456.388,858.022Zm-14.806,8.348a1.951,1.951,0,0,1,.465,3.724c-2.033.864-4.128,1.652-6.228,2.34a1.951,1.951,0,0,1-1.216-3.708c1.995-.655,3.986-1.4,5.917-2.223A1.942,1.942,0,0,1,441.582,866.37Zm-71.364-6.411a1.928,1.928,0,0,1,.769.3c1.752,1.151,3.579,2.24,5.428,3.238a1.951,1.951,0,1,1-1.853,3.434c-1.948-1.05-3.871-2.2-5.717-3.409a1.952,1.952,0,0,1,1.373-3.56ZM425.3,871.227a1.951,1.951,0,0,1,.044,3.849c-2.174.39-4.391.691-6.591.893a1.951,1.951,0,1,1-.357-3.886c2.089-.192,4.194-.477,6.259-.848A1.942,1.942,0,0,1,425.3,871.227Zm-39.916-3.6a1.994,1.994,0,0,1,.379.1c1.967.73,3.992,1.384,6.017,1.945a1.951,1.951,0,1,1-1.042,3.761c-2.131-.591-4.261-1.279-6.331-2.046a1.951,1.951,0,0,1,.977-3.758Zm22.961,4.7a1.951,1.951,0,0,1-.4,3.877c-2.2-.106-4.433-.309-6.624-.6l-.042-.005a1.951,1.951,0,0,1,.561-3.862c2.082.28,4.2.472,6.293.573C408.211,872.308,408.281,872.315,408.349,872.325Z" fill="#91b3fa"/><path d="M359.492,851.433a1.95,1.95,0,0,1,1.045.516c.727.7,1.482,1.386,2.241,2.055a1.951,1.951,0,1,1-2.577,2.929c-.8-.7-1.593-1.429-2.359-2.16a1.952,1.952,0,0,1,1.65-3.34Z" fill="#91b3fa"/></g><g opacity="0.3"><path d="M335.916,796.815a1.953,1.953,0,0,1,1.649,1.919c0,1.006.029,2.029.076,3.04a1.952,1.952,0,0,1-3.9.178c-.048-1.064-.075-2.142-.08-3.2a1.953,1.953,0,0,1,1.943-1.96A2.125,2.125,0,0,1,335.916,796.815Z" fill="#91b3fa"/><path d="M423.528,721.321q1.33.209,2.664.462a1.951,1.951,0,0,1-.729,3.834c-2.052-.391-4.115-.7-6.155-.913a1.951,1.951,0,0,1,.411-3.881C420.981,720.956,422.262,721.124,423.528,721.321Zm12.629,3.075a1.984,1.984,0,0,1,.323.079c2.064.693,4.122,1.481,6.115,2.342a1.951,1.951,0,1,1-1.547,3.582c-1.894-.818-3.849-1.566-5.81-2.225a1.951,1.951,0,0,1,.919-3.778Zm-26.7-3.943a1.951,1.951,0,0,1-.241,3.878c-2.06.065-4.146.219-6.2.46a1.952,1.952,0,0,1-.452-3.877c2.163-.253,4.359-.415,6.529-.484A2.082,2.082,0,0,1,409.457,720.453Zm41.88,10.981a1.968,1.968,0,0,1,.711.26c1.859,1.129,3.693,2.35,5.45,3.63a1.951,1.951,0,0,1-2.3,3.154c-1.669-1.216-3.41-2.376-5.176-3.447a1.952,1.952,0,0,1,1.313-3.6Zm-58.428-8.606a1.952,1.952,0,0,1,.19,3.818c-1.995.517-4,1.126-5.947,1.811a1.951,1.951,0,0,1-1.293-3.682c2.055-.721,4.161-1.363,6.261-1.907A1.977,1.977,0,0,1,392.909,722.828Zm-15.627,5.95a1.951,1.951,0,0,1,.592,3.664c-1.839.943-3.66,1.975-5.411,3.066A1.951,1.951,0,0,1,370.4,732.2c1.843-1.148,3.759-2.234,5.694-3.226A1.939,1.939,0,0,1,377.282,728.778Zm-13.957,9.214a1.952,1.952,0,0,1,.945,3.429c-1.591,1.322-3.143,2.725-4.614,4.171a1.951,1.951,0,1,1-2.736-2.783c1.548-1.522,3.182-3,4.856-4.39A1.952,1.952,0,0,1,363.325,737.992ZM351.709,750.03a1.953,1.953,0,0,1,1.243,3.12c-1.263,1.637-2.47,3.346-3.588,5.08a1.951,1.951,0,1,1-3.28-2.114c1.178-1.827,2.449-3.627,3.778-5.35A1.951,1.951,0,0,1,351.709,750.03Zm-8.692,14.3a1.975,1.975,0,0,1,.522.16,1.951,1.951,0,0,1,.948,2.591c-.869,1.87-1.669,3.8-2.379,5.744a1.951,1.951,0,0,1-3.665-1.341c.747-2.043,1.59-4.078,2.5-6.046A1.953,1.953,0,0,1,343.017,764.33Zm-5.335,15.85c.039.006.079.014.118.022a1.951,1.951,0,0,1,1.489,2.323c-.325,1.486-.608,3-.842,4.5q-.126.814-.235,1.628a1.951,1.951,0,0,1-2.192,1.676,1.93,1.93,0,0,1-1.676-2.192q.114-.857.247-1.712c.246-1.578.544-3.171.886-4.734A1.952,1.952,0,0,1,337.682,780.18Z" fill="#91b3fa"/><path d="M464.627,741.675a1.952,1.952,0,0,1,1.053.523c.76.733,1.52,1.5,2.257,2.268a1.951,1.951,0,0,1-2.822,2.7c-.7-.734-1.422-1.459-2.144-2.155a1.951,1.951,0,0,1,1.656-3.332Z" fill="#91b3fa"/></g><path d="M458.543,763.633a.911.911,0,0,0-.966-.433l-10.883,2.182a48.336,48.336,0,0,0-12.485-9.461l-.849-11.06a.914.914,0,0,0-.679-.813L419.8,740.684a.911.911,0,0,0-.989.377l-6.149,9.233a48.343,48.343,0,0,0-15.517,2.149l-8.426-7.225a.911.911,0,0,0-1.054-.1l-11.488,6.73a.911.911,0,0,0-.433.966l2.182,10.883a48.353,48.353,0,0,0-9.461,12.485l-11.06.85a.912.912,0,0,0-.813.678L353.227,790.6a.913.913,0,0,0,.377.99l9.233,6.148a48.335,48.335,0,0,0,2.149,15.517l-7.225,8.427a.912.912,0,0,0-.1,1.054L364.4,834.22a.912.912,0,0,0,.966.434l10.883-2.183a48.337,48.337,0,0,0,12.485,9.461l.849,11.061a.912.912,0,0,0,.678.812l12.883,3.364a.912.912,0,0,0,.989-.377l6.148-9.233a48.335,48.335,0,0,0,15.517-2.148l8.427,7.224a.909.909,0,0,0,1.054.095L446.764,846a.914.914,0,0,0,.433-.966l-2.182-10.883a48.377,48.377,0,0,0,9.461-12.485l11.06-.849a.912.912,0,0,0,.812-.679l3.364-12.882a.913.913,0,0,0-.377-.99l-9.232-6.148a48.367,48.367,0,0,0-2.149-15.517l7.225-8.426a.912.912,0,0,0,.094-1.055Z" fill="#91b3fa"/><path d="M413.538,785.7a13.392,13.392,0,1,1-1.959-.159A13.6,13.6,0,0,1,413.538,785.7Zm-3.669,23.361a10.461,10.461,0,0,0,1.517.123,10.218,10.218,0,1,0-1.517-.123Z" fill="#bdd0fb"/><path d="M416.242,766.562a33.6,33.6,0,0,1,3.31.689h0q.519.135,1.034.287a33.127,33.127,0,0,1,4.919,1.892l.064.03c.061.03.122.059.183.09.119.058.237.117.354.176a.78.78,0,1,1-.7,1.393,31.382,31.382,0,0,0-35.512,5.029,31.153,31.153,0,0,0-8.981,15.022,31.741,31.741,0,0,0-.657,3.158,31.347,31.347,0,1,0,61.082-4.014.781.781,0,0,1,1.5-.438,32.826,32.826,0,0,1,.923,14.255,32.915,32.915,0,0,1-40.833,26.8,32.915,32.915,0,0,1-24.214-36.837,33.494,33.494,0,0,1,.689-3.316,32.915,32.915,0,0,1,36.843-24.213Z" fill="#bdd0fb"/><g opacity="0.3"><path d="M561.526,759.566a1.2,1.2,0,0,1,1.008,1.034c.134,1.014.239,2.046.312,3.068a1.205,1.205,0,0,1-2.4.171c-.07-.974-.17-1.957-.3-2.925a1.206,1.206,0,0,1,1.037-1.353A1.239,1.239,0,0,1,561.526,759.566Z" fill="#91b3fa"/><path d="M561.888,768.83a1.2,1.2,0,0,1,1.017,1.254,52.374,52.374,0,0,1-.549,5.273q-.086.549-.183,1.1a1.247,1.247,0,0,1-1.4.977,1.206,1.206,0,0,1-.977-1.4q.094-.527.176-1.052a50.17,50.17,0,0,0,.523-5.029,1.194,1.194,0,0,1,1.39-1.127ZM559.7,781.15a1.278,1.278,0,0,1,.169.039,1.206,1.206,0,0,1,.8,1.506,52.159,52.159,0,0,1-2.252,6.006,1.2,1.2,0,0,1-2.2-.983,50.268,50.268,0,0,0,2.148-5.73A1.206,1.206,0,0,1,559.7,781.15Zm-5.109,11.423a1.2,1.2,0,0,1,.844,1.816,52.026,52.026,0,0,1-3.662,5.272,1.2,1.2,0,0,1-1.89-1.495,49.628,49.628,0,0,0,3.491-5.027A1.206,1.206,0,0,1,554.593,792.573Zm-7.762,9.817a1.2,1.2,0,0,1,.66,2.049,52.166,52.166,0,0,1-4.839,4.215,1.205,1.205,0,0,1-1.467-1.913,49.976,49.976,0,0,0,4.614-4.018A1.2,1.2,0,0,1,546.831,802.39Zm-9.923,7.624a1.206,1.206,0,0,1,.427,2.23,52.816,52.816,0,0,1-5.714,2.911,1.205,1.205,0,0,1-.961-2.211,50.14,50.14,0,0,0,5.451-2.778A1.21,1.21,0,0,1,536.908,810.014ZM525.437,815a1.205,1.205,0,0,1,.156,2.347,52,52,0,0,1-6.251,1.429,1.205,1.205,0,0,1-.391-2.379,49.378,49.378,0,0,0,5.96-1.362A1.18,1.18,0,0,1,525.437,815ZM513.1,817.025a1.205,1.205,0,0,1-.14,2.395,52.446,52.446,0,0,1-6.414-.148,1.206,1.206,0,0,1,.2-2.4,49.611,49.611,0,0,0,6.117.142A1.2,1.2,0,0,1,513.1,817.025ZM494.586,814.3a1.3,1.3,0,0,1,.207.051,49.864,49.864,0,0,0,5.12,1.453c.262.061.521.118.779.171a1.205,1.205,0,0,1-.493,2.36c-.276-.058-.551-.118-.826-.182a52.335,52.335,0,0,1-5.362-1.522,1.205,1.205,0,0,1,.575-2.331Z" fill="#91b3fa"/></g><g opacity="0.3"><path d="M518.225,715.86a1.205,1.205,0,0,1-.356,2.384,49.874,49.874,0,0,0-6-.488,1.205,1.205,0,1,1,.049-2.41,52.642,52.642,0,0,1,6.288.511Zm6.041,1.235a.974.974,0,0,1,.128.027,52.91,52.91,0,0,1,5.987,1.993,1.206,1.206,0,0,1-.9,2.238,50.46,50.46,0,0,0-5.713-1.9,1.205,1.205,0,0,1,.5-2.355Zm-18.344-1.483A1.2,1.2,0,0,1,505.86,718a50.035,50.035,0,0,0-5.94.978,1.206,1.206,0,0,1-.535-2.351,52.212,52.212,0,0,1,6.227-1.024A1.187,1.187,0,0,1,505.922,715.612Zm29.767,6.075a1.2,1.2,0,0,1,.4.136,51.518,51.518,0,0,1,5.332,3.383,1.2,1.2,0,1,1-1.413,1.952,49.529,49.529,0,0,0-5.083-3.225,1.205,1.205,0,0,1,.767-2.246Zm-41.764-3.342a1.205,1.205,0,0,1,.224,2.325,49.481,49.481,0,0,0-5.529,2.376,1.205,1.205,0,1,1-1.084-2.153,52.475,52.475,0,0,1,5.8-2.492A1.207,1.207,0,0,1,493.925,718.345Zm-10.992,5.531a1.2,1.2,0,0,1,.483,2.194,50.342,50.342,0,0,0-4.8,3.631,1.2,1.2,0,1,1-1.567-1.831,52.636,52.636,0,0,1,5.034-3.806A1.2,1.2,0,0,1,482.933,723.876Zm-9.351,8.006a1.2,1.2,0,0,1,.7,2.005,49.281,49.281,0,0,0-3.79,4.677,1.205,1.205,0,0,1-1.962-1.4,51.961,51.961,0,0,1,3.975-4.905A1.2,1.2,0,0,1,473.582,731.882Z" fill="#91b3fa"/><path d="M545.706,728.941a1.2,1.2,0,0,1,.634.309c.756.7,1.493,1.431,2.194,2.164a1.205,1.205,0,0,1-1.743,1.665c-.668-.7-1.372-1.394-2.093-2.065a1.205,1.205,0,0,1,1.008-2.073Z" fill="#91b3fa"/></g><path d="M542.32,744.171a.609.609,0,0,0-.646-.29l-7.282,1.46a32.37,32.37,0,0,0-8.355-6.331l-.568-7.4a.609.609,0,0,0-.454-.543l-8.62-2.251a.609.609,0,0,0-.662.252l-4.114,6.178a32.363,32.363,0,0,0-10.384,1.438l-5.638-4.835a.611.611,0,0,0-.706-.063l-7.687,4.5a.611.611,0,0,0-.29.646l1.461,7.282a32.346,32.346,0,0,0-6.331,8.355l-7.4.568a.61.61,0,0,0-.544.454l-2.251,8.62a.61.61,0,0,0,.252.662l6.178,4.114a32.388,32.388,0,0,0,1.438,10.384l-4.834,5.638a.611.611,0,0,0-.064.706l4.5,7.687a.611.611,0,0,0,.646.29l7.283-1.461a32.347,32.347,0,0,0,8.354,6.331l.569,7.4a.61.61,0,0,0,.454.544l8.62,2.251a.609.609,0,0,0,.662-.252l4.114-6.178a32.357,32.357,0,0,0,10.383-1.438l5.639,4.834a.609.609,0,0,0,.7.064l7.687-4.5a.611.611,0,0,0,.29-.647l-1.46-7.282A32.347,32.347,0,0,0,539.6,783l7.4-.568a.61.61,0,0,0,.543-.455l2.251-8.62a.61.61,0,0,0-.252-.662l-6.178-4.114a32.332,32.332,0,0,0-1.438-10.383l4.835-5.639a.609.609,0,0,0,.063-.705Z" fill="#91b3fa"/><path d="M512.243,758.782a9.132,9.132,0,1,1-1.347-.11A9.255,9.255,0,0,1,512.243,758.782Zm-2.458,15.632a6.9,6.9,0,0,0,.982.08,6.706,6.706,0,0,0,.109-13.412h0a6.706,6.706,0,0,0-1.091,13.332Z" fill="#bdd0fb"/><path d="M514.142,745.461a22.907,22.907,0,0,1,6.595,2.085l.186.093a1.205,1.205,0,0,1,.648,1.26,1.188,1.188,0,0,1-.116.359,1.207,1.207,0,0,1-1.619.532,20.333,20.333,0,0,0-4.042-1.526h0l-.23-.059a20.092,20.092,0,0,0-9.938.026,20.411,20.411,0,0,0-5.059,2.065l-.039.023c-.04.023-.08.045-.119.069a20.156,20.156,0,0,0-9.376,12.382,20.56,20.56,0,0,0-.426,2.044,20.294,20.294,0,0,0,39.693,8.21,20.472,20.472,0,0,0,.42-2.018,20.233,20.233,0,0,0-.569-8.79,1.183,1.183,0,0,1-.035-.523,1.205,1.205,0,0,1,2.348-.153,22.7,22.7,0,1,1-44.239,2.908,23.218,23.218,0,0,1,.475-2.287A22.736,22.736,0,0,1,514.142,745.461Z" fill="#bdd0fb"/></g></g></svg>