<svg xmlns="http://www.w3.org/2000/svg" xmlns:xlink="http://www.w3.org/1999/xlink" width="2161.105" height="1376.846" viewBox="0 0 2161.105 1376.846"><defs><linearGradient id="a" x1="0.842" y1="-1.157" x2="0.113" y2="1.87" gradientUnits="objectBoundingBox"><stop offset="0" stop-color="#4042e2"/><stop offset="1" stop-color="#4f52ff"/></linearGradient><linearGradient id="b" x1="0.484" y1="-0.393" x2="0.521" y2="1.289" gradientUnits="objectBoundingBox"><stop offset="0" stop-color="#09005d"/><stop offset="1" stop-color="#1a0f91"/></linearGradient><linearGradient id="c" x1="0.938" y1="-0.248" x2="-0.391" y2="2.087" xlink:href="#a"/><linearGradient id="d" y1="0.5" x2="1" y2="0.5" gradientUnits="objectBoundingBox"><stop offset="0" stop-color="#dae3fe"/><stop offset="1" stop-color="#e9effd"/></linearGradient><linearGradient id="e" x1="0.456" y1="-13.211" x2="0.493" y2="-1.691" xlink:href="#b"/><linearGradient id="f" x1="0.429" y1="2.005" x2="0.549" y2="-0.742" xlink:href="#b"/><linearGradient id="g" x1="0.882" y1="-0.527" x2="0.443" y2="0.588" gradientUnits="objectBoundingBox"><stop offset="0" stop-color="#09005d"/><stop offset="0.269" stop-color="#0e056e"/><stop offset="0.724" stop-color="#160c87"/><stop offset="1" stop-color="#1a0f91"/></linearGradient><linearGradient id="h" x1="-0.072" y1="-0.703" x2="0.389" y2="0.007" xlink:href="#g"/><linearGradient id="i" x1="0" y1="0.5" x2="1" y2="0.5" xlink:href="#a"/><linearGradient id="l" x1="-0.106" y1="0.705" x2="-0.892" y2="0.986" gradientUnits="objectBoundingBox"><stop offset="0" stop-color="#ff928e"/><stop offset="1" stop-color="#feb3b1"/></linearGradient><linearGradient id="m" x1="53.28" y1="0.006" x2="53.076" y2="3.202" xlink:href="#b"/><linearGradient id="n" x1="18.02" y1="0.5" x2="19.019" y2="0.5" xlink:href="#l"/><linearGradient id="o" x1="-22.802" y1="-1.807" x2="-23.344" y2="1.26" xlink:href="#b"/><linearGradient id="p" x1="41.651" y1="-2.158" x2="41.492" y2="6.275" xlink:href="#b"/><linearGradient id="q" x1="21.387" y1="0.258" x2="22.008" y2="1.709" xlink:href="#b"/><linearGradient id="r" x1="0.312" y1="-0.77" x2="0.655" y2="1.54" xlink:href="#l"/><linearGradient id="s" x1="27.102" y1="24.734" x2="28.085" y2="23.812" xlink:href="#l"/><linearGradient id="t" x1="49.308" y1="-0.703" x2="47.359" y2="0.922" xlink:href="#b"/><linearGradient id="u" x1="96.635" y1="78.813" x2="100.208" y2="75.843" xlink:href="#l"/><linearGradient id="v" x1="1.006" y1="-1.649" x2="0.573" y2="0.355" xlink:href="#l"/><linearGradient id="w" x1="34.546" y1="-0.179" x2="33.18" y2="0.949" xlink:href="#b"/><linearGradient id="x" y1="0.5" x2="1" y2="0.5" gradientUnits="objectBoundingBox"><stop offset="0" stop-color="#fe7062"/><stop offset="1" stop-color="#ff928e"/></linearGradient><linearGradient id="z" x1="2.865" y1="-0.443" x2="-0.981" y2="1.09" xlink:href="#d"/><linearGradient id="aa" x1="0.941" y1="-0.289" x2="-0.243" y2="1.244" xlink:href="#d"/><linearGradient id="ab" x1="1.018" y1="-1.963" x2="0.324" y2="1.336" xlink:href="#x"/><linearGradient id="ac" x1="1.084" y1="-2.276" x2="-0.16" y2="3.637" xlink:href="#x"/><linearGradient id="ad" x1="0.977" y1="-1.766" x2="-0.061" y2="3.163" xlink:href="#x"/><linearGradient id="ae" x1="1.709" y1="-5.241" x2="-0.491" y2="5.209" xlink:href="#x"/><linearGradient id="af" x1="1.44" y1="-3.967" x2="-0.162" y2="3.646" xlink:href="#x"/><linearGradient id="ag" x1="226.881" y1="0.954" x2="229.042" y2="-0.303" xlink:href="#a"/><linearGradient id="ah" x1="26.443" y1="0.059" x2="26.698" y2="-21.501" xlink:href="#a"/><linearGradient id="ai" x1="19.782" y1="4.039" x2="19.978" y2="-0.315" xlink:href="#b"/><linearGradient id="aj" x1="1.097" y1="-0.421" x2="-0.297" y2="1.804" xlink:href="#b"/><linearGradient id="ak" x1="339.964" y1="0.5" x2="340.964" y2="0.5" xlink:href="#l"/><linearGradient id="al" x1="-27.615" y1="0.408" x2="-27.178" y2="1.936" xlink:href="#a"/><linearGradient id="am" x1="1.377" y1="-1.63" x2="0.613" y2="0.226" xlink:href="#b"/><linearGradient id="an" x1="126.43" y1="0.5" x2="127.43" y2="0.5" xlink:href="#a"/><linearGradient id="ao" x1="362.242" y1="0.5" x2="363.242" y2="0.5" xlink:href="#l"/><linearGradient id="ap" x1="53.756" y1="-7.578" x2="54.181" y2="-6.372" xlink:href="#a"/><linearGradient id="aq" x1="119.279" y1="21.214" x2="118.654" y2="23.77" xlink:href="#x"/><linearGradient id="ar" x1="103.841" y1="0.5" x2="104.841" y2="0.5" xlink:href="#l"/><linearGradient id="as" x1="-21.453" y1="0.476" x2="-20.765" y2="0.208" xlink:href="#x"/><linearGradient id="at" x1="0.5" y1="-1.096" x2="0.5" y2="2.525" xlink:href="#l"/><linearGradient id="au" x1="-37.609" y1="0.598" x2="-36.391" y2="0.266" xlink:href="#x"/><linearGradient id="av" x1="0.353" y1="-3.505" x2="0.514" y2="0.87" gradientUnits="objectBoundingBox"><stop offset="0" stop-color="#e1473d"/><stop offset="1" stop-color="#e9605a"/></linearGradient><linearGradient id="aw" x1="0.548" y1="-2.708" x2="0.523" y2="-0.891" xlink:href="#l"/><linearGradient id="ax" x1="160.487" y1="-38.813" x2="160.163" y2="-39.917" xlink:href="#l"/><linearGradient id="ay" x1="-44.804" y1="-1.539" x2="-45.666" y2="0.773" xlink:href="#b"/><linearGradient id="az" x1="738.503" y1="-117.556" x2="737.008" y2="-120.888" xlink:href="#l"/><linearGradient id="ba" x1="21.336" y1="20.526" x2="20.597" y2="22.963" xlink:href="#b"/><linearGradient id="bb" x1="0.993" y1="0.112" x2="0.24" y2="0.759" xlink:href="#b"/><linearGradient id="bc" x1="5.242" y1="-0.45" x2="3.612" y2="2.083" xlink:href="#b"/><linearGradient id="bd" x1="9.126" y1="0.5" x2="10.126" y2="0.5" xlink:href="#b"/><linearGradient id="be" x1="11.822" y1="-12.945" x2="8.124" y2="11.133" xlink:href="#a"/><linearGradient id="bf" x1="5.466" y1="-5.184" x2="5.538" y2="-1.664" xlink:href="#l"/><linearGradient id="bg" x1="23.326" y1="-0.843" x2="22.82" y2="2.39" xlink:href="#l"/><linearGradient id="bh" x1="9.852" y1="-5.387" x2="7.336" y2="17.679" xlink:href="#a"/><linearGradient id="bi" x1="8.761" y1="0.5" x2="9.761" y2="0.5" xlink:href="#b"/><linearGradient id="bj" x1="1.93" y1="-3.477" x2="0.627" y2="-0.082" xlink:href="#l"/><linearGradient id="bk" x1="0.117" y1="-0.225" x2="0.781" y2="0.971" xlink:href="#x"/><linearGradient id="bl" x1="0.884" y1="-0.429" x2="0.366" y2="1.318" xlink:href="#l"/><linearGradient id="bm" x1="-0.39" y1="0.16" x2="0.673" y2="0.558" xlink:href="#l"/><linearGradient id="bn" x1="-25.846" y1="-7.692" x2="-24.94" y2="-7.692" xlink:href="#b"/><linearGradient id="bo" x1="-108.902" y1="-39.453" x2="-106.445" y2="-42.101" xlink:href="#l"/><linearGradient id="bp" x1="0.181" y1="-5.081" x2="0.486" y2="0.26" xlink:href="#a"/><linearGradient id="bq" x1="0.311" y1="-0.153" x2="1.431" y2="3.516" xlink:href="#x"/><linearGradient id="br" x1="7.467" y1="14.715" x2="8.504" y2="12.905" xlink:href="#l"/><linearGradient id="bs" x1="9.562" y1="35.415" x2="10.75" y2="31.172" xlink:href="#l"/></defs><g transform="translate(-894.008 -1485.867)"><g transform="translate(718 1347)"><path d="M1818.6,1160.085s49.694-250.29,128.711-346.944c70.518-86.259,177.919-201,200.206-224.68a2.466,2.466,0,0,1,4.263,1.673c.194,36.421-6.878,230.008-171.351,388.124C1798.088,1153.552,1818.6,1160.085,1818.6,1160.085Z" fill="#91b3fa"/><path d="M2120.514,663.386c-8.481,15.995-17.436,31.689-26.6,47.274q-13.785,23.351-28.345,46.234-29.082,45.78-61.415,89.4-16.223,21.744-33.35,42.8-17.2,20.992-35.438,41.115c-12.256,13.32-24.862,26.324-37.935,38.864-13.166,12.442-26.779,24.421-40.947,35.746a2,2,0,0,1-2.5-3.125l.007-.005.017-.013c14.106-11.175,27.685-23.016,40.833-35.331,13.057-12.414,25.663-25.3,37.928-38.516q18.237-19.968,35.5-40.817,17.152-20.925,33.45-42.541,32.454-43.323,61.691-88.961,14.636-22.777,28.5-46.038c9.22-15.513,18.243-31.168,26.757-47.055l.008-.015a1.042,1.042,0,0,1,1.839.981Z" fill="#dce5fe"/></g><g transform="translate(718 1347)"><path d="M2320.148,817.425c-15.274,68.665-119.114,464.205-476.747,422.487,0,0,6.934-279.974,469.86-429.68C2317.311,808.922,2321.146,812.939,2320.148,817.425Z" fill="#bdd0fb"/><path d="M2271.233,863.122c-11.768,18.918-24.2,37.3-36.928,55.521q-19.109,27.3-39.39,53.767t-41.715,52.014c-14.284,17.034-28.957,33.758-44.164,50-15.191,16.253-30.735,32.2-46.984,47.444-16.225,15.254-32.834,30.15-50.319,44.025-34.741,27.954-72.364,52.829-113.5,71.152a5.078,5.078,0,0,1-4.133-9.278l.025-.011.094-.041c40.191-17.373,77.493-41.387,112.111-68.63,17.421-13.514,34.032-28.085,50.284-43.032,16.276-14.932,31.886-30.6,47.16-46.586,15.29-15.974,30.069-32.449,44.473-49.247s28.449-33.916,42.109-51.339q20.463-26.157,39.842-53.149c12.875-18,25.5-36.247,37.375-54.87l.02-.032a2.151,2.151,0,0,1,3.64,2.293Z" fill="#dce5fe"/></g><g transform="translate(718 1347)"><path d="M1733.929,1400.4h557.55V1288.811h-557.55C1745.863,1288.812,1745.863,1400.4,1733.929,1400.4Z" fill="#7d97f4"/><path d="M2291.479,1372.479v-51.07c0-18-11.018-32.6-24.609-32.6H1736.28a19.354,19.354,0,0,1-19.353-19.353h0a5.881,5.881,0,0,1,5.88-5.88H2302.7c13.3,0,34.413,20.909,34.413,46.7V1381.6c0,24.319-20.5,44.033-33.037,44.033H1725.858a8.931,8.931,0,0,1-8.931-8.931h0a16.3,16.3,0,0,1,16.3-16.3H2270.4C2282.04,1400.4,2291.479,1387.9,2291.479,1372.479Z" fill="url(#a)"/><path d="M2276.016,1312.708H1753.237a1,1,0,0,1,0-2h522.779a1,1,0,0,1,0,2Z" fill="#fff" opacity="0.56"/><path d="M2276.016,1329.272H1753.237a1,1,0,0,1,0-2h522.779a1,1,0,0,1,0,2Z" fill="#fff" opacity="0.56"/><path d="M2276.016,1345.836H1753.237a1,1,0,0,1,0-2h522.779a1,1,0,0,1,0,2Z" fill="#fff" opacity="0.56"/><path d="M2276.016,1362.4H1753.237a1,1,0,0,1,0-2h522.779a1,1,0,0,1,0,2Z" fill="#fff" opacity="0.56"/><path d="M2276.016,1378.964H1753.237a1,1,0,0,1,0-2h522.779a1,1,0,0,1,0,2Z" fill="#fff" opacity="0.56"/><rect width="501.688" height="121.1" rx="20.095" transform="translate(2290.69 1263.071) rotate(180)" fill="#7d97f4"/><rect width="58.937" height="93.264" rx="7.242" transform="translate(2233.992 1249.153) rotate(180)" fill="#91b3fa"/><path d="M3.67,0H18.444a3.669,3.669,0,0,1,3.669,3.669V89.594a3.669,3.669,0,0,1-3.669,3.669H3.669A3.669,3.669,0,0,1,0,89.594V3.67A3.67,3.67,0,0,1,3.67,0Z" transform="translate(2166.386 1249.153) rotate(180)" fill="#91b3fa"/></g><g transform="translate(718 1347)"><path d="M476.4,142.567c-50.062,79.213-322.572,552.082,75.227,887.507,0,0,259.542-265.125-61.483-886.933A7.929,7.929,0,0,0,476.4,142.567Z" fill="#91b3fa"/><path d="M486.4,236.93c-4.673,29.515-8.742,59.163-12.551,88.823s-7.25,59.375-10.356,89.118c-6.213,59.487-11.1,119.113-14.14,178.823-3,59.7-4.259,119.518-2.249,179.209q1.363,44.769,6.023,89.295c3.165,29.635,7.5,59.161,14.151,88.13l0,.016a3.845,3.845,0,1,1-7.5,1.72l0-.023c-6.561-29.423-10.748-59.24-13.753-89.11q-4.441-44.822-5.5-89.825c-1.647-59.953-.009-119.905,3.362-179.706,3.418-59.807,8.678-119.482,15.266-179q4.939-44.637,10.917-89.147c4-29.673,8.248-59.3,13.116-88.861a1.629,1.629,0,0,1,3.216.519Z" fill="#dce5fe"/></g><g transform="translate(718 1347)"><path d="M204.706,503.724c-24.531,99.455-143.653,684.051,384.844,894.371,0,0,177.495-364.674-370.393-898.527A8.667,8.667,0,0,0,204.706,503.724Z" fill="#bdd0fb"/><path d="M247.338,598.263c3.862,34.164,9.157,68.224,15.116,102.118q8.983,50.85,20.441,101.216c15.31,67.108,33.8,133.523,56.571,198.451,22.833,64.866,49.879,128.382,83.532,188.3,8.362,15,17.292,29.672,26.584,44.1q13.911,21.657,29.443,42.187a553.184,553.184,0,0,0,68.757,76.157l.022.019a3.32,3.32,0,0,1-4.483,4.9l-.011-.011a559.57,559.57,0,0,1-69.211-77.363q-15.566-20.773-29.5-42.683c-9.3-14.577-18.22-29.393-26.563-44.525C384.457,1130.674,357.608,1066.776,335,1001.6c-22.541-65.233-40.76-131.878-55.786-199.179q-11.251-50.485-20.006-101.478c-5.813-33.99-10.953-68.076-14.672-102.4a1.406,1.406,0,1,1,2.8-.3Z" fill="#dce5fe"/></g><g transform="translate(718 1347)"><path d="M1914.084,1324.094c0,15.4-11.585,28.008-25.744,28.008H496.2c-14.159,0-25.744-12.6-25.744-28.008l-11.585-871.2c0-15.4,16.667-45.478,47.21-43.218l1360.55-38.336c17.766-.5,34.943,6.946,47.524,20.6s19.464,32.326,19.044,51.654Z" fill="url(#b)"/><path d="M1888.668,1297.224c0,14.587-10.96,26.523-24.356,26.523H529.775c-13.4,0-24.356-11.936-24.356-26.523L494.488,506.339c1.287-47.594,39.605-64.7,62.832-63.689l1303.963-38.1a43.653,43.653,0,0,1,33.389,14.474,52.005,52.005,0,0,1,13.389,36.335Z" fill="url(#c)"/><path d="M519.841,919.445a1.835,1.835,0,0,1-1.834-1.81l-.864-64.14a1.835,1.835,0,1,1,3.669-.05l.865,64.14a1.836,1.836,0,0,1-1.81,1.86Z" fill="#bdd0fb"/><path d="M517.721,762.269a1.834,1.834,0,0,1-1.833-1.809l-3.313-245.654c.071-17.12,5.153-30.6,15.1-40.111,16.514-15.774,41.027-14.939,42.049-14.9l416.413-12.169a1.793,1.793,0,0,1,1.887,1.78,1.835,1.835,0,0,1-1.78,1.888L569.721,463.46c-1.121-.043-24.11-.822-39.508,13.888-9.2,8.791-13.9,21.388-13.969,37.441l3.313,245.62a1.834,1.834,0,0,1-1.81,1.86Z" fill="#bdd0fb"/><path d="M564.214,1253.35c1.4-65.368.877-644.215-2.567-694.206s68.053-59.369,177.824-64.995,1035.948-27.9,1059.795-30c53.6-4.733,64.7,82.515,59.335,271.924-4.029,142.3-10.706,376.719-13.779,484.521-.915,32.1-25.007,57.568-54.5,57.656-222.877.667-1077.095,3.333-1133.962,5.177C590.923,1285.544,563.66,1279.269,564.214,1253.35Z" opacity="0.2" fill="url(#d)"/><rect width="1641.275" height="76.547" rx="7.505" transform="translate(385.746 1347.875)" fill="url(#e)"/></g><g transform="translate(718 1347)"><path d="M1677.7,366.025,1646.4,434.573s17.342,114.525,138,159.161,174.35-13.361,174.35-13.361l38.4-101.037Z" fill="url(#f)"/><path d="M1874.958,271.123l-252.406,48.141c-13,2.479-18.048,18.673-8.809,28.26,45.067,46.766,147.276,155.448,184.227,216.571a16.355,16.355,0,0,0,19,7.178l258.378-82.586a16.914,16.914,0,0,0,7.045-27.616c-44.531-47.428-158.012-166.352-196.39-188.144A16.2,16.2,0,0,0,1874.958,271.123Z" fill="url(#g)"/><path d="M1858.23,399.9s123.847,95.835,132.155,115.948-19.537,105.7-19.537,105.7c14.142,75.8,10.118,156.381-28.495,195.283,0,0-34.457-101.088-11.616-140.365s31.733-55.421,31.733-55.421,25.036-91.651,20.891-105.441C1983.361,515.6,1846.62,404.231,1858.23,399.9Z" fill="url(#h)"/><path d="M1653.433,345.651,1768.1,482.829l28.668,34.294,7.167,8.574,3.583,4.287a26.867,26.867,0,0,0,3.758,3.678,23.6,23.6,0,0,0,19.861,4.374l86.831-21.22a1.132,1.132,0,0,1,.545,2.2l-86.709,21.807a26.539,26.539,0,0,1-22.377-4.779,29.893,29.893,0,0,1-4.244-4.093l-3.612-4.263-7.224-8.525-28.9-34.1-115.59-136.4a2.332,2.332,0,1,1,3.559-3.015Z" fill="#91b3fa"/><path d="M1957.11,665.365l-.287.26-.329.333-.665.671-1.285,1.473c-.847,1-1.612,2.1-2.423,3.14l-2.19,3.36c-.685,1.153-1.309,2.348-1.969,3.52a37.685,37.685,0,0,0-1.789,3.628c-.552,1.235-1.159,2.444-1.667,3.7l-1.416,3.817a39.729,39.729,0,0,0-1.32,3.856l-1.13,3.926a40.2,40.2,0,0,0-1.032,3.957c-.546,2.676-1.145,5.344-1.653,8.031l-1.1,8.146c-.084.681-.2,1.357-.257,2.041l-.131,2.054-.263,4.111c-.521,5.477-.252,10.989-.3,16.494-.032,1.379.073,2.753.171,4.127l.278,4.126c.2,2.749.34,5.505.582,8.253.728,5.47,1.342,10.962,2.164,16.425l3.033,16.308.008.043a.811.811,0,0,1-1.591.314l-3.424-16.325c-.953-5.479-1.7-11-2.559-16.5-.308-2.767-.516-5.548-.779-8.323l-.376-4.166c-.131-1.388-.267-2.777-.269-4.174-.086-5.58-.482-11.165-.083-16.755l.173-4.2.086-2.1c.041-.7.145-1.393.214-2.09l.934-8.363c.457-2.769,1.008-5.529,1.511-8.3.213-1.392.619-2.745.97-4.11l1.079-4.092a41.91,41.91,0,0,1,1.279-4.038l1.388-4.013c.5-1.325,1.107-2.613,1.657-3.922a41.3,41.3,0,0,1,1.8-3.868c.669-1.259,1.3-2.538,2.006-3.783l2.27-3.66c.857-1.168,1.656-2.365,2.577-3.5l1.412-1.691.778-.826.4-.413.474-.447a2.332,2.332,0,0,1,3.2,3.394l-.022.021Z" fill="#fff"/><path d="M1957.986,700.29l-.476,5.3-.465,5.875-.87,11.775-1.647,23.57-3.154,47.158a1.268,1.268,0,0,1-2.532-.137l2.092-47.226,1.116-23.615.606-11.812.334-5.914.2-2.976.1-1.495c.06-.621.165-1.342.28-2a2.271,2.271,0,0,1,4.5.586Z" fill="#fff"/></g><g transform="translate(718 1347)"><rect width="11.63" height="125.769" transform="translate(2029.96 1363.796)" fill="url(#i)"/><path d="M3.323,0H98.537a3.323,3.323,0,0,1,3.323,3.323V7.57a0,0,0,0,1,0,0H0a0,0,0,0,1,0,0V3.323A3.323,3.323,0,0,1,3.323,0Z" transform="translate(1984.845 1484.419)" fill="url(#i)"/><rect width="128.069" height="36.322" rx="12.507" transform="translate(1973.753 1335.615)" fill="url(#i)"/><path d="M1949.918,1279.937s-17.281,2.679-36.711,15.667a9.685,9.685,0,0,0-4.274,9.257c2.326,18.429,11.892,78.078,43.436,136.337a14.669,14.669,0,0,1,1.408,10.064l-5.481,25.5-10.163,9.53h26.178l17.43-47.168-7.453-2.357a14.1,14.1,0,0,1-9.848-13.2l-.875-50.6c.746-22.543-13.822-38.1-13.822-38.1l41.806-2.034Z" fill="url(#l)"/><path d="M1927.912,1490.9c-2.384,3.12,25.659,7.237,39.827.412,0,0,19.64-34.17,19.64-51.764,0,0-1.559-3.587-13.091-2.774,0,0-6.595,40.46-13.558,44.992s-19.481.459-19.481.459S1931.429,1486.292,1927.912,1490.9Z" fill="url(#m)"/><path d="M1986.26,1335.615c-.223-.385-45.011-5.385-45.011-5.385s1.465,13.618-3.116,32.364-70.34,99.967-70.34,99.967l6.9,21.858c-21.319,7.426-42.289,8.613-62.925,3.785l42.732-25.643s39.991-136.284,64.488-160.6l44.9-15.532Z" fill="url(#n)"/><path d="M2086.705,1256.316s25.8,38.382,27.922,55.89-7.068,24.622-34.144,25.795-99.358,1.154-99.358,1.154l-61.691-52.723s44.958-16.043,56.647-20.579S2086.705,1256.316,2086.705,1256.316Z" fill="url(#o)"/><path d="M1872.082,1477.058s7.424,7.19,2.409,15.19c0,0-58.8,10.423-74.771,5.694,0,0,3.315-7.567,21.293-16.18l-1.326,1.019a2.147,2.147,0,0,0,1.419,3.852C1832.952,1485.958,1857.47,1483.788,1872.082,1477.058Z" fill="url(#p)"/><path d="M2016.919,1251.235s-30.05-28.613-44.842-47.565a40.212,40.212,0,0,1-6.809-36.19c6.753-22.751,18.755-46.316,19.849-49.984,1.678-5.621,35.372-5.387,35.372-5.387s66.3,43.03,92.353,115.922l-29.257,9.108s-17.311-29.044-34.416-47.509c0,0,29.6,39.1,30.64,55.106Z" fill="url(#q)"/><path d="M1981.043,1086.078c.351,1.168,9.146,30.322,9.834,30.928s19.286,1.6,28.04-4.378l-14.852-31.09Z" fill="url(#r)"/><path d="M1995.488,1024.843s-15.876,6.7-26.671,29.646-2.733,33.534,7.393,34.988,25.269,1.233,41.286-13.587S2016.127,1016.9,1995.488,1024.843Z" fill="url(#s)"/><path d="M2006.729,1063.642s11.978-33.565-17.78-33.961l-7,4.894s-10.919-18.609,7-27.493,44.661-.973,52.287,23.17,3.163,39.734-9.525,51.286-17.917-1.546-17.917-1.546,6.91-10.8,4.1-16.585-9.3,1.2-9.3,1.2Z" fill="url(#t)"/><path d="M2010.066,1067.38s6.056-17.29,14.135-10.4-6.566,15.971-12.3,18.914Z" fill="url(#u)"/><path d="M1955.7,1253.36l22.078-21.28,30.542,12.9s30.4,4.71,47.8,0l17.4-4.71,39.32-12.241,6.175,17.452a10.509,10.509,0,0,1-3.839,12.073,69.336,69.336,0,0,1-9.931,6.186c-5.178,2.265-127.646-1.567-127.646-1.567Z" fill="url(#v)"/><path d="M2038.9,1034.036c-3.826-3.909-1.339-10.512,4.065-11.355,17.446-2.72,44.043.056,55.215,37.4,12.585,42.066,20.777,63.1,29.184,66.789,5.522,2.424,5.876,10.088.375,12.558-4.067,1.826-9.889,2.474-18.223.641C2045.234,1125.926,2061.346,1056.962,2038.9,1034.036Z" fill="url(#w)"/><path d="M2039.251,1263.392c-.1.005-.2.008-.295.007l-128.071-.14a5.732,5.732,0,1,1,.013-11.464l128.071.139a5.733,5.733,0,0,1,.282,11.458Z" fill="url(#x)"/><path d="M1795.754,1147.111h106.659a20.329,20.329,0,0,1,18.386,11.657l49.308,104.556H1837.559a12.355,12.355,0,0,1-11.49-7.814l-38.236-96.75A8.518,8.518,0,0,1,1795.754,1147.111Z" fill="url(#x)"/><path d="M1708.581,1515.713a4.6,4.6,0,0,1-1.851-.392,4.842,4.842,0,0,1-2.455-6.3l98.363-233.956a4.652,4.652,0,0,1,6.162-2.511,4.842,4.842,0,0,1,2.455,6.3l-98.363,233.955A4.689,4.689,0,0,1,1708.581,1515.713Z" fill="#7d97f4"/><path d="M1819.391,1515.713a4.687,4.687,0,0,1-4.31-2.9l-98.363-233.955a4.841,4.841,0,0,1,2.455-6.3,4.65,4.65,0,0,1,6.162,2.511l98.362,233.956a4.841,4.841,0,0,1-2.454,6.3A4.6,4.6,0,0,1,1819.391,1515.713Z" fill="#7d97f4"/><path d="M2095.923,1515.713a4.6,4.6,0,0,1-1.851-.392,4.84,4.84,0,0,1-2.455-6.3l98.363-233.956a4.651,4.651,0,0,1,6.161-2.511,4.84,4.84,0,0,1,2.455,6.3l-98.362,233.955A4.691,4.691,0,0,1,2095.923,1515.713Z" fill="#7d97f4"/><path d="M2206.732,1515.713a4.69,4.69,0,0,1-4.311-2.9l-98.362-233.955a4.84,4.84,0,0,1,2.454-6.3,4.65,4.65,0,0,1,6.162,2.511l98.363,233.956a4.84,4.84,0,0,1-2.455,6.3A4.6,4.6,0,0,1,2206.732,1515.713Z" fill="#7d97f4"/><path d="M2218.254,1268.071a4.73,4.73,0,0,0-1.112-4.094,5.432,5.432,0,0,0-4.077-1.8H1678.627a6.191,6.191,0,0,0-5.125,2.63,5.4,5.4,0,0,0-.4,5.463l5.791,11.75a8.16,8.16,0,0,0,7.362,4.414H2209.4a6.052,6.052,0,0,0,6.028-4.663Z" fill="#bdd0fb"/></g><g transform="translate(718 1347)"><path d="M1139.436,1137.164V849.717h50.333v287.447Z" fill="url(#z)"/><path d="M1342.8,1137.164h-53.282V896.707h-55.052v-46.99h163.385v46.99H1342.8Z" fill="url(#aa)"/></g><g transform="translate(718 1347)"><g opacity="0.64"><path d="M617.96,994.189a4.409,4.409,0,0,1-4.227-3.166q-1.011-3.441-1.924-6.919a4.408,4.408,0,0,1,8.53-2.231q.876,3.351,1.851,6.665a4.409,4.409,0,0,1-4.23,5.651Z" fill="#fff"/><path d="M611.227,964.521a4.41,4.41,0,0,1-4.346-3.7c-.778-4.806-1.424-9.7-1.914-14.533a4.408,4.408,0,1,1,8.771-.89c.473,4.663,1.1,9.378,1.845,14.013a4.414,4.414,0,0,1-4.356,5.114Zm-3.133-37.629a4.407,4.407,0,0,1-4.408-4.378l-.006-1.6c0-4.309.114-8.7.336-13.051a4.409,4.409,0,0,1,8.806.451c-.217,4.2-.326,8.441-.326,12.6l.005,1.538a4.407,4.407,0,0,1-4.378,4.437Zm2.629-37.659a4.554,4.554,0,0,1-.644-.047,4.409,4.409,0,0,1-3.723-5c.706-4.823,1.564-9.677,2.547-14.427a4.408,4.408,0,0,1,8.633,1.787c-.949,4.583-1.775,9.266-2.457,13.918A4.408,4.408,0,0,1,610.723,889.233Zm8.321-36.817a4.41,4.41,0,0,1-4.213-5.71c1.433-4.636,3.027-9.3,4.737-13.864a4.407,4.407,0,1,1,8.254,3.092c-1.649,4.4-3.187,8.9-4.568,13.375A4.409,4.409,0,0,1,619.044,852.416Zm13.9-35.094a4.411,4.411,0,0,1-3.957-6.345c2.139-4.373,4.438-8.741,6.831-12.985a4.408,4.408,0,0,1,7.679,4.332c-2.31,4.094-4.526,8.308-6.589,12.525A4.41,4.41,0,0,1,632.943,817.322Zm19.168-32.549a4.409,4.409,0,0,1-3.611-6.931c2.789-4,5.73-7.957,8.742-11.771a4.407,4.407,0,1,1,6.918,5.461c-2.9,3.68-5.74,7.5-8.432,11.355A4.4,4.4,0,0,1,652.111,784.773Zm23.932-29.214a4.408,4.408,0,0,1-3.186-7.454c3.365-3.519,6.876-6.982,10.435-10.291a4.407,4.407,0,1,1,6,6.455c-3.431,3.192-6.818,6.532-10.066,9.928A4.39,4.39,0,0,1,676.043,755.559Zm28.109-25.211a4.409,4.409,0,0,1-2.688-7.905c3.861-2.962,7.855-5.848,11.872-8.575a4.408,4.408,0,0,1,4.952,7.294c-3.877,2.631-7.731,5.416-11.455,8.275A4.391,4.391,0,0,1,704.152,730.348Zm31.615-20.626a4.408,4.408,0,0,1-2.122-8.274c4.26-2.334,8.648-4.572,13.038-6.655a4.408,4.408,0,1,1,3.778,7.965c-4.237,2.01-8.47,4.171-12.58,6.421A4.376,4.376,0,0,1,735.767,709.722Zm231.525-2.149a4.388,4.388,0,0,1-2.042-.5c-4.153-2.175-8.431-4.257-12.711-6.187a4.408,4.408,0,0,1,3.623-8.037c4.439,2,8.872,4.159,13.179,6.414a4.409,4.409,0,0,1-2.049,8.314ZM770.154,694.191a4.409,4.409,0,0,1-1.5-8.555c4.57-1.653,9.246-3.189,13.9-4.567a4.408,4.408,0,1,1,2.5,8.453c-4.485,1.329-9,2.811-13.4,4.405A4.409,4.409,0,0,1,770.154,694.191ZM932.588,692.7a4.413,4.413,0,0,1-1.417-.235c-4.446-1.51-8.993-2.906-13.515-4.149a4.408,4.408,0,0,1,2.338-8.5c4.689,1.289,9.4,2.737,14.011,4.3a4.409,4.409,0,0,1-1.417,8.583Zm-126.077-8.553a4.408,4.408,0,0,1-.835-8.736c4.78-.928,9.644-1.726,14.458-2.369a4.408,4.408,0,0,1,1.167,8.739c-4.642.619-9.334,1.388-13.945,2.284A4.356,4.356,0,0,1,806.511,684.145Zm89.495-.789a4.5,4.5,0,0,1-.763-.066c-4.622-.807-9.331-1.488-13.995-2.025a4.408,4.408,0,1,1,1.008-8.758c4.834.556,9.714,1.262,14.5,2.1a4.409,4.409,0,0,1-.752,8.752Zm-51.993-3.527a4.408,4.408,0,0,1-.162-8.812c4.84-.182,9.754-.223,14.649-.122a4.408,4.408,0,0,1-.179,8.814c-4.73-.1-9.47-.057-14.14.117C844.124,679.829,844.069,679.829,844.013,679.829Z" fill="#fff"/><path d="M993.455,723.442a4.4,4.4,0,0,1-2.514-.789q-2.835-1.974-5.737-3.869a4.408,4.408,0,1,1,4.821-7.381q3.009,1.963,5.951,4.013a4.408,4.408,0,0,1-2.521,8.026Z" fill="#fff"/></g><g opacity="0.64"><path d="M1095.337,883.04a4.409,4.409,0,0,1-4.339-3.658q-.59-3.417-1.277-6.8a4.408,4.408,0,1,1,8.639-1.754q.714,3.51,1.326,7.055a4.411,4.411,0,0,1-4.349,5.159Z" fill="#fff"/><path d="M849.188,1170.45h-.082c-4.267-.079-8.587-.268-12.842-.562l-1.565-.114a4.408,4.408,0,1,1,.665-8.79l1.508.108c4.108.285,8.279.468,12.4.544a4.408,4.408,0,0,1-.08,8.815Zm23-.648a4.408,4.408,0,0,1-.325-8.8c4.608-.346,9.262-.831,13.833-1.442a4.408,4.408,0,0,1,1.168,8.739c-4.739.633-9.563,1.136-14.34,1.495Q872.353,1169.8,872.185,1169.8Zm-60-2.805a4.367,4.367,0,0,1-.743-.063c-4.733-.8-9.492-1.752-14.146-2.821a4.408,4.408,0,1,1,1.973-8.592c4.489,1.032,9.081,1.947,13.647,2.722a4.408,4.408,0,0,1-.731,8.754Zm96.725-2.784a4.408,4.408,0,0,1-.991-8.7c4.5-1.041,9.026-2.228,13.452-3.527a4.408,4.408,0,0,1,2.482,8.459c-4.588,1.347-9.28,2.578-13.947,3.657A4.43,4.43,0,0,1,908.913,1164.213Zm-132.793-6.188a4.417,4.417,0,0,1-1.386-.225c-4.547-1.507-9.109-3.166-13.558-4.935a4.408,4.408,0,0,1,3.258-8.192c4.289,1.705,8.687,3.306,13.072,4.759a4.408,4.408,0,0,1-1.386,8.593Zm168.247-4.921a4.409,4.409,0,0,1-1.636-8.5c4.279-1.709,8.568-3.567,12.747-5.522a4.408,4.408,0,0,1,3.737,7.985c-4.333,2.027-8.778,3.953-13.216,5.724A4.366,4.366,0,0,1,944.367,1153.1Zm-202.527-9.427a4.392,4.392,0,0,1-2-.484c-4.265-2.181-8.52-4.515-12.647-6.937a4.408,4.408,0,1,1,4.463-7.6c3.979,2.335,8.084,4.586,12.2,6.692a4.408,4.408,0,0,1-2.011,8.332Zm235.871-6.919a4.409,4.409,0,0,1-2.239-8.209c3.986-2.342,7.948-4.829,11.779-7.387a4.408,4.408,0,1,1,4.9,7.33c-3.968,2.652-8.077,5.229-12.206,7.657A4.389,4.389,0,0,1,977.711,1136.758Zm30.511-21.187a4.408,4.408,0,0,1-2.784-7.828c3.586-2.915,7.133-5.97,10.542-9.08a4.407,4.407,0,1,1,5.941,6.512c-3.532,3.223-7.206,6.389-10.922,9.408A4.388,4.388,0,0,1,1008.222,1115.571Zm26.986-25.533a4.406,4.406,0,0,1-3.259-7.373c3.1-3.414,6.154-6.968,9.062-10.562a4.407,4.407,0,1,1,6.853,5.544c-3.013,3.726-6.175,7.41-9.393,10.949A4.393,4.393,0,0,1,1035.208,1090.038Zm22.846-29.3a4.41,4.41,0,0,1-3.668-6.848c2.556-3.845,5.035-7.82,7.366-11.815a4.408,4.408,0,0,1,7.614,4.446c-2.419,4.141-4.988,8.262-7.638,12.248A4.4,4.4,0,0,1,1058.054,1060.735Zm18.16-32.428a4.41,4.41,0,0,1-4-6.263c1.944-4.191,3.791-8.5,5.491-12.8a4.407,4.407,0,1,1,8.2,3.237c-1.761,4.463-3.676,8.929-5.691,13.275A4.41,4.41,0,0,1,1076.214,1028.307Zm13.023-34.818a4.41,4.41,0,0,1-4.236-5.633c1.281-4.436,2.45-8.967,3.475-13.466a4.407,4.407,0,1,1,8.6,1.954c-1.061,4.664-2.273,9.361-3.6,13.961A4.41,4.41,0,0,1,1089.237,993.489Zm7.586-36.363a4.552,4.552,0,0,1-.577-.038,4.406,4.406,0,0,1-3.8-4.942c.6-4.579,1.072-9.235,1.41-13.841a4.408,4.408,0,0,1,8.792.645c-.35,4.771-.842,9.6-1.462,14.337A4.409,4.409,0,0,1,1096.823,957.126Zm2.049-37.1a4.409,4.409,0,0,1-4.406-4.324c-.088-4.614-.314-9.29-.668-13.9a4.407,4.407,0,1,1,8.788-.679c.368,4.776.6,9.623.7,14.406a4.409,4.409,0,0,1-4.324,4.492Z" fill="#fff"/><path d="M710.015,1124.2a4.389,4.389,0,0,1-2.578-.834q-2.91-2.1-5.756-4.283a4.408,4.408,0,1,1,5.365-7q2.743,2.1,5.553,4.132a4.408,4.408,0,0,1-2.584,7.981Z" fill="#fff"/></g><path d="M720.983,1054.758a2.947,2.947,0,0,0,3.3.9l33.646-12.373a156.172,156.172,0,0,0,44.545,23.989l8.206,34.873a2.946,2.946,0,0,0,2.571,2.256l42.781,4.334a2.948,2.948,0,0,0,2.971-1.695l15.032-32.519a156.15,156.15,0,0,0,48.451-14.569l30.482,18.869a2.946,2.946,0,0,0,3.412-.222l33.316-27.187a2.945,2.945,0,0,0,.9-3.3l-12.373-33.646a156.161,156.161,0,0,0,23.989-44.545l34.874-8.207a2.942,2.942,0,0,0,2.255-2.569l4.334-42.782a2.945,2.945,0,0,0-1.7-2.971l-32.519-15.032a156.124,156.124,0,0,0-14.569-48.451l18.87-30.482a2.948,2.948,0,0,0-.223-3.412l-27.187-33.316a2.943,2.943,0,0,0-3.3-.9l-33.646,12.373a156.141,156.141,0,0,0-44.546-23.989l-8.206-34.874a2.947,2.947,0,0,0-2.57-2.256L851.3,728.724a2.945,2.945,0,0,0-2.97,1.694L833.3,762.938a156.113,156.113,0,0,0-48.451,14.569L754.37,758.638a2.946,2.946,0,0,0-3.413.222l-33.315,27.187a2.945,2.945,0,0,0-.9,3.3l12.373,33.646a156.151,156.151,0,0,0-23.988,44.546l-34.874,8.206a2.945,2.945,0,0,0-2.256,2.57l-4.333,42.781a2.944,2.944,0,0,0,1.694,2.971L697.874,939.1a156.167,156.167,0,0,0,14.569,48.451l-18.869,30.481a2.946,2.946,0,0,0,.223,3.413Z" fill="url(#ab)"/><path d="M853.581,960.449a41.767,41.767,0,1,1,6.169-.455A42.3,42.3,0,0,1,853.581,960.449Zm.11-76.376a34.811,34.811,0,0,0-5.074.373,34.635,34.635,0,1,0,5.074-.373Z" fill="#fff"/><path d="M854.406,1023.625a106.553,106.553,0,0,1-26.508-3.355l-.128-.034c-.227-.058-.452-.117-.678-.177l-.095-.025h0l-.087-.024-.327-.087c-.015,0-.032-.01-.05-.014l-.129-.035-.043-.012q-.493-.135-.983-.274c-.115-.033-.231-.065-.346-.1q-1.063-.3-2.118-.633-.608-.187-1.21-.384a1.763,1.763,0,0,1,1.088-3.354,102.673,102.673,0,0,0,21.256,4.455,101.995,101.995,0,0,0,111.755-91.2,101.937,101.937,0,0,0-91.2-111.756A102.02,102.02,0,0,0,761.953,961.38a1.764,1.764,0,0,1-3.193,1.5A105.531,105.531,0,1,1,959.853,918a105.579,105.579,0,0,1-105.447,105.625Z" fill="#fff"/></g><g transform="translate(718 1347)"><path d="M1107.539,705.655l18.243-8.405a87.5,87.5,0,0,0,25.945,11.42l6.132,19.113a1.65,1.65,0,0,0,1.536,1.146l24.087.521a1.651,1.651,0,0,0,1.584-1.078l6.952-18.831a87.486,87.486,0,0,0,26.414-10.288l17.863,9.185a1.65,1.65,0,0,0,1.9-.276l17.4-16.664a1.651,1.651,0,0,0,.358-1.883l-8.405-18.242a87.5,87.5,0,0,0,11.42-25.945l19.114-6.132a1.65,1.65,0,0,0,1.145-1.536l.521-24.087a1.651,1.651,0,0,0-1.079-1.584l-18.83-6.952a87.463,87.463,0,0,0-10.289-26.414l9.186-17.863a1.65,1.65,0,0,0-.276-1.9l-16.664-17.4a1.651,1.651,0,0,0-1.883-.358l-18.242,8.405a87.477,87.477,0,0,0-25.945-11.42l-6.132-19.114a1.65,1.65,0,0,0-1.536-1.145l-24.087-.521a1.651,1.651,0,0,0-1.584,1.078l-6.952,18.831a87.465,87.465,0,0,0-26.414,10.289l-17.863-9.185a1.648,1.648,0,0,0-1.9.275l-17.4,16.664a1.653,1.653,0,0,0-.358,1.883l8.405,18.242a87.478,87.478,0,0,0-11.42,25.945l-19.114,6.132a1.65,1.65,0,0,0-1.145,1.536l-.521,24.087a1.651,1.651,0,0,0,1.078,1.584l18.831,6.952a87.477,87.477,0,0,0,10.289,26.414L1088.717,686a1.65,1.65,0,0,0,.276,1.9l16.664,17.4A1.65,1.65,0,0,0,1107.539,705.655Z" fill="url(#ac)"/><path d="M1173.679,646.595a23.192,23.192,0,1,1,5.226-.6A23.311,23.311,0,0,1,1173.679,646.595Zm.045-42.8a19.631,19.631,0,1,0,19.133,15.239A19.6,19.6,0,0,0,1173.724,603.8Z" fill="#fff" opacity="0.56"/><g opacity="0.64"><path d="M1065.675,698.654a4.4,4.4,0,0,1-3.69-1.992c-1.322-2.019-2.61-4.106-3.828-6.205a4.408,4.408,0,0,1,7.625-4.424c1.138,1.961,2.341,3.911,3.576,5.795a4.411,4.411,0,0,1-3.683,6.826Z" fill="#fff"/><path d="M1052.676,672.922a4.408,4.408,0,0,1-4.132-2.875,134.376,134.376,0,0,1-4.148-13.252,4.408,4.408,0,1,1,8.537-2.2,125.629,125.629,0,0,0,3.876,12.382,4.41,4.41,0,0,1-4.133,5.942ZM1045,638.606a4.408,4.408,0,0,1-4.387-4.034c-.317-3.724-.477-7.51-.477-11.256q0-1.317.028-2.631a4.348,4.348,0,0,1,4.495-4.318,4.407,4.407,0,0,1,4.317,4.5q-.024,1.224-.024,2.452c0,3.5.15,7.033.446,10.508a4.408,4.408,0,0,1-4.019,4.766C1045.248,638.6,1045.123,638.606,1045,638.606Zm1.86-35.106a4.412,4.412,0,0,1-4.334-5.241,133.577,133.577,0,0,1,3.333-13.488,4.409,4.409,0,0,1,8.437,2.561,124.348,124.348,0,0,0-3.113,12.592A4.409,4.409,0,0,1,1046.857,603.5Zm11.28-33.3a4.408,4.408,0,0,1-3.94-6.378,135.075,135.075,0,0,1,6.836-12.084,4.408,4.408,0,1,1,7.438,4.731,126.789,126.789,0,0,0-6.388,11.292A4.406,4.406,0,0,1,1058.137,570.2Zm19.821-29.039a4.408,4.408,0,0,1-3.269-7.362,133.927,133.927,0,0,1,9.83-9.8,4.408,4.408,0,0,1,5.892,6.559,124.429,124.429,0,0,0-9.179,9.155A4.4,4.4,0,0,1,1077.958,541.161Zm26.9-22.627a4.409,4.409,0,0,1-2.354-8.138,133.081,133.081,0,0,1,12.125-6.778,4.408,4.408,0,0,1,3.892,7.91,124.222,124.222,0,0,0-11.317,6.327A4.382,4.382,0,0,1,1104.861,518.534Zm32.021-14.489a4.409,4.409,0,0,1-1.252-8.635c2.693-.8,5.455-1.524,8.21-2.157q2.641-.6,5.282-1.1a4.408,4.408,0,1,1,1.633,8.663q-2.469.467-4.944,1.032c-2.574.592-5.157,1.27-7.674,2.018A4.406,4.406,0,0,1,1136.882,504.045Zm48.179-4.9c-.129,0-.26-.005-.391-.017a125.024,125.024,0,0,0-12.959-.456,4.408,4.408,0,1,1-.155-8.814,132.078,132.078,0,0,1,13.885.489,4.407,4.407,0,0,1-.38,8.8Z" fill="#fff"/><path d="M1213.382,504.9a4.379,4.379,0,0,1-1.359-.216c-2.152-.7-4.349-1.341-6.531-1.918a4.408,4.408,0,0,1,2.252-8.523c2.337.617,4.689,1.309,6.993,2.054a4.409,4.409,0,0,1-1.355,8.6Z" fill="#fff"/></g><g opacity="0.64"><path d="M1290.553,572.7a4.408,4.408,0,0,1-3.991-2.53c-.966-2.054-2-4.1-3.068-6.079a4.408,4.408,0,1,1,7.758-4.188c1.145,2.122,2.251,4.313,3.286,6.51a4.41,4.41,0,0,1-3.985,6.287Z" fill="#fff"/><path d="M1173.661,757.023a133.4,133.4,0,0,1-15.284-.878,4.408,4.408,0,0,1,1.013-8.757,124.3,124.3,0,0,0,14.221.82h.192a4.408,4.408,0,1,1,0,8.816h-.142Zm24.29-2.32a4.408,4.408,0,0,1-.825-8.738q2.255-.432,4.511-.949c3.194-.734,6.39-1.6,9.494-2.571a4.408,4.408,0,0,1,2.635,8.413c-3.323,1.04-6.739,1.965-10.156,2.75q-2.415.555-4.824,1.016A4.5,4.5,0,0,1,1197.951,754.7Zm36.868-13.032a4.408,4.408,0,0,1-2.085-8.294,124.322,124.322,0,0,0,12.3-7.545,4.407,4.407,0,0,1,5.038,7.233,133.187,133.187,0,0,1-13.172,8.083A4.386,4.386,0,0,1,1234.819,741.671Zm31.232-23.493a4.408,4.408,0,0,1-3.152-7.489,125.531,125.531,0,0,0,9.47-10.887,4.408,4.408,0,1,1,6.974,5.393A134.364,134.364,0,0,1,1269.2,716.85,4.39,4.39,0,0,1,1266.051,718.178Zm22.784-31.764a4.41,4.41,0,0,1-3.924-6.411,125.134,125.134,0,0,0,5.8-13.217,4.408,4.408,0,0,1,8.265,3.07,134.24,134.24,0,0,1-6.211,14.151A4.409,4.409,0,0,1,1288.835,686.414Zm12.29-37.122a4.453,4.453,0,0,1-.74-.062,4.408,4.408,0,0,1-3.611-5.082,123.647,123.647,0,0,0,1.569-14.349,4.361,4.361,0,0,1,4.625-4.179,4.408,4.408,0,0,1,4.181,4.624,132.772,132.772,0,0,1-1.683,15.375A4.409,4.409,0,0,1,1301.125,649.292Zm.546-39.1a4.409,4.409,0,0,1-4.361-3.8c-.5-3.625-1.176-7.282-2-10.871q-.379-1.662-.8-3.295a4.408,4.408,0,1,1,8.537-2.2q.452,1.75.857,3.525c.882,3.836,1.6,7.75,2.142,11.63a4.408,4.408,0,0,1-3.76,4.972A4.537,4.537,0,0,1,1301.671,610.193Z" fill="#fff"/><path d="M1135.083,751.1a4.4,4.4,0,0,1-1.325-.2c-2.305-.725-4.624-1.525-6.892-2.376a4.409,4.409,0,0,1,3.1-8.253c2.116.8,4.28,1.542,6.434,2.22a4.408,4.408,0,0,1-1.32,8.613Z" fill="#fff"/></g><path d="M1173.759,683.329q-.664,0-1.328-.014h0a60.405,60.405,0,0,1-12.649-1.62,1.763,1.763,0,0,1,.817-3.43,56.783,56.783,0,0,0,11.908,1.524,56.367,56.367,0,0,0,57.575-55.141q.013-.613.014-1.226a56.372,56.372,0,0,0-112.73-1.21c-.008.409-.013.818-.013,1.227a56.26,56.26,0,0,0,7.374,27.884,1.737,1.737,0,0,1,.233.872,1.763,1.763,0,0,1-3.294.875,59.769,59.769,0,0,1-7.84-29.63c0-.435.006-.869.014-1.3a59.9,59.9,0,0,1,119.782,1.286c0,.433-.005.868-.014,1.3a59.9,59.9,0,0,1-59.849,58.6Z" fill="#fff" opacity="0.56"/></g><g transform="translate(718 1347)"><g opacity="0.64"><path d="M1339.612,730.746a4.41,4.41,0,0,1-4.229-3.169c-.673-2.3-1.308-4.646-1.887-6.985a4.408,4.408,0,0,1,8.558-2.119c.549,2.218,1.152,4.447,1.791,6.625a4.412,4.412,0,0,1-4.233,5.648Z" fill="#fff"/><path d="M1333.867,701.533a4.41,4.41,0,0,1-4.381-3.956c-.487-4.74-.778-9.57-.863-14.355a4.409,4.409,0,0,1,8.816-.155c.08,4.537.355,9.114.818,13.606a4.417,4.417,0,0,1-4.39,4.86Zm.325-36.692a4.522,4.522,0,0,1-.529-.032,4.409,4.409,0,0,1-3.853-4.9c.568-4.749,1.345-9.521,2.309-14.185a4.408,4.408,0,1,1,8.633,1.784c-.912,4.421-1.649,8.946-2.188,13.449A4.411,4.411,0,0,1,1334.192,664.841Zm8.382-35.712a4.41,4.41,0,0,1-4.151-5.892c1.611-4.506,3.433-8.988,5.415-13.321a4.408,4.408,0,0,1,8.017,3.668c-1.879,4.105-3.6,8.351-5.13,12.619A4.41,4.41,0,0,1,1342.574,629.129Zm16.153-32.952a4.409,4.409,0,0,1-3.711-6.782c2.571-4.027,5.346-7.99,8.249-11.778a4.407,4.407,0,1,1,7,5.36c-2.75,3.591-5.381,7.347-7.819,11.164A4.4,4.4,0,0,1,1358.727,596.177Zm23.081-28.531a4.408,4.408,0,0,1-3.1-7.544c3.394-3.352,6.977-6.6,10.65-9.66a4.408,4.408,0,0,1,5.641,6.774c-3.482,2.9-6.877,5.981-10.1,9.158A4.4,4.4,0,0,1,1381.808,567.646Zm28.806-22.722a4.409,4.409,0,0,1-2.333-8.151c4.057-2.524,8.269-4.9,12.518-7.069a4.409,4.409,0,0,1,4.005,7.855c-4.027,2.053-8.02,4.306-11.863,6.7A4.394,4.394,0,0,1,1410.614,544.924Zm154.352-10.165a4.388,4.388,0,0,1-1.815-.393c-4.122-1.865-8.375-3.573-12.643-5.076a4.408,4.408,0,1,1,2.927-8.315c4.508,1.587,9,3.39,13.349,5.358a4.409,4.409,0,0,1-1.818,8.426Zm-121.249-5.612a4.409,4.409,0,0,1-1.438-8.576c4.518-1.559,9.152-2.94,13.773-4.1a4.408,4.408,0,1,1,2.153,8.549c-4.379,1.1-8.768,2.411-13.05,3.889A4.378,4.378,0,0,1,1443.717,529.147Zm86.33-5.654a4.467,4.467,0,0,1-.878-.087c-4.432-.9-8.964-1.613-13.467-2.132a4.407,4.407,0,1,1,1.009-8.757c4.749.546,9.527,1.3,14.2,2.247a4.408,4.408,0,0,1-.868,8.729Zm-50.54-2.345a4.408,4.408,0,0,1-.466-8.791c4.733-.508,9.56-.821,14.344-.927h.1a4.408,4.408,0,0,1,.1,8.815c-4.537.1-9.112.4-13.6.879A4.519,4.519,0,0,1,1479.507,521.148Z" fill="#fff"/><path d="M1590.961,549.515a4.386,4.386,0,0,1-2.514-.79c-1.865-1.3-3.786-2.574-5.713-3.794a4.408,4.408,0,1,1,4.718-7.447c2.033,1.288,4.061,2.635,6.03,4a4.409,4.409,0,0,1-2.521,8.027Z" fill="#fff"/></g><g opacity="0.64"><path d="M1659.537,658.646a4.409,4.409,0,0,1-4.349-3.72c-.359-2.266-.768-4.537-1.218-6.749a4.409,4.409,0,1,1,8.641-1.755c.473,2.337.907,4.734,1.286,7.127a4.414,4.414,0,0,1-4.36,5.1Z" fill="#fff"/><path d="M1497.5,848.759c-1.87-.008-3.821-.031-5.743-.095a4.408,4.408,0,0,1,.142-8.813c.05,0,.1,0,.148,0q2.712.089,5.4.089h.05c2.641,0,5.319-.067,7.96-.2a4.409,4.409,0,0,1,.441,8.806C1503.112,848.689,1500.285,848.759,1497.5,848.759Zm-27.863-2.337a4.47,4.47,0,0,1-.742-.063c-4.637-.786-9.293-1.778-13.84-2.947a4.409,4.409,0,0,1,2.2-8.539c4.308,1.109,8.723,2.049,13.117,2.794a4.409,4.409,0,0,1-.732,8.755Zm58.255-.505a4.408,4.408,0,0,1-.813-8.74c4.374-.826,8.766-1.851,13.054-3.043a4.408,4.408,0,0,1,2.362,8.494c-4.525,1.258-9.162,2.339-13.78,3.212A4.432,4.432,0,0,1,1527.891,845.917ZM1434.91,836.5a4.386,4.386,0,0,1-1.672-.331c-4.35-1.785-8.673-3.776-12.854-5.919a4.408,4.408,0,0,1,4.022-7.845c3.961,2.03,8.057,3.918,12.179,5.608a4.409,4.409,0,0,1-1.675,8.487Zm127.482-1.165a4.409,4.409,0,0,1-1.751-8.455c4.079-1.763,8.139-3.726,12.065-5.831a4.408,4.408,0,1,1,4.167,7.768c-4.143,2.222-8.427,4.294-12.734,6.156A4.4,4.4,0,0,1,1562.392,835.336Zm31.351-17.882a4.408,4.408,0,0,1-2.593-7.975c3.6-2.617,7.139-5.417,10.51-8.324a4.409,4.409,0,0,1,5.758,6.678c-3.557,3.065-7.287,6.019-11.088,8.78A4.386,4.386,0,0,1,1593.743,817.454Zm26.717-24.279a4.407,4.407,0,0,1-3.3-7.326c2.949-3.34,5.792-6.842,8.451-10.411a4.408,4.408,0,1,1,7.07,5.265c-2.8,3.765-5.8,7.46-8.916,10.983A4.394,4.394,0,0,1,1620.46,793.175Zm20.793-29.517a4.41,4.41,0,0,1-3.857-6.536c2.147-3.9,4.154-7.939,5.966-12.009a4.409,4.409,0,0,1,8.055,3.587c-1.913,4.295-4.033,8.56-6.3,12.675A4.4,4.4,0,0,1,1641.253,763.658Zm13.819-33.376a4.41,4.41,0,0,1-4.236-5.633c1.235-4.269,2.3-8.65,3.179-13.021a4.408,4.408,0,1,1,8.644,1.729c-.923,4.612-2.051,9.235-3.354,13.741A4.41,4.41,0,0,1,1655.072,730.282Zm6.163-35.567c-.093,0-.186,0-.281-.009a4.407,4.407,0,0,1-4.122-4.676c.212-3.36.318-6.76.318-10.1q0-1.656-.034-3.3a4.407,4.407,0,0,1,4.312-4.5h.1a4.4,4.4,0,0,1,4.4,4.315q.039,1.74.038,3.489c0,3.527-.113,7.112-.335,10.656A4.409,4.409,0,0,1,1661.235,694.715Z" fill="#fff"/><path d="M1403.131,819.126a4.385,4.385,0,0,1-2.524-.8c-1.975-1.383-3.94-2.823-5.839-4.281a4.408,4.408,0,1,1,5.366-6.994c1.8,1.38,3.658,2.744,5.528,4.054a4.407,4.407,0,0,1-2.531,8.018Z" fill="#fff"/></g><path d="M1408.575,769.833a1.972,1.972,0,0,0,2.208.6l22.522-8.282a104.5,104.5,0,0,0,29.818,16.058l5.493,23.343a1.97,1.97,0,0,0,1.72,1.51l28.637,2.9a1.971,1.971,0,0,0,1.988-1.134l10.063-21.768a104.515,104.515,0,0,0,32.432-9.752l20.4,12.631a1.975,1.975,0,0,0,2.285-.149l22.3-18.2a1.972,1.972,0,0,0,.6-2.208l-8.282-22.522a104.5,104.5,0,0,0,16.057-29.818l23.344-5.493a1.971,1.971,0,0,0,1.51-1.72l2.9-28.637a1.97,1.97,0,0,0-1.135-1.988l-21.767-10.063a104.5,104.5,0,0,0-9.752-32.432l12.631-20.4a1.974,1.974,0,0,0-.149-2.284l-18.2-22.3a1.971,1.971,0,0,0-2.208-.6l-22.521,8.282a104.556,104.556,0,0,0-29.818-16.058L1526.167,556a1.971,1.971,0,0,0-1.72-1.51l-28.638-2.9a1.972,1.972,0,0,0-1.988,1.134l-10.062,21.768a104.5,104.5,0,0,0-32.432,9.752l-20.4-12.63a1.972,1.972,0,0,0-2.284.148l-22.3,18.2a1.97,1.97,0,0,0-.6,2.208l8.282,22.521a104.531,104.531,0,0,0-16.058,29.818L1374.615,650a1.969,1.969,0,0,0-1.509,1.72l-2.9,28.637a1.972,1.972,0,0,0,1.134,1.989l21.768,10.062a104.5,104.5,0,0,0,9.752,32.432l-12.631,20.4a1.972,1.972,0,0,0,.149,2.284Z" fill="url(#ad)"/><path d="M1497.327,709.634a30.951,30.951,0,1,1,4.563-.337A31.277,31.277,0,0,1,1497.327,709.634Zm.106-51.127a20.654,20.654,0,0,0-3,.22,20.269,20.269,0,1,0,5.911,40.1h0a20.271,20.271,0,0,0-2.914-40.325Z" fill="#fff" opacity="0.56"/><path d="M1497.885,749.575a71.985,71.985,0,0,1-7.23-.365h0a71.714,71.714,0,0,1-14.839-3.112,1.763,1.763,0,0,1,1.088-3.354A67.692,67.692,0,1,0,1430.14,678.4a67.46,67.46,0,0,0,6.388,28.678,1.763,1.763,0,0,1-3.192,1.5,71.223,71.223,0,1,1,135.718-30.291,71.267,71.267,0,0,1-71.169,71.287Z" fill="#fff" opacity="0.56"/></g><g transform="translate(718 1347)"><g opacity="0.64"><path d="M894.972,709.137a1.762,1.762,0,0,1-1.69-1.266c-.424-1.441-.81-2.909-1.147-4.362a1.764,1.764,0,0,1,3.437-.795c.32,1.386.688,2.786,1.091,4.161a1.764,1.764,0,0,1-1.691,2.262Z" fill="#fff"/><path d="M892.371,696.34a1.763,1.763,0,0,1-1.75-1.561,80.173,80.173,0,0,1-.53-8.84,1.764,1.764,0,0,1,1.756-1.77h.007a1.763,1.763,0,0,1,1.763,1.757,76.793,76.793,0,0,0,.507,8.449,1.763,1.763,0,0,1-1.548,1.953A1.591,1.591,0,0,1,892.371,696.34Zm-.069-17.291a1.737,1.737,0,0,1-.189-.011,1.763,1.763,0,0,1-1.566-1.939,79.807,79.807,0,0,1,1.426-8.738,1.764,1.764,0,0,1,3.444.761,76.465,76.465,0,0,0-1.364,8.35A1.763,1.763,0,0,1,892.3,679.049Zm3.733-16.877a1.766,1.766,0,0,1-1.669-2.335,79.1,79.1,0,0,1,3.339-8.208,1.762,1.762,0,1,1,3.185,1.51,75.872,75.872,0,0,0-3.187,7.84A1.765,1.765,0,0,1,896.035,662.172Zm7.4-15.631a1.763,1.763,0,0,1-1.5-2.693,79.871,79.871,0,0,1,5.081-7.254,1.764,1.764,0,0,1,2.772,2.181,75.775,75.775,0,0,0-4.857,6.933A1.763,1.763,0,0,1,903.439,646.541Zm10.7-13.587a1.763,1.763,0,0,1-1.256-3A79.86,79.86,0,0,1,919.44,624a1.763,1.763,0,1,1,2.221,2.739,76.259,76.259,0,0,0-6.269,5.687A1.762,1.762,0,0,1,914.137,632.954Zm13.43-10.888a1.764,1.764,0,0,1-.954-3.248,79.588,79.588,0,0,1,7.709-4.354,1.762,1.762,0,0,1,1.56,3.161,76.529,76.529,0,0,0-7.365,4.162A1.759,1.759,0,0,1,927.567,622.066Zm74.546-4.957a1.748,1.748,0,0,1-.744-.167,75.828,75.828,0,0,0-7.855-3.144,1.763,1.763,0,1,1,1.122-3.342,78.7,78.7,0,0,1,8.224,3.292,1.763,1.763,0,0,1-.747,3.361Zm-59.049-2.689a1.763,1.763,0,0,1-.6-3.422,78.835,78.835,0,0,1,8.487-2.534,1.763,1.763,0,0,1,.815,3.43,75.908,75.908,0,0,0-8.1,2.42A1.754,1.754,0,0,1,943.064,614.42Zm42.662-2.824a1.759,1.759,0,0,1-.372-.04,76.876,76.876,0,0,0-8.361-1.316,1.763,1.763,0,0,1,.354-3.509,80.331,80.331,0,0,1,8.747,1.378,1.763,1.763,0,0,1-.368,3.487Zm-25.845-1.181a1.763,1.763,0,0,1-.212-3.513,79.624,79.624,0,0,1,8.835-.577h.017a1.764,1.764,0,0,1,.017,3.527,76.14,76.14,0,0,0-8.442.55A1.741,1.741,0,0,1,959.881,610.415Z" fill="#fff"/><path d="M1013.505,623.669a1.768,1.768,0,0,1-1.006-.315c-1.173-.816-2.385-1.609-3.6-2.357a1.763,1.763,0,1,1,1.846-3c1.274.781,2.541,1.611,3.771,2.465a1.764,1.764,0,0,1-1.009,3.211Z" fill="#fff"/></g><g opacity="0.64"><path d="M1046.008,676.2a1.764,1.764,0,0,1-1.744-1.512c-.2-1.421-.452-2.848-.736-4.241a1.763,1.763,0,0,1,3.454-.706c.3,1.461.558,2.956.774,4.445a1.765,1.765,0,0,1-1.495,2A1.832,1.832,0,0,1,1046.008,676.2Z" fill="#fff"/><path d="M969.406,764.79q-1.823,0-3.657-.084a1.762,1.762,0,0,1-1.68-1.842,1.792,1.792,0,0,1,1.842-1.681,76.127,76.127,0,0,0,8.323-.074,1.764,1.764,0,0,1,.224,3.52C972.793,764.735,971.094,764.789,969.406,764.79Zm-12.053-.93a1.8,1.8,0,0,1-.272-.021,79.558,79.558,0,0,1-8.523-1.808,1.764,1.764,0,0,1,.92-3.405,75.865,75.865,0,0,0,8.144,1.728,1.763,1.763,0,0,1-.269,3.506Zm25.447-.237a1.763,1.763,0,0,1-.3-3.5,75.229,75.229,0,0,0,8.1-1.892,1.763,1.763,0,1,1,.991,3.384,79.094,79.094,0,0,1-8.485,1.982A1.775,1.775,0,0,1,982.8,763.623Zm-41.87-4.2a1.762,1.762,0,0,1-.645-.123,78.933,78.933,0,0,1-7.919-3.637,1.763,1.763,0,0,1,1.646-3.118,75.351,75.351,0,0,0,7.564,3.473,1.764,1.764,0,0,1-.646,3.405Zm58.2-.574a1.764,1.764,0,0,1-.68-3.391,76.037,76.037,0,0,0,7.49-3.624,1.764,1.764,0,0,1,1.708,3.086,79.734,79.734,0,0,1-7.837,3.792A1.762,1.762,0,0,1,999.125,758.844Zm14.881-8.235a1.763,1.763,0,0,1-1.02-3.2,76.409,76.409,0,0,0,6.524-5.17,1.764,1.764,0,0,1,2.339,2.642,80.423,80.423,0,0,1-6.828,5.407A1.747,1.747,0,0,1,1014.006,750.609Zm12.733-11.275a1.763,1.763,0,0,1-1.306-2.948,76.054,76.054,0,0,0,5.247-6.463,1.763,1.763,0,1,1,2.855,2.068,79.44,79.44,0,0,1-5.491,6.764A1.758,1.758,0,0,1,1026.739,739.334Zm9.978-13.776a1.762,1.762,0,0,1-1.531-2.635,74.794,74.794,0,0,0,3.707-7.454,1.764,1.764,0,0,1,3.241,1.393,78.614,78.614,0,0,1-3.883,7.8A1.762,1.762,0,0,1,1036.717,725.558Zm6.72-15.631a1.765,1.765,0,0,1-1.687-2.277,75.3,75.3,0,0,0,1.978-8.083,1.764,1.764,0,0,1,3.468.647,79.194,79.194,0,0,1-2.072,8.462A1.765,1.765,0,0,1,1043.437,709.927Zm3.134-16.718c-.045,0-.09,0-.135-.005a1.762,1.762,0,0,1-1.625-1.891l.038-.529c.122-1.765.184-3.548.184-5.3q0-1.252-.039-2.493a1.762,1.762,0,1,1,3.522-.115q.045,1.3.044,2.608c0,1.837-.064,3.7-.192,5.542l-.041.557A1.763,1.763,0,0,1,1046.571,693.209Z" fill="#fff"/><path d="M925.816,751.43a1.751,1.751,0,0,1-.99-.306c-1.248-.849-2.476-1.736-3.652-2.639a1.762,1.762,0,1,1,2.145-2.8c1.125.861,2.3,1.71,3.49,2.521a1.763,1.763,0,0,1-.993,3.221Z" fill="#fff"/></g><path d="M927.493,727.884a.93.93,0,0,0,1.041.285l10.622-3.906a49.282,49.282,0,0,0,14.061,7.573l2.591,11.008a.927.927,0,0,0,.811.712l13.505,1.368a.929.929,0,0,0,.937-.534l4.746-10.266a49.281,49.281,0,0,0,15.295-4.6l9.622,5.957a.931.931,0,0,0,1.077-.071l10.517-8.582a.93.93,0,0,0,.284-1.041l-3.9-10.621a49.309,49.309,0,0,0,7.572-14.062l11.009-2.59a.93.93,0,0,0,.712-.811l1.368-13.505a.93.93,0,0,0-.535-.938l-10.266-4.745a49.272,49.272,0,0,0-4.6-15.295l5.957-9.622a.929.929,0,0,0-.07-1.077l-8.582-10.517a.931.931,0,0,0-1.042-.285L999.6,645.626a49.254,49.254,0,0,0-14.061-7.572l-2.591-11.009a.929.929,0,0,0-.811-.712l-13.505-1.368a.931.931,0,0,0-.938.535l-4.745,10.265a49.307,49.307,0,0,0-15.295,4.6l-9.622-5.956a.929.929,0,0,0-1.077.07l-10.516,8.582a.928.928,0,0,0-.285,1.041l3.906,10.621a49.3,49.3,0,0,0-7.573,14.062l-11.009,2.59a.93.93,0,0,0-.712.812l-1.368,13.5a.93.93,0,0,0,.535.938l10.266,4.746a49.3,49.3,0,0,0,4.6,15.294l-5.956,9.622a.932.932,0,0,0,.07,1.078Z" fill="url(#ae)"/><path d="M969.368,698.762a13.827,13.827,0,1,1,2.023-.149A13.837,13.837,0,0,1,969.368,698.762Zm.016-24.108a10.291,10.291,0,1,0,1.494,20.471h0a10.29,10.29,0,0,0-1.494-20.471Z" fill="#fff" opacity="0.56"/><path d="M969.611,719.263a34.805,34.805,0,0,1-3.5-.177h0a34.873,34.873,0,0,1-7.19-1.508A1.764,1.764,0,0,1,960,714.222a31.242,31.242,0,0,0,6.46,1.355h0a31.007,31.007,0,0,0,33.87-26.942c.031-.255.061-.511.086-.767a31.328,31.328,0,0,0,.162-3.186,30.993,30.993,0,1,0-59.061,13.212,1.763,1.763,0,1,1-3.192,1.5,34.52,34.52,0,1,1,65.78-14.718,35.253,35.253,0,0,1-.179,3.547A34.571,34.571,0,0,1,969.611,719.263Z" fill="#fff" opacity="0.56"/></g><g transform="translate(718 1347)"><g opacity="0.64"><path d="M1794.73,918.755a1.765,1.765,0,0,0,1.691-1.267q.632-2.145,1.174-4.324a1.764,1.764,0,1,0-3.423-.851c-.348,1.405-.729,2.8-1.133,4.18a1.762,1.762,0,0,0,1.193,2.189A1.731,1.731,0,0,0,1794.73,918.755Z" fill="#fff"/><path d="M1797.354,905.934a1.766,1.766,0,0,1-1.459-2.023c.457-2.812.8-5.678,1.027-8.517a1.763,1.763,0,1,1,3.516.277c-.233,2.936-.589,5.9-1.061,8.8a1.764,1.764,0,0,1-1.739,1.48A1.836,1.836,0,0,1,1797.354,905.934Zm-.107-19.115c-.007-2.332-.093-4.686-.253-6.994q-.057-.792-.122-1.581a1.762,1.762,0,1,1,3.512-.294c.047.541.088,1.083.126,1.628.169,2.387.256,4.82.263,7.231a1.762,1.762,0,0,1-1.758,1.768h-.005A1.764,1.764,0,0,1,1797.247,886.819Zm-1.439-17.085c-.472-2.826-1.063-5.65-1.757-8.4a1.764,1.764,0,1,1,3.42-.864c.716,2.838,1.328,5.758,1.815,8.679a1.764,1.764,0,0,1-1.448,2.029,1.848,1.848,0,0,1-.293.024A1.763,1.763,0,0,1,1795.808,869.734Zm-4.191-16.62c-.922-2.7-1.968-5.384-3.108-7.991a1.763,1.763,0,1,1,3.23-1.413c1.179,2.7,2.261,5.476,3.215,8.265a1.763,1.763,0,0,1-1.1,2.238,1.745,1.745,0,0,1-.57.1A1.763,1.763,0,0,1,1791.617,853.114Zm-6.872-15.7c-1.352-2.506-2.828-4.988-4.384-7.378a1.763,1.763,0,0,1,2.955-1.925c1.61,2.471,3.133,5.038,4.532,7.627a1.763,1.763,0,0,1-3.1,1.676Zm-9.357-14.369c-1.741-2.246-3.6-4.454-5.53-6.561a1.763,1.763,0,1,1,2.6-2.382c1.993,2.179,3.917,4.461,5.716,6.784a1.762,1.762,0,1,1-2.786,2.159Zm-11.576-12.648c-2.092-1.942-4.287-3.818-6.522-5.573a1.764,1.764,0,0,1,2.18-2.773c2.311,1.815,4.578,3.753,6.742,5.761a1.764,1.764,0,0,1-2.4,2.585Zm-13.475-10.6c-2.374-1.574-4.843-3.067-7.337-4.438a1.763,1.763,0,0,1,1.7-3.091c2.579,1.418,5.131,2.962,7.588,4.59a1.763,1.763,0,1,1-1.949,2.939Zm-108.571-6.182a1.763,1.763,0,0,1,.744-2.381c2.607-1.367,5.3-2.642,8.018-3.788a1.763,1.763,0,1,1,1.374,3.247c-2.624,1.11-5.234,2.343-7.757,3.665a1.743,1.743,0,0,1-.816.2A1.762,1.762,0,0,1,1641.766,793.611Zm93.558-2.081c-2.6-1.165-5.282-2.234-7.963-3.178a1.764,1.764,0,1,1,1.171-3.327c2.772.976,5.542,2.083,8.232,3.287a1.763,1.763,0,1,1-1.44,3.218Zm-77.612-4.977a1.765,1.765,0,0,1,1.124-2.226c2.793-.918,5.664-1.732,8.534-2.419a1.763,1.763,0,1,1,.819,3.43c-2.774.664-5.551,1.451-8.251,2.339a1.761,1.761,0,0,1-2.226-1.124Zm61.451-.714c-2.748-.719-5.567-1.334-8.378-1.827a1.763,1.763,0,1,1,.609-3.473c2.906.508,5.822,1.145,8.664,1.889a1.764,1.764,0,0,1-.446,3.47A1.741,1.741,0,0,1,1719.163,785.839Zm-44.565-3.628a1.763,1.763,0,0,1,1.474-2.011c2.9-.447,5.868-.78,8.812-.993a1.764,1.764,0,0,1,.255,3.518c-2.851.205-5.72.528-8.53.96a1.76,1.76,0,0,1-2.011-1.474Zm27.684.672c-2.829-.258-5.71-.4-8.566-.429a1.763,1.763,0,0,1,.015-3.526h.016c2.953.027,5.932.175,8.855.442a1.764,1.764,0,0,1-.158,3.52C1702.39,782.89,1702.337,782.887,1702.282,782.883Z" fill="#fff"/><path d="M1632.006,801.424a1.76,1.76,0,0,0,1.006-.316q1.774-1.236,3.606-2.4a1.763,1.763,0,0,0-1.891-2.977q-1.893,1.2-3.73,2.481a1.764,1.764,0,0,0,1.009,3.211Z" fill="#fff"/></g><g opacity="0.64"><path d="M1587.631,871.92a1.763,1.763,0,0,0,1.739-1.485q.344-2.146.775-4.264a1.764,1.764,0,0,0-3.458-.7q-.441,2.192-.8,4.408a1.763,1.763,0,0,0,1.462,2.019A1.694,1.694,0,0,0,1587.631,871.92Z" fill="#fff"/><path d="M1688.852,995.095a1.764,1.764,0,0,1,.12-3.525q1.743.06,3.5.06c1.591.048,3.286-.035,4.94-.112a1.763,1.763,0,1,1,.162,3.523c-1.71.078-3.369.108-5.1.116Q1690.656,995.157,1688.852,995.095Zm-8.7-.649c-2.875-.331-5.777-.785-8.621-1.35a1.763,1.763,0,0,1,.689-3.459c2.749.547,5.554.986,8.335,1.3a1.764,1.764,0,1,1-.4,3.5Zm24.151-1.68a1.764,1.764,0,0,1,1.529-1.97c2.777-.349,5.58-.818,8.33-1.39a1.763,1.763,0,0,1,.72,3.452c-2.843.591-5.739,1.075-8.609,1.437a1.689,1.689,0,0,1-.223.014A1.763,1.763,0,0,1,1704.3,992.766Zm-41.252-1.716c-2.785-.792-5.572-1.71-8.284-2.726a1.763,1.763,0,1,1,1.236-3.3c2.624.984,5.321,1.871,8.012,2.637a1.763,1.763,0,1,1-.964,3.392Zm58.107-1.512a1.764,1.764,0,0,1,1.191-2.191c2.693-.794,5.383-1.708,7.995-2.715a1.763,1.763,0,0,1,1.267,3.29c-2.7,1.041-5.48,1.986-8.263,2.807a1.76,1.76,0,0,1-2.19-1.191Zm-74.424-4.6c-2.618-1.231-5.224-2.585-7.739-4.028a1.763,1.763,0,1,1,1.753-3.059c2.434,1.395,4.952,2.7,7.484,3.895a1.763,1.763,0,0,1-.75,3.359A1.743,1.743,0,0,1,1646.733,984.935Zm90.532-1.3a1.763,1.763,0,0,1,.821-2.354c2.521-1.217,5.028-2.554,7.449-3.975a1.763,1.763,0,0,1,1.784,3.041c-2.5,1.469-5.093,2.851-7.7,4.109a1.761,1.761,0,0,1-2.354-.821ZM1631.6,976.27c-2.384-1.633-4.738-3.389-6.993-5.216a1.764,1.764,0,1,1,2.221-2.74c2.181,1.768,4.457,3.466,6.766,5.046a1.764,1.764,0,0,1-1.994,2.91Zm-13.544-10.975c-2.095-1.994-4.137-4.1-6.072-6.269a1.763,1.763,0,0,1,2.631-2.348c1.869,2.094,3.846,4.134,5.873,6.061a1.764,1.764,0,0,1-2.432,2.556Zm-11.62-13c-1.753-2.31-3.432-4.719-4.988-7.162a1.762,1.762,0,1,1,2.971-1.9c1.507,2.361,3.131,4.692,4.827,6.926a1.763,1.763,0,1,1-2.81,2.131Zm-9.383-14.7c-1.358-2.569-2.627-5.218-3.769-7.876a1.764,1.764,0,0,1,3.241-1.392c1.1,2.57,2.329,5.133,3.645,7.618a1.763,1.763,0,0,1-3.117,1.65Zm-6.882-16.027c-.923-2.745-1.744-5.564-2.441-8.377a1.763,1.763,0,0,1,3.423-.849c.675,2.722,1.468,5.447,2.362,8.1a1.764,1.764,0,0,1-1.109,2.234,1.8,1.8,0,0,1-.563.093A1.766,1.766,0,0,1,1590.174,921.561Zm-4.2-16.922c-.466-2.861-.825-5.772-1.064-8.656a1.764,1.764,0,0,1,3.516-.291c.229,2.791.577,5.609,1.03,8.377a1.765,1.765,0,0,1-1.457,2.025,1.732,1.732,0,0,1-.286.023A1.766,1.766,0,0,1,1585.976,904.639Zm-1.439-17.378v-.322c0-2.787.11-5.611.325-8.393a1.763,1.763,0,1,1,3.516.273c-.208,2.691-.315,5.423-.315,8.12v.322a1.763,1.763,0,1,1-3.526,0Z" fill="#fff"/><path d="M1753.738,975.882a1.754,1.754,0,0,0,1.012-.321q1.835-1.288,3.609-2.65a1.763,1.763,0,1,0-2.145-2.8q-1.718,1.317-3.492,2.564a1.763,1.763,0,0,0,1.016,3.205Z" fill="#fff"/></g><path d="M1761.866,930.713a1.277,1.277,0,0,0,.1-1.479l-8.177-13.21a67.674,67.674,0,0,0,6.314-21l14.093-6.515a1.278,1.278,0,0,0,.734-1.288l-1.878-18.539a1.276,1.276,0,0,0-.978-1.114l-15.112-3.556a67.68,67.68,0,0,0-10.4-19.3l5.361-14.581a1.275,1.275,0,0,0-.391-1.429l-14.437-11.782a1.277,1.277,0,0,0-1.479-.1L1722.407,825a67.672,67.672,0,0,0-21-6.314l-6.515-14.092a1.276,1.276,0,0,0-1.287-.735l-18.54,1.878a1.277,1.277,0,0,0-1.114.978l-3.556,15.113a67.661,67.661,0,0,0-19.3,10.4l-14.581-5.362a1.277,1.277,0,0,0-1.43.391L1623.3,841.691a1.275,1.275,0,0,0-.1,1.478l8.177,13.21a67.663,67.663,0,0,0-6.313,21l-14.093,6.514a1.277,1.277,0,0,0-.734,1.287l1.878,18.541a1.275,1.275,0,0,0,.977,1.113l15.113,3.557a67.675,67.675,0,0,0,10.4,19.3l-5.362,14.581a1.275,1.275,0,0,0,.391,1.429l14.438,11.782a1.275,1.275,0,0,0,1.478.1l13.21-8.177a67.67,67.67,0,0,0,21,6.314l6.515,14.092a1.275,1.275,0,0,0,1.287.735l18.54-1.879a1.275,1.275,0,0,0,1.113-.977l3.557-15.113a67.672,67.672,0,0,0,19.3-10.4l14.581,5.362a1.275,1.275,0,0,0,1.429-.391Z" fill="url(#af)"/><path d="M1689.914,904.316h0a18.3,18.3,0,1,1,2.681.2A18.332,18.332,0,0,1,1689.914,904.316Zm-11.957-20.27a14.8,14.8,0,0,0,12.47,16.781h0a14.784,14.784,0,1,0-12.47-16.781Z" fill="#fff" opacity="0.56"/><path d="M1692.213,932.66a47.737,47.737,0,0,0,4.8-.243h0q.963-.1,1.918-.234a47.021,47.021,0,0,0,6.607-1.433l.22-.065c.183-.055.365-.111.548-.168.148-.047.3-.093.444-.141a1.763,1.763,0,0,0-1.088-3.355,43.049,43.049,0,0,1-40.672-7.623,42.909,42.909,0,0,1-15.667-29.117,43.644,43.644,0,0,1-.226-4.441,43.2,43.2,0,0,1,86.187-4.267,43.527,43.527,0,0,1,.223,4.384,43.042,43.042,0,0,1-4.078,18.3,1.764,1.764,0,1,0,3.193,1.5,46.583,46.583,0,0,0,4.411-19.8,47.059,47.059,0,0,0-.239-4.742,46.731,46.731,0,0,0-93.223,4.615,47.842,47.842,0,0,0,.243,4.8,46.738,46.738,0,0,0,46.4,42.025Z" fill="#fff" opacity="0.56"/><path d="M1799.787,1112.6l3.082-4.33a1.323,1.323,0,0,0-2.156-1.534l-.008.012-.015.021-3,4.322-.014.021a1.293,1.293,0,0,0,2.116,1.488Z" fill="#e992ec"/><path d="M1809.733,1097.942l2.8-4.519a1.417,1.417,0,1,0-2.409-1.494l-.008.013-.014.023-2.725,4.5-.013.023a1.389,1.389,0,0,0,2.368,1.451Z" fill="#e992ec"/><path d="M1818.737,1082.679l2.512-4.687a1.512,1.512,0,1,0-2.666-1.429l-.007.014-.013.025-2.437,4.664-.013.024a1.484,1.484,0,0,0,2.624,1.389Z" fill="#e992ec"/><path d="M1826.769,1066.877l2.215-4.837a1.608,1.608,0,0,0-2.923-1.339l-.007.016-.012.028-2.139,4.805-.012.027a1.579,1.579,0,0,0,2.878,1.3Z" fill="#e992ec"/><path d="M1833.8,1050.6l1.908-4.968a1.7,1.7,0,1,0-3.179-1.221l-.006.017-.012.031-1.831,4.928-.011.03a1.674,1.674,0,0,0,3.131,1.183Z" fill="#e992ec"/><path d="M1839.786,1033.9l1.587-5.081a1.8,1.8,0,1,0-3.431-1.072l-.006.018-.009.033-1.513,5.033-.01.033a1.769,1.769,0,0,0,3.382,1.036Z" fill="#e992ec"/><path d="M1844.692,1016.842l1.254-5.177a1.892,1.892,0,1,0-3.678-.891l-.005.02-.009.036-1.181,5.118-.008.036a1.864,1.864,0,0,0,3.627.858Z" fill="#e992ec"/><path d="M1848.469,999.491l.905-5.253a1.987,1.987,0,0,0-3.916-.675l0,.022-.006.04-.836,5.182-.006.039a1.958,1.958,0,0,0,3.863.645Z" fill="#e992ec"/><path d="M1851.066,981.914l.54-5.306a2.082,2.082,0,1,0-4.143-.422l0,.022,0,.044-.476,5.224,0,.044a2.054,2.054,0,0,0,4.089.394Z" fill="#e992ec"/><path d="M1852.426,964.186l.158-5.337a2.177,2.177,0,1,0-4.352-.129v.071l-.1,5.243v.048a2.149,2.149,0,0,0,4.3.1Z" fill="#e992ec"/><path d="M1852.494,946.4l-.239-5.329a2.272,2.272,0,1,0-4.539.2v.024l0,.052.291,5.222,0,.052a2.243,2.243,0,0,0,4.481-.225Z" fill="#e992ec"/><path d="M1851.218,928.648l-.652-5.3a2.367,2.367,0,1,0-4.7.578l0,.025.008.055.694,5.188.008.055a2.338,2.338,0,0,0,4.638-.6Z" fill="#e992ec"/><path d="M1848.549,911.029l-1.078-5.24a2.462,2.462,0,0,0-4.823.992l.005.026.013.059,1.109,5.111.013.058a2.433,2.433,0,0,0,4.761-1.006Z" fill="#e992ec"/><path d="M1844.452,893.672l-1.51-5.132a2.557,2.557,0,0,0-4.906,1.444l.008.026.019.061,1.527,4.993.018.061a2.529,2.529,0,0,0,4.844-1.453Z" fill="#e992ec"/><path d="M1838.9,876.708l-1.97-4.989a2.652,2.652,0,0,0-4.933,1.949l.011.026.028.069,1.968,4.83.028.069a2.623,2.623,0,0,0,4.868-1.954Z" fill="#e992ec"/><path d="M1831.794,860.3l-2.42-4.787a2.747,2.747,0,0,0-4.9,2.478l.013.027.035.065,2.4,4.629.034.066a2.718,2.718,0,0,0,4.838-2.478Z" fill="#e992ec"/><path d="M1823.234,844.612l-2.835-4.553a2.842,2.842,0,1,0-4.825,3.005l.016.026.04.062,2.805,4.4.04.063a2.813,2.813,0,0,0,4.759-3Z" fill="#e992ec"/><path d="M1813.325,829.732l-3.22-4.291a2.937,2.937,0,0,0-4.7,3.526l.019.025.046.06,3.175,4.136.046.06a2.908,2.908,0,0,0,4.632-3.516Z" fill="#e992ec"/><path d="M1802.166,815.759l-3.577-4a3.032,3.032,0,0,0-4.52,4.042l.022.024.052.057,3.516,3.848.052.057a3,3,0,0,0,4.455-4.027Z" fill="#e992ec"/><path d="M1789.848,802.786l-3.909-3.682a3.126,3.126,0,0,0-4.288,4.551l.025.023.059.055,3.83,3.531.059.054a3.1,3.1,0,0,0,4.224-4.532Z" fill="#e992ec"/><path d="M1776.454,790.91l-4.215-3.333a3.222,3.222,0,1,0-4,5.055l.027.021.066.051,4.119,3.185.066.051a3.193,3.193,0,0,0,3.933-5.03Z" fill="#e992ec"/><path d="M1762.066,780.238l-4.5-2.949a3.316,3.316,0,1,0-3.637,5.547l.029.019.075.048,4.38,2.8.074.048a3.288,3.288,0,0,0,3.577-5.518Z" fill="#e992ec"/><path d="M1746.765,770.887l-4.754-2.529a3.412,3.412,0,0,0-3.2,6.025l.033.017.084.043,4.612,2.39.085.044a3.383,3.383,0,0,0,3.144-5.99Z" fill="#e992ec"/><path d="M1730.643,762.986l-4.978-2.066a3.507,3.507,0,1,0-2.688,6.478l.035.014.1.038,4.811,1.936.095.038a3.477,3.477,0,0,0,2.63-6.438Z" fill="#e992ec"/><path d="M1713.811,756.677l-5.169-1.561a3.6,3.6,0,1,0-2.082,6.895l.037.011.106.031,4.974,1.443.106.031a3.572,3.572,0,0,0,2.028-6.85Z" fill="#e992ec"/><path d="M1696.4,752.1l-5.312-1.014a3.7,3.7,0,1,0-1.385,7.263l.039.007.117.021,5.089.913.117.021a3.667,3.667,0,0,0,1.335-7.211Z" fill="#e992ec"/><path d="M1678.573,749.4l-5.4-.428a3.791,3.791,0,0,0-.6,7.559l.041,0,.126.009,5.151.352.126.009a3.762,3.762,0,0,0,.554-7.5Z" fill="#e992ec"/><path d="M1660.534,748.682l-3.189.086a3.874,3.874,0,1,0,.209,7.746h.041l.077,0,3.032-.114.079,0a3.858,3.858,0,0,0-.249-7.711Z" fill="#e992ec"/><path d="M1788.989,1105.1l2.906-4.514a1.509,1.509,0,1,0-2.538-1.634l-.022.035-.044.073-2.681,4.474-.038.064a1.423,1.423,0,0,0,2.417,1.5Z" fill="#e992ec"/><path d="M1797.748,1089.508l2.1-4.95a1.793,1.793,0,1,0-3.3-1.4l-.019.046-.035.091-1.878,4.851-.031.082a1.707,1.707,0,0,0,3.163,1.282Z" fill="#e992ec"/><path d="M1803.779,1072.629l1.259-5.244a2.078,2.078,0,0,0-4.041-.971l-.013.057-.022.108-1.049,5.086-.02.1a1.991,1.991,0,0,0,3.886.867Z" fill="#e992ec"/><path d="M1806.955,1054.936l.376-5.393a2.362,2.362,0,1,0-4.712-.329c0,.022,0,.044,0,.066l0,.127-.194,5.17,0,.116a2.275,2.275,0,0,0,4.542.243Z" fill="#e992ec"/><path d="M1807.143,1036.912l-.547-5.4a2.646,2.646,0,1,0-5.265.533c0,.025.005.049.008.073l.02.147.685,5.109.017.134a2.559,2.559,0,0,0,5.082-.6Z" fill="#e992ec"/><path d="M1804.227,1019.064l-1.469-5.234a2.93,2.93,0,0,0-5.642,1.584c.008.026.015.052.023.078l.048.152,1.549,4.9.045.141a2.842,2.842,0,0,0,5.446-1.625Z" fill="#e992ec"/><path d="M1798.317,1001.941l-2.323-4.928a3.214,3.214,0,1,0-5.815,2.741c.012.027.025.054.039.08l.078.152,2.337,4.571.072.141a3.127,3.127,0,0,0,5.612-2.757Z" fill="#e992ec"/><path d="M1789.635,985.988l-3.112-4.491a3.5,3.5,0,0,0-5.751,3.985l.056.079.112.149,3.049,4.112.1.14a3.41,3.41,0,0,0,5.542-3.974Z" fill="#e992ec"/><path d="M1778.4,971.652l-3.835-3.919a3.782,3.782,0,1,0-5.406,5.291l.074.075.15.143,3.68,3.526.141.135a3.694,3.694,0,0,0,5.2-5.251Z" fill="#e992ec"/></g><g transform="translate(718 1347)"><rect width="13.912" height="150.447" transform="translate(488.089 1460.031) rotate(180)" fill="url(#ag)"/><path d="M0,0H121.847a0,0,0,0,1,0,0V5.978a3.078,3.078,0,0,1-3.078,3.078H2.855A2.855,2.855,0,0,1,0,6.2V0A0,0,0,0,1,0,0Z" transform="translate(542.056 1462.932) rotate(180)" fill="url(#ah)"/><rect width="162.814" height="46.176" rx="15.9" transform="translate(397.167 1273.758)" fill="url(#ai)"/><path d="M558.619,1433.379s39.725,28.634,32.828,47.871c0,0-43.465-18.753-48.717-33.526s.889-21.3.889-21.3Z" fill="url(#aj)"/><path d="M552.649,1409.381l-6.495,18.779a6.527,6.527,0,0,0,2.534,7.662,17.057,17.057,0,0,0,5.376,2.081,7.6,7.6,0,0,0,8.41-3.817l7.77-14.632Z" fill="url(#ak)"/><path d="M489.435,1240.357s81.6,14.141,116.6,46.475-32.127,135.473-32.127,135.473-11-.068-24.326-11.492c0,0,39.8-77.57,5.5-100.191-38.564-25.432-83.006-31.159-83.006-31.159l16.573-36.613Z" fill="url(#al)"/><path d="M584.544,1470.61c-8.738-4.045-33.474-21.358-37.644-22.122s-11.4,4.136-11.4,4.136-1.759,3.164.122,8.683c5.806,7.025,18.7,20.418,36.029,25.408,12.748,3.671,21.665.249,27.219-3.756A36.851,36.851,0,0,0,584.544,1470.61Z" fill="url(#am)"/><path d="M571.649,1486.715c-17.331-4.99-30.223-18.383-36.029-25.408,1.272,3.729,4.2,8.532,10.469,14.164,15.539,13.965,45.216,19,51.534,18.029,5.064-.777,4.587-5.451,1.245-10.541C593.314,1486.964,584.4,1490.386,571.649,1486.715Z" fill="url(#an)"/><path d="M528.089,1440.4c.1,2.408,5.018,10.664,7.893,15.3a7.5,7.5,0,0,0,6.352,3.553,19.328,19.328,0,0,0,5.248-.631,4.866,4.866,0,0,0,3.268-6.054l-5.619-19.187Z" fill="url(#ao)"/><path d="M410.892,1215.865s-18.121,48.454,0,63.189,61.35,31.324,71.007,60.673,26.045,86.387,47.975,106.588c0,0,15.409-1.493,21.175-7.633,0,0-12.49-85.149-20.728-107-7.134-18.921-17.645-46.231-37.787-61.5-5.767-4.37-4.762-11.291-2.089-18.014l4.869-12.241Z" fill="url(#ap)"/><path d="M599.883,1177.888c-30.383,1.832-20.916-46.709-20.368-48.64L533.4,1161.82s2.442,25.959,40.782,39.575a47.645,47.645,0,0,0,26.4,1.912A41.954,41.954,0,0,1,599.883,1177.888Z" fill="url(#aq)"/><path d="M658.633,1163.278c-11.322-7.876-24.149,0-24.149,0-15.139,9.9-26.338,14.112-34.6,14.61a41.954,41.954,0,0,0,.7,25.419c16.96-3.645,29.093-15.919,34.365-22.217a5.476,5.476,0,0,1,7.58-.829c2.358,1.861,4.647,4.411,4.232,7.094-.818,5.291,5.321,6.972,5.784,5.054s-2.1-13.3-2.1-13.3,12.279,12.348,17.073,17.093,10.821,0,10.821,0S669.955,1171.154,658.633,1163.278Z" fill="url(#ar)"/><path d="M458.209,1054.285s44.2-17.7,126.466,50.216c0,0,6.871,14.223-.625,26.883s-78.919,74.343-88.736,108.551c0,0-42.551,13.826-86.557-18.961C408.757,1220.974,412.641,1125.771,458.209,1054.285Z" fill="url(#as)"/><path d="M545.593,1038.49l-21.76,26.38a8.663,8.663,0,0,0-1.142,9.311c3.02,6.161,10.187,15.13,26.08,13.89a13.356,13.356,0,0,0,10.98-7.491l15.215-31.453Z" fill="url(#at)"/><path d="M423.987,1167.263c-5.132-20.9,46.845-67.49,46.845-67.49l-12.623-45.488s-112.235,74.716-83.633,134.8c4.1,8.613,9.546,14.647,15.859,18.682C399.473,1183.44,413.875,1172.283,423.987,1167.263Z" fill="url(#au)"/><path d="M423.95,1164.22a1.226,1.226,0,0,1-1.191-.935c-5.248-21.367,45.074-66.773,47.218-68.7a1.229,1.229,0,1,1,1.641,1.829c-.515.46-51.373,46.335-46.474,66.282a1.227,1.227,0,0,1-.9,1.485A1.24,1.24,0,0,1,423.95,1164.22Z" fill="url(#av)"/><path d="M502.712,1165.464s-61.625,23.926-76.667,5.93a10.1,10.1,0,0,1-2.058-4.131c-10.112,5.02-24.514,16.177-33.552,40.5,32.412,20.71,87.812-11.522,102.791-21.024a11.189,11.189,0,0,1,8.278-1.519c5.778,1.2,15.759,2.96,21.142,2.131,7.875-1.214,19.186,26.565,31.949,18C554.595,1205.352,543.666,1157.067,502.712,1165.464Z" fill="url(#aw)"/><path d="M599.876,1008.134s.376,28.725-4.266,41.77-5.367,22.469-21.184,18.849-25.151-16.176-26.546-31.7c0,0-2.325-23.99,3.4-31.01S599.876,1008.134,599.876,1008.134Z" fill="url(#ax)"/><path d="M556.749,1030.04l1.863.782s-1.066-18.97,6.841-18.905,36.916,5.835,46.661-1.226c9.4-6.807,9.4-20.7,3.367-27.113a1.076,1.076,0,0,0-1.458-.064l-1.1.905a1.086,1.086,0,0,1-1.767-.965h0a1.082,1.082,0,0,0-1.68-1.028c-2.955,2.095-9.669,4.7-23.479,1.684-19.595-4.279-34.708-1.966-40.28,10.478a1.086,1.086,0,0,1-1.894.17c-1-1.381-2.987-2.667-6.872-1.458-6.756,2.1-9.285,13.852-2.1,27.407a1.08,1.08,0,0,1-.721,1.585c-2.527.459-6.775,2.291-.83,9.606,6.081,7.484,10.914,8.975,12.853,9.262a1.086,1.086,0,0,0,1.193-.717l3.988-11.427a1.085,1.085,0,0,1,1.445-.643Z" fill="url(#ay)"/><path d="M556.229,1032.563s2.479-17.207-6.3-15.778-3.689,18.9,1.66,21.826Z" fill="url(#az)"/><path d="M762.654,1489.965a5.579,5.579,0,0,0,2.145-.43,5.2,5.2,0,0,0,2.844-6.911L653.69,1226.164a5.5,5.5,0,0,0-7.138-2.753,5.2,5.2,0,0,0-2.844,6.911l113.953,256.46A5.444,5.444,0,0,0,762.654,1489.965Z" fill="#7d97f4"/><path d="M634.282,1489.965a5.443,5.443,0,0,0,4.994-3.183l113.952-256.46a5.2,5.2,0,0,0-2.844-6.911,5.5,5.5,0,0,0-7.138,2.753l-113.953,256.46a5.2,5.2,0,0,0,2.845,6.911A5.574,5.574,0,0,0,634.282,1489.965Z" fill="#7d97f4"/><path d="M409.922,1489.965a5.579,5.579,0,0,0,2.145-.43,5.2,5.2,0,0,0,2.844-6.911l-113.952-256.46a5.5,5.5,0,0,0-7.139-2.753,5.2,5.2,0,0,0-2.844,6.911l113.953,256.46A5.444,5.444,0,0,0,409.922,1489.965Z" fill="#7d97f4"/><path d="M281.551,1489.965a5.443,5.443,0,0,0,4.994-3.183L400.5,1230.322a5.2,5.2,0,0,0-2.844-6.911,5.5,5.5,0,0,0-7.138,2.753l-113.952,256.46a5.2,5.2,0,0,0,2.844,6.911A5.574,5.574,0,0,0,281.551,1489.965Z" fill="#7d97f4"/><path d="M268.185,1218.247a6.257,6.257,0,0,1,1.079-4.744,4.933,4.933,0,0,1,3.955-2.087h518.4a5.778,5.778,0,0,1,4.97,3.047,7.293,7.293,0,0,1,.386,6.33l-5.618,13.612a7.864,7.864,0,0,1-7.141,5.113H276.776a6.173,6.173,0,0,1-5.847-5.4Z" fill="#bdd0fb"/><path d="M534.283,1212.646c.1,0,.2.007.3.006l129.3-.141a5.787,5.787,0,1,0-.013-11.574l-129.3.141a5.788,5.788,0,0,0-.285,11.568Z" fill="url(#ba)"/><path d="M780.112,1095.251H672.431a20.523,20.523,0,0,0-18.562,11.769l-49.78,105.556H737.907a12.473,12.473,0,0,0,11.6-7.888l38.6-97.677A8.6,8.6,0,0,0,780.112,1095.251Z" fill="url(#bb)"/></g><g transform="translate(718 1347)"><path d="M1361.8,1008.981a4.162,4.162,0,0,0-.174-6.127L1144.137,808.8a2.028,2.028,0,0,0-2.224-.316h0a2.028,2.028,0,0,0-.5,3.322l214.664,197.256a4.164,4.164,0,0,0,5.72-.082Z" fill="url(#bc)"/><path d="M1489.973,1486.737a3.556,3.556,0,0,1,.094-.934c4.655-18.457,27.762-29.952,27.762-29.952l9.156.717c5.264,16.268,4.588,26.244,3.742,30.688-.023.125-.061.243-.094.364A217.33,217.33,0,0,1,1489.973,1486.737Z" fill="url(#bd)"/><path d="M1530.633,1487.62a3.97,3.97,0,0,1-2.906,2.934c-10.744,2.26-27.82.441-34.99-.5a3.332,3.332,0,0,1-2.764-3.321A217.33,217.33,0,0,0,1530.633,1487.62Z" fill="url(#be)"/><path d="M1566.891,1160.014c5.655,6.036,13.981,11.251,19.84,14.5-8.75,10.815-20.59,21.647-36.264,32.248l-4.486,10.067-14.373-17.227S1557.4,1186.772,1566.891,1160.014Z" fill="url(#bf)"/><path d="M1530.666,1442.931l-3.877,18.668a3.052,3.052,0,0,1-2.609,2.511,25.878,25.878,0,0,1-6.008-.095,3.838,3.838,0,0,1-3.039-4.509l2.7-16.575Z" fill="url(#bg)"/><path d="M1450.319,1487.433c10.112-.284,15.343-1.474,18.047-2.58.006,1.006,0,2.029-.033,3.089a1.994,1.994,0,0,1-1.905,2.03l-55.522-.358a2.536,2.536,0,0,1-2.04-3.691C1416.146,1486.524,1434.687,1487.87,1450.319,1487.433Z" fill="url(#bh)"/><path d="M1408.866,1485.923a2.615,2.615,0,0,1,.22-.419c4.9-6.851,17.392-20.494,42.07-26.412l11.839-.373s5.271,9.162,5.371,26.134c-2.7,1.106-7.935,2.3-18.047,2.58C1434.687,1487.87,1416.146,1486.524,1408.866,1485.923Z" fill="url(#bi)"/><path d="M1465.19,1440.777c-.132.883-1.754,14.3-2.383,19.495a2.576,2.576,0,0,1-2.173,2.327,27.138,27.138,0,0,1-8.131-.126,3.5,3.5,0,0,1-2.654-3.514v-21.053Z" fill="url(#bj)"/><path d="M1474.688,1196.017s-28.554,108.515-28.038,245.071a5.285,5.285,0,0,0,4.194,5.151,61.631,61.631,0,0,0,13.236,1.532,4.9,4.9,0,0,0,4.674-4.095c4-23.479,26.98-155.749,40.071-177.223,0,0,8.613,117.806,5.86,178.924a2.9,2.9,0,0,0,2.556,3.012,48.693,48.693,0,0,0,10.626-.029,3.877,3.877,0,0,0,3.454-3.291c2.852-19.871,19.266-138.151,18.568-223.355-.039-4.8-12.706-25.7-12.706-25.7Z" fill="#7d97f4"/><path d="M1430.9,1049.863c5-12.78,13.434-21.53,21.917-31.64,31.787,5.764,83.889,10.906,105.617,13.644a27.627,27.627,0,0,1,17.457,9.371c17.728,20.516,56.629,76.683,10.841,133.28-5.859-3.253-14.185-8.469-19.84-14.5,5.065-14.28,5.48-32.528-5.136-54.905a52.478,52.478,0,0,1-1.356,5.257c-14.633,46.355-15.413,84.931-15.38,93.821a2.937,2.937,0,0,1-1.842,2.744c-19.257,7.717-56.327,3.123-68.771,1.269a4.185,4.185,0,0,1-3.5-4.749c6.108-44.246-25.236-117.032-33.514-135.263a12.076,12.076,0,0,0-6.014-6.016c-1.339-.606-2.651-1.224-3.948-1.848A109.5,109.5,0,0,1,1430.9,1049.863Z" fill="url(#bk)"/><path d="M1525.148,989.3l2.267,39.557a2.431,2.431,0,0,1-1.826,2.5c-5.02,1.267-18.9,3.787-30.971-3.085a3.936,3.936,0,0,1-1.8-4.5l10.1-35.543Z" fill="url(#bl)"/><path d="M1500.4,946.08c-.514.484-21.668,42.026-21.668,42.026L1502.7,999.68l25.9-36.394S1508.991,937.989,1500.4,946.08Z" fill="url(#bm)"/><path d="M1518,964.294a3.832,3.832,0,0,1-.288,3.359l-11.958,19.934a3.742,3.742,0,0,1-.656.816c-1.423,1.325-6.294,5.179-10.059-.068-3.209-4.472-6.22-8.538-9.447-10.215a3.822,3.822,0,0,0-5.159,1.7,142.679,142.679,0,0,0-8.184,19.414,3.805,3.805,0,0,0,2.215,4.668c4.855,1.967,14.45,5.524,22.965,6.7a3.822,3.822,0,0,0,3.616-1.537c3.663-5.018,13.989-19.043,17.512-22.554,3.274-3.261,9.317-2.031,12.039-1.249a3.843,3.843,0,0,0,3.055-.4c2.763-1.664,7.583-5.807,3.173-12.822a3.829,3.829,0,0,1,1.184-5.2c3.084-2.029,6.431-5.837,3.243-12-3.228-6.243-8.992-6.8-12.918-6.323a3.972,3.972,0,0,1-4.167-2.317,2.526,2.526,0,0,0-1.973-1.554,3.714,3.714,0,0,1-3.005-4.36c.693-3.533.171-8.122-5.469-11.223-10.345-5.688-19.407,3.58-21.712,11.4s9.263,13.353,16.539,14.276C1513.886,955.412,1516.817,961.245,1518,964.294Z" fill="url(#bn)"/><path d="M1514.062,993.829s4.6-13.46,10.488-12.966,10.523,6.36,3.226,12.955C1518.7,1002.02,1514.062,993.829,1514.062,993.829Z" fill="url(#bo)"/><path d="M1509.875,1263.687a1.075,1.075,0,0,0,1.04-.806c2.368-9.133,20.1-19.169,20.278-19.27a1.076,1.076,0,1,0-1.053-1.877c-.763.427-18.711,10.587-21.308,20.606a1.076,1.076,0,0,0,.771,1.313A1.1,1.1,0,0,0,1509.875,1263.687Z" fill="url(#bp)"/><path d="M1358.183,1030.5c30.225,11.046,94.633-12.273,94.633-12.273l4.431,52.623c-51.576,16.307-85.139,11.559-106.964-2.127C1348.926,1053.165,1353.6,1039.627,1358.183,1030.5Z" fill="url(#bq)"/><path d="M1310.061,976.186l12.649-2.5s3.45,40.247,31.622,55.124a31.2,31.2,0,0,0,3.851,1.691c-4.582,9.131-9.257,22.669-7.9,38.223C1305.933,1040.909,1310.061,976.186,1310.061,976.186Z" fill="url(#br)"/><path d="M1322.068,977.189l.642-3.508s2.639-8.569-4.341-17c-10.088-12.193-17.471-7.71-17.471-7.71a27.192,27.192,0,0,1,.488,4.921,2.17,2.17,0,0,1-3.64,1.548l-16.464-15.13s-4.61,24.028,30.7,40.544Z" fill="url(#bs)"/></g></g></svg>